<svg id="Layer_1" data-name="Layer 1" xmlns="http://www.w3.org/2000/svg" xmlns:xlink="http://www.w3.org/1999/xlink" viewBox="0 0 223.5 73.2"><defs><style>.cls-1{fill:none;}.cls-2{clip-path:url(#clip-path);}.cls-3{clip-path:url(#clip-path-2);}.cls-4{fill:#124b8e;}</style><clipPath id="clip-path"><rect class="cls-1" width="223.5" height="73.2"/></clipPath><clipPath id="clip-path-2"><rect class="cls-1" width="223.6" height="73.2"/></clipPath></defs><title>jb-logo</title><g class="cls-2"><g class="cls-3"><path class="cls-4" d="M7,16.8h8.4V61.6c0,7-5.1,11.6-12.1,11.6H0V65.3H2.4C5.2,65.3,7,64,7,60.9V16.8M7,0h8.4V8.4H7Z"/></g><g class="cls-3"><path class="cls-4" d="M29.1,33.8c.2-6.3,3.8-9.7,8.8-9.7s8.5,3.4,8.8,9.7H29.1M55,40.7V33.8c0-10.7-7.9-17.5-17.1-17.5-8,0-17.1,5.2-17.1,21.4,0,17,9.9,21.1,18.4,21.1a19.26,19.26,0,0,0,15-6.7l-6-5.1a13.29,13.29,0,0,1-9.1,4c-5.7,0-9.9-3.4-9.9-10.2H55Z"/></g><g class="cls-3"><path class="cls-4" d="M61.6,4.2H70V16.8h6.1v6.4H70V47.4c0,2.3.9,3.1,2.9,3.1H76v7.9H71.7c-5.8,0-10.1-3.7-10.1-10.2v-25H57.4V16.8h4.2V4.2"/></g><g class="cls-3"><path class="cls-4" d="M103.8,32.4c6.6,0,9.5,4.2,9.5,8.8s-2.9,8.8-9.5,8.8H90.2V32.4h13.6M81.4,58.3H106c8.8,0,16.2-6.5,16.2-16.5,0-5.9-3.1-12-9.5-13.4v-.2c6.8-3,8.6-7.7,8.6-12.5C121.3,6.5,115.4,0,104,0H81.4V58.3M103,7.9c6.4,0,9.4,3.8,9.4,8.4s-3,8.3-9.4,8.3H90.2V7.9Z"/></g><g class="cls-3"><path class="cls-4" d="M127,0h8.4V47.6c0,1.9,1.1,2.9,3.1,2.9h2.9v7.9h-3.7c-6.1,0-10.6-2.6-10.6-10.1V0"/></g><g class="cls-3"><path class="cls-4" d="M144.8,16.8h8.4V41.5c0,5.7,3.5,8.9,8.3,8.9s8.2-3.3,8.2-8.9V16.8h8.4V58.3h-8.4V53.9h-.2a13.14,13.14,0,0,1-10.7,4.9,14,14,0,0,1-13.9-14.4V16.8"/></g><g class="cls-3"><path class="cls-4" d="M190.8,33.8c.2-6.3,3.8-9.7,8.8-9.7s8.5,3.4,8.8,9.7H190.8m25.9,6.9V33.8c0-10.7-7.9-17.5-17.1-17.5-8,0-17.1,5.2-17.1,21.4,0,17,9.9,21.1,18.4,21.1a19.26,19.26,0,0,0,15-6.7l-6.1-5.2a13.29,13.29,0,0,1-9.1,4c-5.7,0-9.9-3.4-9.9-10.2Z"/></g><g class="cls-3"><path class="cls-4" d="M219.8,16.1a3.7,3.7,0,0,1,0,7.4,3.69,3.69,0,0,1-3.7-3.7,3.63,3.63,0,0,1,3.7-3.7m0,6.6a2.81,2.81,0,0,0,2.9-3,2.86,2.86,0,0,0-2.9-3,2.81,2.81,0,0,0-2.9,3A2.81,2.81,0,0,0,219.8,22.7Zm-1.4-5.2H220c1,0,1.5.4,1.5,1.3a1.17,1.17,0,0,1-1.1,1.3l1.2,1.8h-.9l-1.2-1.7h-.4v1.7h-.7V17.5Zm.7,1.9h.5c.6,0,1.1,0,1.1-.6s-.5-.6-1-.6H219v1.2Z"/></g></g></svg>