<?xml version="1.0" encoding="utf-8"?>
<!-- Generator: Adobe Illustrator 23.0.1, SVG Export Plug-In . SVG Version: 6.00 Build 0)  -->
<svg version="1.1" id="Layer_1" xmlns="http://www.w3.org/2000/svg" xmlns:xlink="http://www.w3.org/1999/xlink" x="0px" y="0px"
	 viewBox="0 0 351.59 109.37" style="enable-background:new 0 0 351.59 109.37;" xml:space="preserve">
<style type="text/css">
	.st0{fill:#231F20;}
	.st1{fill:#6CBF70;}
	.st2{fill:#0071BB;}
	.st3{fill:#808184;}
</style>
<path class="st0" d="M34,100.83c0.7,0.75,1.32,1.89,1.32,3.47c0,2.8-2.16,5.06-4.74,5.06c-1.46,0-2.65-0.68-3.49-1.58L10.93,90.03
	v18.59H1.45V56.48h19.59c6.69,0,15.26,5.89,15.26,16.47c0,8.99-6.2,16.17-12.75,16.17L34,100.83z M26.83,72.94
	c0-3.62-2.58-6.57-6.07-6.57h-9.83v13.07h9.83C24.1,79.44,26.83,76.58,26.83,72.94z"/>
<path class="st0" d="M61.81,82.48c0,2.34-1.81,4.24-3.96,4.24h-9.86v9.1h18.01l-2.68,8.53H40.18v-43.6h25.83v8.53H48.05v8.91h9.79
	C60,78.18,61.81,80.14,61.81,82.48z"/>
<path class="st0" d="M74.1,109.37c-2.51,0-4.74-2.26-4.74-5.06V56.48h9.62l19.24,33.16V56.48h9.48v52.21h-9.34L78.84,75.9v28.41
	C78.84,107.1,76.68,109.37,74.1,109.37z"/>
<path class="st0" d="M151.45,84.14c0,12.25-9.22,22.24-20.52,22.24c-11.3,0-20.52-9.99-20.52-22.24c0-12.25,9.22-22.25,20.52-22.25
	C142.24,61.89,151.45,71.89,151.45,84.14z M130.93,97.62c6.9,0,12.43-5.99,12.43-13.47c0-7.48-5.53-13.48-12.43-13.48
	c-6.9,0-12.43,5.99-12.43,13.48C118.5,91.62,124.03,97.62,130.93,97.62z"/>
<path class="st0" d="M316.36,84.14c0,12.25-9.21,22.24-20.51,22.24c-11.3,0-20.52-9.99-20.52-22.24c0-12.25,9.22-22.25,20.52-22.25
	C307.15,61.89,316.36,71.89,316.36,84.14z M295.85,97.62c6.89,0,12.43-5.99,12.43-13.47c0-7.48-5.53-13.48-12.43-13.48
	c-6.9,0-12.43,5.99-12.43,13.48C283.42,91.62,288.95,97.62,295.85,97.62z"/>
<path class="st0" d="M163.99,66.68v-10.2h33.17c2.59,0,4.75,2.34,4.75,5.14c0,2.79-2.16,5.06-4.75,5.06h-10.38v41.93h-9.47V66.68
	H163.99z"/>
<path class="st0" d="M200.12,104.6c-2.16,0-4.73-2.23-3.59-5.69l12.14-37.57h11.06l13.51,40.79l-6.67,2.91l-3.48-9.95h-17.27
	l-1.99,6.61C203.49,102.87,202.23,104.6,200.12,104.6z M209.02,84.89l12.54,5.31l-7.3-22.06L209.02,84.89z"/>
<path class="st0" d="M267.46,109.37c-2.58,0-4.74-2.26-4.74-5.06V86.1h-15.68v22.52l-9.48,0.07V56.48h9.2v17.98l15.96,6.2V56.48
	h9.47v47.83C272.2,107.1,270.04,109.37,267.46,109.37z"/>
<path class="st0" d="M346.57,82.47c0,2.79-2.16,5.06-4.74,5.06h-11.78v10.88h21.53l-3.21,10.2h-27.67V56.48h30.88v10.2h-21.46v10.65
	h11.7C344.41,77.33,346.57,79.68,346.57,82.47z"/>
<path class="st0" d="M169.49,86.04c0,3.01-2.44,5.45-5.45,5.45c-3.01,0-5.45-2.44-5.45-5.45c0-3.01,2.44-5.45,5.45-5.45
	C167.05,80.59,169.49,83.03,169.49,86.04z"/>
<g>
	<path class="st0" d="M21.55,13.1v5.95H7v6.22h10.44l-2.21,5.95H7v9.79c0,1.63-1.59,2.95-3.5,2.95c-1.9,0-3.5-1.32-3.5-2.95V13.1
		H21.55z"/>
	<path class="st0" d="M46.29,37.57l-2.21,5.95H24.64V15.66c0-1.63,1.59-3,3.5-3c1.9,0,3.5,1.37,3.5,3v21.91H46.29z"/>
	<path class="st0" d="M70.26,13.1L59.25,29.54v11.46c0,1.63-1.59,2.95-3.5,2.95c-1.9,0-3.5-1.32-3.5-2.95V29.5L42.23,14.95l5.71-1.9
		l7.77,11.15l7.61-11.11H70.26z"/>
	<path class="st0" d="M79.31,19.05V13.1h24.48c1.9,0,3.5,1.37,3.5,3c0,1.63-1.59,2.95-3.5,2.95h-7.66v24.47h-7V19.05H79.31z"/>
	<path class="st0" d="M142.16,28.31c0,8.38-7.97,15.21-17.74,15.21s-17.74-6.83-17.74-15.21s7.97-15.21,17.74-15.21
		S142.16,19.93,142.16,28.31z M124.42,37.52c5.97,0,10.75-4.1,10.75-9.21c0-5.11-4.78-9.21-10.75-9.21s-10.75,4.1-10.75,9.21
		C113.67,33.42,118.45,37.52,124.42,37.52z"/>
</g>
<g>
	<path class="st1" d="M139.29,84.13c0,4.64-3.76,8.41-8.41,8.41c-4.64,0-8.41-3.76-8.41-8.41c0-4.64,3.76-8.41,8.41-8.41
		C135.52,75.72,139.29,79.48,139.29,84.13z"/>
</g>
<g>
	<path class="st2" d="M304.31,84.13c0,4.64-3.76,8.41-8.41,8.41c-4.64,0-8.41-3.76-8.41-8.41c0-4.64,3.77-8.41,8.41-8.41
		C300.56,75.72,304.31,79.48,304.31,84.13z"/>
</g>
<path class="st3" d="M154.05,53.1c12.78-10.96,26.27-22.19,40.49-31.23c6.26-3.98,12.91-7.26,19.25-11.09
	c1.71-1.03,6.14-4.47,8.27-3.18c2.8,1.69,5.37,5.91,7.71,8.24c5.58,5.56,11.6,10.69,17.56,15.83c3.24,2.8,6.44,5.65,9.61,8.52
	c1.95,1.76,4.45,3.82,7.2,4.06c6.97,0.6,11.08-5.24,15.93-9.24c6.53-5.38,13.13-10.78,20.96-14.16c-1.25-0.1-2.49-0.21-3.74-0.31
	c5.58,4.99,10.27,10.82,16.02,15.65c3.35,2.81,6.93,5.35,10.45,7.93c1.9,1.39,5.72,2.37,7.2,3.97c3.26,3.52,8.97-1.29,5.69-4.83
	c-2.09-2.25-4.9-2.8-7.45-4.43c-3.53-2.26-6.87-4.99-10.17-7.58c-6.39-5.02-11.43-11.42-17.47-16.83c-0.98-0.88-2.62-0.8-3.74-0.31
	c-7.2,3.11-13.54,7.87-19.61,12.77c-3,2.42-5.83,4.95-8.63,7.6c-3.75,3.55-6.05,1.71-9.26-1.2c-6.87-6.21-14.01-12.12-20.83-18.4
	c-3.1-2.85-6.08-5.83-8.94-8.92c-1.72-1.85-3.43-4.7-6.02-5.48C219-1.2,214.16,1.88,209.54,4.67c-6.52,3.93-13.32,7.35-19.76,11.45
	c-14.25,9.05-27.75,20.31-40.56,31.29C145.58,50.53,150.39,56.24,154.05,53.1L154.05,53.1z"/>
</svg>
