<?xml version="1.0" encoding="utf-8"?>
<!-- Generator: Adobe Illustrator 23.0.0, SVG Export Plug-In . SVG Version: 6.00 Build 0)  -->
<svg version="1.1" xmlns="http://www.w3.org/2000/svg" xmlns:xlink="http://www.w3.org/1999/xlink" x="0px" y="0px"
	 viewBox="0 0 4284.16 2717.12" style="enable-background:new 0 0 4284.16 2717.12;" xml:space="preserve">
<style type="text/css">
	
		.st0{fill-rule:evenodd;clip-rule:evenodd;fill:none;stroke:#FFFFFF;stroke-width:13;stroke-linecap:round;stroke-linejoin:round;stroke-miterlimit:10;}
	.st1{fill:none;stroke:#FFFFFF;stroke-width:10;stroke-linecap:round;stroke-linejoin:round;stroke-miterlimit:10;}
	.st2{fill:none;stroke:#FFFFFF;stroke-width:13;stroke-linecap:round;stroke-linejoin:round;stroke-miterlimit:10;}
	.st3{fill:none;stroke:#FFFFFF;stroke-width:12;stroke-linecap:round;stroke-linejoin:round;stroke-miterlimit:10;}
	.st4{fill:none;stroke:#FFFFFF;stroke-width:8;stroke-linecap:round;stroke-linejoin:round;stroke-miterlimit:10;}
</style>
<g id="branch">
	<path id="branch-10" class="st0" d="M3532.76,2122.45c34.01,9.85,154.53,48.28,199.84,104.94s129.31,175.44,231.75,235.73
		c252.72,148.73,313.31,122.34,313.31,122.34"/>
	<path id="branch-9" class="st0" d="M2376.76,1522.45c26.37,12.6,292.05,197.75,320.43,218.57
		c28.38,20.81,285.31,196.58,315.3,212.85c48.96,26.56,182.02,92.5,182.02,92.5"/>
	<path id="branch-8" class="st0" d="M1940.9,1450.03c50.15,16.96,102.74,33.64,114.75,35.37c22.48,3.24,104.58,8.96,127.11,9.05"/>
	<path id="branch-7" class="st0" d="M1296.76,1348.45c12.94-2.97,269.23-19.39,295.39-16.22c26.16,3.16,155.16,49.73,155.16,49.73
		s2.02,0.59,5.5,1.64"/>
	<path id="branch-6" class="st0" d="M628.35,1308.35c-16.63,7.03-121.92,43.28-208.01,50.59c-29.24,2.48-155.41,1.73-180.89-1.85
		c-25.48-3.58-54.93-29.85-74.6-23.87c-19.67,5.98-28.93,37.81-42.77,59.68s-51.5,66.69-42.77,73.6
		c8.73,6.92,33.53,11.32,61.67,14.92c28.13,3.6,241.8,15.79,280.49,9.95c52.26-7.89,157.37-32.88,192.96-42.77
		c17.79-4.95,31.37-9.19,42.92-13.56"/>
	<path id="branch-5" class="st0" d="M798.87,1241.53"/>
	<path id="branch-4" class="st0" d="M844.81,1228.64c-15.84,3.89-31.2,8.25-45.94,12.89"/>
	<path id="branch-3" class="st0" d="M2211.31,1335.46c-126.55,12.99-197.16-17.4-218.55-29.01"/>
	<path id="branch-2" class="st0" d="M3049.32,1773.32c-251.29-125.57-277.64-198.75-371.03-256.1
		c-140.96-86.56-248.66-144.22-248.66-144.22"/>
	<path id="branch-1" class="st0" d="M4277.66,2394.49c0,0-43.04,6.55-63.66,3.98c-20.61-2.57-74.83-11.87-125.32-51.72
		c-50.49-39.85-150.2-113.01-182.02-156.16c-79.33-107.56-178.45-158.2-202.79-174.38c-39.41-26.19-100.03-45.75-164.72-63.21"/>
</g>
<g id="mouth">
	<path id="mouth-inner" class="st1" d="M96.89,900.23c42-27,90.01-54.01,123.01-63.01c33-9,141.01-51.01,192.02-63.01
		s237.02-42,258.03-48c21-6,75.01,0,75.01,0"/>
	<path id="mouth-outter" class="st1" d="M96.42,879.67c19.23-12.55,34.92-27.04,55.68-37.66c10.28-5.26,19.25-13.01,30.46-18.16
		c12.86-5.91,27.2-0.81,36.84-4.98c3.49-1.51,5.37-9.81,9.18-11.77c8.54-4.41,13.92-3.86,22.6-6.5
		c13.42-4.07,21.09-12.14,34.37-15.59c5.09-1.32,10.11,0.93,14.92-0.18c1.85,0.39,3.69,0.79,5.54,1.18
		c5.79,2.83,10.17,0.77,13.17-6.17c11.88-3.22,27.92-3.4,38.77-7.01c12.8-4.26,20.61-14.42,35.92-18.1
		c12.21-2.94,25.12-4.85,37.53-6.67c25.29-3.72,50.44-8.88,75.22-12.98c27.44-4.53,47.33-7.57,73.18-17.03
		c10.51-3.85,23.98-4.36,35.02-6.82c7.51-1.68,15.92-3.19,21.87-5.31c5.26-1.87,6.88-7.34,13.16-8.77
		c8.23-1.87,26.76,1.49,36.87,0.54c13.46-1.26,25.32-1.27,38.66-3.95c22.89-4.61,64.93-11.51,76.84,17.25
		c8.3,20.03-12.8,43.89-31.13,50.2c-27.51,9.47-59.84-5.63-87.69-5.29c-23.4,0.28-47.73,6.67-71.16,9.98
		c-28.83,4.08-56.33,11.38-83.27,17.6c-21.15,4.88-42.81,8.44-64.97,12c-24.21,3.9-45.66,14.01-68.75,21.59
		c-31.67,10.4-63.81,14.32-95.23,22.42c-23.23,5.99-48.25,20.48-72.58,27.72c-20.74,6.17-39.13,11.8-59.79,20.38
		c-11.31,4.69-55.61,30.91-64.65,21.75"/>
</g>
<g id="eye">
	<path id="eye-5" class="st1" d="M340.51,482.03c9.5-6.83,13.23-7.45,20.17-10.66c15.46-7.14,31.46-14.93,48.79-14.93
		c8.61,0,17.44,4.95,26.77,6.82c8.8,1.77,18.79,0.49,27.36,3.73c8.68,3.29,15.27,10.86,22.85,15.47
		c8.19,4.99,17.99,7.63,23.82,13.94c5.97,6.46,7.23,16.3,10.74,24.84c3.29,7.99,9.46,15.58,11.16,24.67
		c1.62,8.65-1.3,18.15-0.62,27.17c0.69,9.01,5.01,17.86,5.24,26.63c0.48,18.65-7.02,35.51-13.78,51.48
		c-7.04,16.6-14.19,33.65-26.8,46.12c-12.8,12.65-25.59,21.04-41.75,28.13c-16.62,7.29-38.08,8.67-55.67,8.67
		c-17.78,0-37.62-6.75-52.33-15.33c-14.44-8.42-25.45-14.37-35.84-28.67c-9.84-13.52-14.1-30.92-19.38-47.62
		c-5.11-16.17-11.78-32.76-11.78-50.05c0-17.62,8.61-37.02,13.57-49.26S331.01,488.86,340.51,482.03z"/>
	<path id="eye-4" class="st1" d="M366.14,488.45c12.83-6.14,27.2-10.93,42.09-10.93c14.88,0,30.09,3.79,42.91,9.93
		c12.92,6.19,24.96,15.47,34.56,26.53c9.25,10.66,15.76,23.87,20.78,37.8c4.73,13.14,8.72,28.19,8.72,43.18
		c0,14.99-6.48,28.64-11.21,41.79c-5.02,13.94-9.03,28.53-18.28,39.2c-9.59,11.06-23.54,16.92-36.46,23.11
		c-12.83,6.14-23.21,10.06-38.09,10.06c-14.88,0-31.09-3.91-43.92-10.06c-12.92-6.19-26.87-12.04-36.46-23.11
		c-9.25-10.66-13.93-23.23-18.95-37.17c-4.73-13.14-10.55-28.82-10.55-43.82c0-14.99,2.82-27.7,7.55-40.85
		c5.02-13.94,12.7-29.47,21.95-40.14C340.35,502.91,353.22,494.64,366.14,488.45z"/>
	<path id="eye-3" class="st1" d="M330.14,557.11c3.91-11,8.32-22,15.55-30.43c7.52-8.76,18.98-12.77,29.12-17.68
		c10.09-4.89,20.29-8.89,32-8.89s22.05,4,32.13,8.89c10.14,4.91,23.02,11.35,30.53,20.11c7.23,8.42,8.19,17.92,12.11,28.92
		c3.69,10.36,9.59,20.97,9.59,32.78c0,11.81-2.68,25.28-6.37,35.64c-3.91,11-7.11,22.91-14.33,31.33c-7.52,8.76-19.86,14.09-30,19
		c-10.09,4.89-23.95,9.33-35.67,9.33s-25.58-4.11-35.67-9c-10.14-4.91-15.93-13.42-23.45-22.18c-7.23-8.42-9.61-20.35-13.53-31.35
		c-3.69-10.36-9.59-20.97-9.59-32.78C322.57,579,326.46,567.47,330.14,557.11z"/>
	<path id="eye-2_1_" class="st1" d="M349.14,567.11c2.71-8.09,8.35-15.18,13.38-21.42c5.31-6.59,14.22-8.92,21.43-12.65
		c7.28-3.76,14.43-6.63,22.92-6.63c8.49,0,18.32,2.61,25.6,6.37c7.21,3.73,14.69,6.74,20,13.33c5.03,6.24,6.63,14.57,9.33,22.67
		c2.53,7.56,5.53,15.61,5.53,24.2c0,8.59-2.33,16.91-4.86,24.47c-2.71,8.09-3.97,17.09-9,23.33c-5.31,6.59-15.46,8.61-22.67,12.33
		c-7.28,3.76-15.44,6.43-23.93,6.43c-8.49,0-16.79-3-24.07-6.77c-7.21-3.73-14.97-5.92-20.29-12.51c-5.03-6.24-5.59-15.47-8.3-23.56
		c-2.53-7.56-7.81-15.14-7.81-23.73C346.41,584.39,346.61,574.67,349.14,567.11z"/>
	
		<ellipse id="eye-1" transform="matrix(0.6646 -0.7472 0.7472 0.6646 -312.0304 505.3052)" class="st1" cx="406.87" cy="600.24" rx="23.86" ry="25"/>
</g>
<g id="stripes">
	<path id="stripe-47" class="st2" d="M2869.26,2298.95c4.28-6.73,9.82-14.61,16.77-18.47c2.09-1.16,24.31-8.56,24.59-7.01"/>
	<path id="stripe-46" class="st2" d="M2935.31,2285.62c16.79,12.86,19.64,32.55,16.96,52.32"/>
	<path id="stripe-45" class="st2" d="M3007.26,2265.95c-8.86-17.73-37.61-21.86-61.93-28.27"/>
	<path id="stripe-44" class="st2" d="M2885.73,2233.42c-30.05,1.01-43.89-41.15-51.44-63.06"/>
	<path id="stripe-43" class="st2" d="M2770.76,2296.95c5.09-10.83,22-9.14,31.77-8.65c19.11,0.98,38.09,3.6,57.21,4.56"/>
	<path id="stripe-42" class="st2" d="M2895.76,2341.95c-20.12,32.28-43,61.08-43,100.5"/>
	<path id="stripe-41" class="st2" d="M2874.76,2452.95c-8.39-10.37,2.25-39.3,6.92-48.26c10.29-19.74,23.88-37.84,35.58-56.74"/>
	<path id="stripe-40" class="st2" d="M2979.81,2329.6c2.99,0.86,16.31,34.44,17.46,36.68c2.6,5.08,8.47,12.77,10.04,18.18
		c1.55,5.33,0,9.77,0.83,15.22c1.95,12.69,13.25,21.86,14.62,34.77"/>
	<path id="stripe-39" class="st2" d="M3129.08,2323.02c-12.41,6.96-23.78,2.98-35.62-2.68c-10.08-4.82-6.83-6.18-12.74-13.85
		c-15.01-19.45-52.76-21.32-64.4-43.11"/>
	<path id="stripe-38" class="st2" d="M3131.2,2123.52c-11.79-4.74-24.87,7.36-34.96,11.85c-14.67,6.53-29.78,4.53-45.06,9.16
		c-11.97,3.62-25.68,9.79-34.97,18.34c-11.42,10.51-7.56,17.41-12.08,30.76"/>
	<path id="stripe-37" class="st2" d="M2964.76,2149.95c-1.95-2.66,9.22-23.5,10.98-27.33c6.7-14.58,18.03-21.56,30.71-30.9
		c11.51-8.48,24.25-14.31,36.01-22.21c11.45-7.69,20.53-18.83,34.01-23.3"/>
	<path id="stripe-36" class="st2" d="M2883.27,2134.71c-25.3-29.15-24.13-70.84-20.27-106.32c2.67-24.53,14.35-39.13,27.75-55.95"/>
	<path id="stripe-35" class="st2" d="M2723.76,2036.45c7.46,0.76,9.72,28.88,13.92,35.1c9.08,13.46,22.14,24.26,31.5,37.76
		c14.72,21.23,25.19,45.95,42.08,65.64"/>
	<path id="stripe-34" class="st2" d="M2767.76,2250.45c-36.34,9.37-68.61-7.11-102.22-18.96c-11.79-4.16-20.84-2.11-28.7-12.25
		c-6.2-8.01-16.37-23.49-20.09-32.79"/>
	<path id="stripe-33" class="st2" d="M2594.93,2313.08c21.9-13.56,59.94-6,84.52-6.67c27.19-0.75,57.22,2.85,83.88,0.23"/>
	<path id="stripe-32" class="st2" d="M2793.89,2398.1c-4.17,10.37-25.05,13.71-33.73,17.5c-16.66,7.28-32.74,16.1-48.55,25.08
		c-28.92,16.42-55.7,34.05-86.36,47.27"/>
	<path id="stripe-31" class="st2" d="M2782.96,2658.96c-29.82-30.86-13.39-71.04,4.03-104.19c9.28-17.66,17.61-37.04,29.01-53.44
		c11.77-16.92,28.38-30.25,37.76-48.88"/>
	<path id="stripe-30" class="st2" d="M2942.54,2466.94c-26.08,23.72-21.49,78.31-13.37,108.46c5.94,22.03,12.22,43.91,15.16,66.6
		c2.52,19.49-7.12,45.97-1.04,63.86"/>
	<path id="stripe-29" class="st2" d="M3014.76,2709.45c-27.49-30.07-38.05-87.24-43.61-126.09c-5.18-36.2-10.35-91.82,14.11-123.41"
		/>
	<path id="stripe-28" class="st2" d="M3076.76,2406.45c11.6,3.75,22.88,44.08,29.16,54.74c12.54,21.29,16.49,40.39,24.92,63.17
		c9.05,24.45,26.06,46.28,40.99,67.35c11.58,16.34,36.63,39.94,40.74,59.67"/>
	<path id="stripe-27" class="st2" d="M3354.94,2510.66c-7.59-4.84-16.63-7.3-23.95-12.56c-9.06-6.51-14.4-16.46-22.43-24.07
		c-17.61-16.69-35.19-14.77-55.69-23.21c-20.85-8.59-42.08-37.39-58.08-53.17c-17.61-17.37-46.65-42.96-55.53-66.7"/>
	<path id="stripe-26" class="st2" d="M3469.76,2338.45c-2.94-9.29-13.01-12.61-20.91-16.9c-13.55-7.35-27.47-14-41.29-20.81
		c-26.31-12.98-51.27-27.75-77.04-41.36c-11.03-5.83-21.61-8.23-32.23-15.3c-10.94-7.29-21.86-13.9-34.53-17.68
		c-14.63-4.36-29.66-7.27-44.34-11.44c-11.24-3.2-26.16-9.59-37.78-4.53"/>
	<path id="stripe-25" class="st2" d="M3511.34,2211.64c-10.15-1.74-18.6-3.41-29.09-1.72c-15.59,2.51-20.06,0.85-33.04-8.17
		c-22.25-15.46-50.3-23.77-76.46-29.8c-29.06-6.69-58.61-11.14-87.66-17.95c-14.89-3.49-29.45-8.49-44.37-11.75
		c-13.8-3.02-28,0.13-40.51-7.1"/>
	<path id="stripe-24" class="st2" d="M3183.44,1991.66c7.33-8.23,27.97-11.26,38.14-14.56c14.38-4.66,28.9-8.89,43.65-12.2
		c30.09-6.75,59.8-10.16,90.31-5.31c16.55,2.64,33.1,5.27,49.65,7.93c13.29,2.13,28.1,7.26,41.16,7.9
		c8.27,0.4,16.73-1.93,25.33-1.24c8.38,0.68,16.65,2.29,25.04,2.94c15.01,1.16,27.37,3.08,41.43,8.79"/>
	<path id="stripe-23" class="st2" d="M3515.18,1751.85c-12.11,6.12-31.81-3.99-45.21-3.36c-18.64,0.88-37.69,5.32-56.06,8.42
		c-32.68,5.51-70.66,13.2-100.23,28.6c-13.66,7.11-24.92,14.73-39.6,19.87c-17.4,6.09-34.65,12.73-51.89,19.26
		c-30.34,11.48-57.96,24.46-82.76,45.82"/>
	<path id="stripe-22" class="st2" d="M3085.06,1798.7c-3-20.94-2.64-43.07,6.17-62.68c7.88-17.54,24.83-26.26,37.61-39.87
		c11.64-12.39,22.49-27.32,37.95-34.7c16.75-8,25.48-18.24,38.51-31.14c12.67-12.54,29.81-15.79,45.35-23.57
		c18.1-9.06,34.63-17.9,54.65-22.33c20.61-4.57,41.94-5.6,62.74-9.25c21.67-3.81,42.77-5.29,64.77-4.39"/>
	<path id="stripe-21_2_" class="st2" d="M3372.77,1478.47c0.13-0.87-26.33,5.02-29.34,5.96c-10.86,3.38-21.4,7.67-31.9,12.03
		c-19.12,7.95-38.05,15.16-57.94,20.96c-20.4,5.95-31.98,15.1-46.09,30.47c-15.05,16.39-13.7,6.82-32.74,18.57
		c-15.75,9.72-52.66,20.66-56,42c-1.12,7.14-12.29,12.99-18,18c-6.39,5.61-11.95,17.69-18,24c-7.41,7.72-28.06,14.45-32,24
		c-4.06,9.83-52.55,69.16-42,68"/>
	<path id="stripe-20" class="st2" d="M2912.42,1690.7c-17-19.77-4.69-35.62,4.14-56.98c8.35-20.22,15.68-40.18,30.39-56.84
		c15.16-17.17,36.37-24.24,52.92-38.96c7.33-6.51,12.24-15.94,19.15-23.14c8.3-8.66,17.65-16.23,26.52-24.28
		c15.19-13.79,24.24-33.03,40.58-44.77c16.47-11.83,27.12-28.93,45.29-38.66c40.73-21.81,91.42-40.75,137.89-43.39"/>
	<path id="stripe-19" class="st2" d="M3170.68,1292.27c-20.63-0.02-47.19-4.53-66.34,4.33c-8.95,4.14-12.73,7.9-22.22,10.22
		c-10.62,2.59-19.64,5.1-29.85,9.65c-21.59,9.62-33.45,21.93-49.48,39.62c-7.87,8.68-15.24,18.56-23.89,26.46
		c-7.94,7.25-17.6,10.79-26.34,17.05c-16.41,11.76-23.7,26.69-33.74,43.34c-12.29,20.37-31.92,39.46-49.26,55.82
		c-16.89,15.93-30.23,32.44-37.76,54.7c-3.95,11.66-6.16,23.85-8.15,35.97c-1.4,8.53-0.77,27.95-7.51,34.12"/>
	<path id="stripe-18" class="st2" d="M2745.43,1565.11c18.39-31.63,25.54-66.39,49.91-94.62c6.05-7.01,13.53-12.62,19.11-20.05
		c4.71-6.28,6.87-15.04,11.81-20.83c5.3-6.21,13.38-9.86,18.99-16.87c6.58-8.22,12.88-14.78,20.15-22.32
		c12.47-12.95,17.69-29.94,30.46-43.38c7.98-8.4,16.02-16.97,22.69-26.48c6.31-9,9.38-20.69,16.24-29.05
		c15.74-19.22,46.12-23.23,65.48-37.77c19.68-14.79,31.36-32.94,56.42-40.6"/>
	<path id="stripe-17" class="st2" d="M3004.18,1146.26c-4.42,3.15-27.14-6.63-34.98-4.45c-26.19,7.27-52.31,28.75-71.74,45.26
		c-5.91,5.02-18.39,8.49-21.74,14.61c-3.5,6.4,1.97,17.37-2.89,25.41c-5.37,8.88-16.49,8.96-22.66,15.99
		c-6.05,6.89-7.7,19.02-13.86,27.05c-17.92,23.35-38.82,42.26-53.95,67.95c-14.9,25.3-29.69,48.33-47.45,71.55
		c-12.71,16.61-22.08,32.65-37.76,47.39c-15.4,14.47-32.63,27.06-47.57,42"/>
	<path id="stripe-16" class="st2" d="M2592.57,1454.03c1.22-17.63,38.15-24.46,48.86-26.91c31.39-7.18,27.1-19.19,37.87-44.91
		c5.42-12.93,15.21-23.76,18.52-37.53c3.47-14.42,0.15-29.95,1.74-44.61c3.83-35.15,17.35-68.83,21.36-104.47
		c3.86-34.37,2.46-69.31,6.67-103.56c2.96-24.09,10-27.77,33.54-25.41c26.19,2.63,46.68-4.17,72.42-7.56
		c32.8-4.32,66.55-20.27,99.66-13.88"/>
	<path id="stripe-15" class="st2" d="M2868.26,925.45c-18.45,13.31-54.2,13.38-76.38,15.42c-27.7,2.55-55.09,2.06-82.69-1.56
		c-19.22-2.52-56.48-13.21-75.64-6.78c-21.21,7.12-26.95,26.52-53.29,30.91"/>
	<path id="stripe-14" class="st2" d="M2488.76,867.45c57.15-19.14,115.49-44.81,176.29-48.14c50.69-2.77,107.99-0.49,157.71,11.14"
		/>
	<path id="stripe-13" class="st2" d="M2574.09,439.78c-48.63,24.53-116.8,39.11-140.26,93.76c-11.96,27.87-17.55,57.58-30.27,85.73
		c-11.95,26.44-34.41,51.15-54.08,73.07c-21.78,24.28-49.17,43.04-71.52,66.41c-24.53,25.65-37.83,60.62-56.8,90.19
		c-14.8,23.07-33.95,47.92-55.27,64.47c-3.57,2.77-9.11,1.39-13.61,4.89c-3.92,3.05-9.94,11.96-13.05,16.6
		c-11.61,17.32-18.98,37.25-29.71,55.12c-36.26,60.44-91.91,116.2-146.39,160.62c-10.77,8.78-66.15,45.88-21.67,47.45
		c9.22,0.33,16.96-11.64,25.49-11.6c7.32,0.03,5.45,2.64,11.94,3.31c4.19,0.43,4.48,6.55,11.46,7.02
		c8.06,0.54,20.23-9.89,25.58-14.27c24-19.63,40.24-44.33,60.06-67.2c22.63-26.13,49.15-46.44,70.14-74.83
		c45.55-61.6,79.17-127.59,129.64-185.33c27.24-31.18,68.41-40.39,101.55-63.51c31.95-22.29,61.06-46.84,94.77-67.49
		c34.27-20.99,69.65-43.92,110.27-48.54c46.93-5.34,93.18-10.56,139.95-17.8"/>
	<path id="stripe-12" class="st2" d="M2317.61,223.7c-13.58,25.57-30.37,40.68-49.5,61.26c-10.08,10.84-10.7,24.23-18.51,36.29
		c-7.32,11.31-19.22,21.31-28.24,31.16c-17.53,19.14-34.3,29.4-45.16,53.76c-13.45,30.14-24.34,59.76-48.96,82.34"/>
	<path id="stripe-11" class="st2" d="M2074.26,581.95c-0.22,3.61,10.98,25.1,10.89,28.72c2.85-1,5.67-2.12,8.57-2.97
		c10.82-3.17,19.53,4.04,15.22,14.91c-4.27,10.79-0.19,19.25,1.25,28.81c0.75,4.97,1.14,8.36,7.1,9.94c2.74,0.73,6.6,6.3,6.02,8.74
		c-1.57,6.63-8.81,13.9-7.24,18.83c2.26,7.09,4.12,10.99,0,18.95c-12.54,24.26-22.89,49.67-33.79,74.76
		c-1.51,3.47-2.7,8.07-1.68,11.43c1.52,5,11.51,6.94,6.52,14.5c-6.28,9.51-12.72,19.19-20.69,27.21
		c-7.11,7.16-14.92,20.7-15.17,32.58c-0.04,1.91,0.08,4.61-1.05,5.61c-14.41,12.68-19.24,32.49-34.87,44.82
		c-7.91,6.24-12.46,17.71-16.55,27.63c-11.46,27.77-21.52,56.12-32.95,83.91c-3.36,8.16-7.67,15.39-16.63,21.09
		c-9.52,6.06-19.5,13.54-25.71,24.94c-8.39,15.41-18.71,29.91-29.48,43.81c-5.35,6.89-14.18,10.98-20.27,17.44
		c-4.29,4.54-7.45,10.62-9.65,16.56c-3.94,10.66-9.88,19.04-19.27,25.82c-6.19,4.47-11.85,10.87-15.34,17.65
		c-9.8,19.01-28.73,29.84-42.73,37.84"/>
	<path id="stripe-10" class="st2" d="M1701.76,1225.45c16.03-15.1,43.02-51.88,55.26-72.12c6.61-10.93,21.54-18.52,34.32-23.52
		c11.06-4.33,14.92-9.86,13.81-20.36c-1-9.44-3.44-19.22,10.32-21.39c5.15-15.03,20.17-25.7,19.08-43.61
		c-0.18-2.99,0.98-7.08,3.05-9.02c10.65-10,12.17-24.3,18.14-36.47c9.03-18.41,12.91-39.68,29.81-53.78
		c1.21-1.01,2.11-3.38,1.89-4.94c-1.49-10.55-1.29-19.27,13.55-16.75c0.96,0.16,2.45-3.56,3.88-5.33
		c3.91-4.83,7.36-10.24,12.03-14.2c6.04-5.13,7.51-9.25,2.23-16.11c-2.05-2.67-2.21-10.63-0.37-11.84
		c11.42-7.53,6.26-19.39,7.32-28.82c0.52-4.57-8.19-10.1-12.53-15.35c-2.28-2.76-6.36-6.42-5.8-8.73
		c2.73-11.12-3.44-12.46-11.84-12.83c-11.08-0.49-19.19,4.16-29.07,9.49c-15.95,8.61-21.54,22.7-29.65,35.69
		c-3.86,6.18-4.06,14.64-5.95,22.06c-0.89,3.49-0.76,8.65-3,10.09c-5.34,3.45-7.18,7.09-5.72,13.13c0.4,1.68-0.25,4.59-1.49,5.54
		c-16.63,12.82-14.71,35.85-28.06,50.62c-3.23,3.58-4.16,9.75-4.94,14.91c-1.46,9.59-0.08,20.4-13.79,22.56
		c-1.25,0.2-2.15,3.2-3.03,4.99c-7.31,14.92-15.26,29.58-21.68,44.88c-7.9,18.82-14.68,37.85-29.57,53.01
		c-5.19,5.28-6.8,14.11-9.95,21.36c-3.84,8.83-1.11,22.96-17.52,21.56c-5.05,13.64-26.48,18.75-19.84,39
		c0.95,2.91-15.1,30.67-18.88,32.28"/>
	<path id="stripe-9" class="st2" d="M1558.76,1198.45c0.91-2.29,5.11-15.56,6.35-17.65c8.98-15.11,23.71-26.78,27.12-45.25
		c0.12-0.63,0.43-1.29,0.83-1.8c7.66-9.83,29.17-7.81,24.27-28.39c7.63-11.02,15.94-21.64,22.73-33.16
		c9.25-15.71,17.3-32.13,25.94-48.21c3.37-6.28,7.08-12.37,10.4-18.68c3.09-5.87,9.12-12.49,8.17-17.76
		c-2.97-16.54,10.56-24.21,17.47-34.35c8.68-12.74,15.18-24.51,15.35-40.33c0.06-5.25,6.46-10.67,10.53-15.53
		c1.51-1.8,6.79-2.27,6.76-3.27c-0.37-15.32,12.13-24.77,16.71-37.72c1.08-3.05,0.88-6.63,2.26-9.49
		c8.64-17.86,17.55-35.6,26.39-53.36c5.7-11.46,11.95-22.69,16.97-34.45c2.99-7,6.85-11.64,14.65-10.66c10.24,1.3,15.4-3.36,15.4-13
		c0.01-9.49,4.21-14.88,12.88-17.74c2.28-0.75,6.1-2.76,6-3.92c-1.35-15.77,20.71-20.82,18.36-32.84
		c-2.82-14.4,10.75-26.3,2.64-40.26c-1.13-1.94,1.79-7.99,4.45-10.06c10.18-7.93,21.15-14.82,31.57-22.45
		c10.73-7.85,14.06-19.57,7.51-31.48c-3.36-6.12-3.81-9.96-0.22-16.09c3.21-5.48,5.77-12.81,5.02-18.88
		c-2.08-16.64,3.33-29.39,11.75-40.65"/>
	<path id="stripe-8" class="st2" d="M1930.34,415.22c9.79-32.66,21.56-64.61,36.72-95.18c15.68-31.61,34.75-61.36,50.64-92.87
		c21.15-41.93,38.6-85.37,61.06-126.72"/>
	<path id="stripe-7" class="st2" d="M1718.76,417.78c9.11-31.25,35.83-48.1,53.16-72.74c14.75-20.97,8.02-51,21.7-73.26
		c4.69-7.64,12.73-10.6,17.99-16.96c4.11-4.97,5.78-13.57,9.12-19.3c9.75-16.72,25.43-29.37,34.26-46.75
		c8.4-16.53,5.13-33.33,9.39-50.76c6.77-27.7,13.78-49.66,4.88-78.37"/>
	<path id="stripe-6" class="st2" d="M1529.26,45.45c8.33,30.13,18.25,58.77,12.24,90.01c-4.56,23.68,0.13,12.98,7.02,31.16
		c4.78,12.6,0.69,28.28-0.67,41.19c-4.27,40.58,3.58,77.38,9.8,117.76c6.09,39.52,6.94,69.82,32.44,101.55"/>
	<path id="stripe-5" class="st2" d="M1382.24,476.17c-2.23-13.94,3.7-30.91-1.06-44.15c-6.17-17.15-11.13-12.84-12.31-32.17
		c-2.1-34.44-0.68-63.76-1.94-97.17c-3.14-83.19-42.46-140.03-85.67-208.24"/>
	<path id="stripe-4" class="st2" d="M1404.13,523.19c4.27,5.7,8.86,11.26,13.52,16.84c2.06,2.47,5.31,6.21,7.55,5.92
		c21.03-2.73,33.66,13.71,50.23,21.02c9.44,4.16,19.43,7.84,29.54,9.53c10.29,1.72,12.94,7.07,13.34,16.25
		c0.85,19.53,6.76,24.25,26.41,24.69c5.13,0.12,12.07,2.61,14.96,6.45c24.56,32.62,54.06,61.71,71.97,99.1
		c1.6,3.35,1.01,7.73,1.51,11.62c1.41,10.93,4.43,21.95,3.81,32.77c-0.54,9.37-4.25,18.94-8.21,27.66
		c-7.05,15.53-21.37,30.38-21.67,45.72c-0.4,20.57-8.78,36-16.15,53.21c-4.33,10.11-3.43,22.42-14.12,29.72
		c-1.77,1.21-2.43,4.61-2.88,7.13c-4.18,23.56-7.77,47.24-12.56,70.67c-1.34,6.57-4.53,15.06-9.6,18.07
		c-10.06,5.97-11.34,13.79-10.55,23.55c0.89,11.04,0.05,21.39-10.52,28.25c-1.58,1.03-3.67,3.13-3.58,4.6
		c1.51,23.22-23.62,42.56-9.86,67.68c1.24,2.26,0.4,8.36-1.03,8.97c-11,4.62-14,39.53-18.5,47.84"/>
	<path id="stripe-3" class="st2" d="M1356.76,1201.45c-2.46-1.37,6.12-29.18,7-32c6.01-19.33,8.9-34.67,21.35-51.45
		c0.4-0.53,0.61-1.21,1.03-1.71c5.56-6.64,16.96-27.55,18.87-34.84c2.71-10.33,4.96-20.88,14.78-27.36
		c0.52-0.34,0.79-1.06,1.22-1.56c10.63-12.26,5.67-34.13,25.18-40.92c6.97-15.81,17.45-31.11,19.88-47.59
		c2.25-15.27,0.09-30.52,12.95-42.32c1.23-1.13,0.78-5.39-0.28-7.51c-5.27-10.59-4.31-20.49,1.81-30.37
		c0.73-1.17-0.46-3.53-0.77-5.34c-1.82,0.33-3.82,0.29-5.44,1.05c-15.51,7.23-30.98,14.56-46.42,21.97
		c-2.34,1.12-5.33,2.27-6.47,4.28c-18.14,31.96-42.45,60.22-56.12,94.93c-2.94,7.46-11.05,12.73-14.91,20
		c-6.39,12.03-13.89,24.44-15.99,37.48c-1.79,11.11-25.8,17.85-31.19,23.77"/>
	<path id="stripe-2" class="st2" d="M1227.14,975.6c3.87-3.2,10.74-12.56,11.08-13.01c20.52-26.76,19.84-61.22,32.97-90.65
		c5.37-12.05,10.93-24.02,16.77-35.85c1.69-3.43,4.09-7.1,7.17-9.15c16.92-11.27,28.31-27.11,38.54-44.17
		c1.96-3.26,5.09-6.41,8.45-8.1c6.35-3.22,8.62-7.38,7.11-14.41c-0.66-3.07-0.37-7.04,1.08-9.74c8.05-14.96,10.01-28.72,0.88-45.03
		c-4.03-7.19-2.08-20.42,1.76-28.78c7.62-16.55,6.93-32.14,1.03-48.21c-6.44-17.52-19.21-29.75-33.96-40.76
		c-9.56-7.14-18.88-14.81-27.51-23.1"/>
	<path id="stripe-1_1_" class="st2" d="M1215.43,473.78c-4.94-26.09-21.87-39.13-32.77-61.76c-14.32-29.73-15.2-62.78-27.26-92.53
		c-8.4-20.73-9.22-42.74-21.29-62.87c-14.65-24.44-58.02-34.52-60.01-64.76"/>
</g>
<g id="leg-3-stripes">
	<path id="leg-3-stripe-5" class="st3" d="M2253.08,1121.34c20.84-2.44,48.73,9.04,70.34,12.66c28.42,4.76,58.34,0.35,87.34,4.63
		c25.16,3.71,51.81,14.63,77.25,14.73c22.22,0.08,39.28-18.26,57.12-29.4c22.17-13.85,28.35-26.57,31.27-51.51
		c2.23-19,4.1-38.21,4.91-57.34c1.63-38.73-0.5-76.32-27.74-106.46c-15.08-16.69-33.73-27.83-54.21-36.54
		c-25.44-10.82-48.48-26.36-73.45-38.49c-23.99-11.66-46.55-17.4-73.42-15.53c-7.32,0.51-25.91,0.09-32.15,5.3
		c-14.25,11.88,2.18,13.16,9.02,15.47c16.31,5.5,33.45,21.71,40.75,37.29c4.31,9.2,3.25,17.82,4.93,27.33
		c2.35,13.34,7.19,18.96-1.5,31.3c-12.23,17.36-27.2,34.74-49.46,27.22c-20.66-6.98-48.87-2.65-61.79-24.32
		c-3.72-6.24-0.81-23.75-6.74-25.07c-10.02-2.23-19.15,28.71-21.9,34.82c-13.06,29.06-15.2,52.69-15.07,84.19
		c0.06,15.08,0.38,30.6-2.2,45.49c-1.76,10.19-8.75,23.8-4.29,33.99C2219.02,1126.94,2239.52,1122.66,2253.08,1121.34z"/>
	<path id="leg-3-stripe-4" class="st3" d="M2511.52,1251.43c19.89-10.95,35.23-26.28,53.07-40.07
		c16.7-12.91,32.65-21.92,41.33-42.09c17.16-39.92,23.71-85.46,19.37-128.56c-0.91-8.98-0.76-20.04-3.47-28.75
		c-3.31-10.62-12.48-17.05-16.32-26.83c-1.99-5.06-7.3-13.7,0.26-17.95c9.84-5.53,15.16,8.91,19.65,14.74
		c25.23,32.68,61.97,56.39,63.5,101.62c0.7,20.64-4.03,40.22-8.77,60.11c-5.22,21.91-5.61,44.04-9.84,66.07
		c-3.38,17.57-5.01,34.06-16.86,48.28c-10.68,12.82-25.82,25.1-39.07,35.1c-16.67,12.57-35.43,15.85-53.31,25.68
		c-15.61,8.58-32.7,25.84-50.83,28.22c-14.45,1.89-29.28-8.05-31.71-23.03c-3.18-19.56,16.4-30.02,20.72-46.82
		c-15.81-2.85-33.34,5.89-48.89,9.03c-14.47,2.92-28.59,2.69-43.29,2.91c-28.3,0.42-57.16,3.13-85.39,2.13
		c-29.66-1.05-68.93-2.49-94.78-18.39c-13.94-8.57-21.06-17.73-23.43-33.82c-1.35-9.13-5.98-40.88,0.57-48.32
		c11.22-12.75,72.03,8.34,86.78,10.95c27.19,4.81,55.81,7.66,82.43,13.39c29.75,6.4,62-11.94,92.64-18.6
		C2503.73,1188.16,2512.34,1218.74,2511.52,1251.43"/>
	<path id="leg-3-stripe-3" class="st3" d="M2215.43,1323.78c30.6-6.91,64.14-6.51,95.33-8.05c42.56-2.1,88.11-2.41,129.82,6.78
		c14.41,3.17,11.51,8.54,0.38,14.91c-11.64,6.66-24.3,12.09-36.38,17.95c-23.19,11.26-47.16,21.56-72.87,25.27
		c-12.73,1.84-25.5,0.92-38.1,3.13c-13.54,2.37-21.78,4.15-33.93-3.93c-9.73-6.47-16.63-16.21-24.98-24.19
		c-4.16-3.97-24.85-14.53-23.39-20.21"/>
	<path id="leg-3-stripe-2" class="st3" d="M2408.76,1392.45c-44.28,24.08-79.39,50.27-132.2,51.35
		c-18.85,0.39-48.81-7.84-64.71-18.94c-9.55-6.66-8.03-13.98-13.98-21.91c-4.17-5.57-12.86-6.55-17.1-11.84"/>
	<path id="leg-3-stripe-1" class="st3" d="M2178.09,1486.45c19.54,31.21,65.46,32.08,98.62,35.28
		c35.74,3.44,71.92-14.34,104.05-29.28"/>
</g>
<g id="leg-2">
	<path id="leg-2_1_" class="st2" d="M1796.69,1471.16c20.99,18.9,47.3,19.47,71.2,15.61c22.73-3.67,44.06-16.74,65.62-26.5
		c7.75-3.51,7.54-9.2-0.47-12.51c-9.69-4.01-20.13-6.28-30.31-9.05c-12.87-3.5-15.02-7.78-9.28-19.74
		c1.98-4.12,4.34-8.05,7.82-14.44c-13.75,3.93-24.08,8.26-34.8,9.66c-21.1,2.77-27.43-5.68-20.65-26.09
		c1.44-4.33,4.58-8.06,6.69-12.19c1.5-2.93,2.98-5.99,3.67-9.16c0.31-1.43-1.03-3.55-2.2-4.83c-0.57-0.63-2.78-0.55-3.69,0.05
		c-3.3,2.18-6.38,4.68-9.51,7.11c-5.24,4.07-9.94,9.37-15.83,11.93c-5.63,2.44-12.48,2.03-18.8,2.87c0.66-5.01,1.48-10.01,1.9-15.04
		c0.15-1.81-0.06-4.44-1.19-5.34c-0.99-0.79-4.21-0.37-5.22,0.68c-15.76,16.43-36.59,19.8-57.61,22.88
		c-4.57,0.67-9.02,2.11-13.56,3.05c-6.39,1.32-8.56,5.46-8.34,11.58c0.85,22.97,18.98,47.06,41.33,52.25
		C1776.34,1456.92,1787.4,1462.78,1796.69,1471.16"/>
</g>
<g id="leg-1-stripes">
	<path id="leg-1-stripe-5" class="st2" d="M1340.26,1291.95c-17.43-10.72-40.59-2.52-58.48-13.19
		c-24.97-14.89-25.31-44.62-25.95-70.51c-0.66-26.61,0.85-18.75,26.8-24.26c23.64-5.01,34.85-15.45,59.42-15.35
		c-1.35-19.96-8.8-72.47-25.53-82.79c-27.12-16.74-63.46,27.43-85.73,38.09c-32.2,15.41-77.85,13.32-104.77,39.78
		c-30.99,30.46,40.63,31.59,61.56,44.28c-23.29,10.26-144.43-21.05-101.9,42.61c8.96,13.41,26.41,18.62,38.8,28.26
		c13.69,10.66,23.99,22.63,38.99,31.75c18.67,11.35,39.62,22.7,60.26,29.27c19.54,6.22,39.52,8.07,57.04,20.06"/>
	<path id="leg-1-stripe-4" class="st2" d="M1217.26,1398.95c-4.61-13.52-45.46-28.64-58.15-34.66
		c-22.76-10.81-39.99-19.16-57.98-36.99c-28.82-28.55-67.4-55.29-83.37-93.85"/>
	<path id="leg-1-stripe-3" class="st2" d="M1141.76,1424.45c-19.37-5.93-35.97-17.12-53.6-26.8
		c-20.82-11.44-47.61-17.72-66.12-32.06c-35.1-27.19-64.35-71.76-38.78-114.64"/>
	<path id="leg-1-stripe-2" class="st2" d="M928.26,1268.45c10.37,16.81-1.48,28.3,0.56,46.91c2.24,20.42,11.22,34.9,23.8,49.6
		c13.21,15.43,28.9,30.76,44.79,43.41c16.99,13.53,44.63,19.43,58.36,35.59"/>
	<path id="leg-1-stripe-1" class="st2" d="M918.99,1443.24c-10.43-9.17-22.19-16.97-31.71-26.95c-6.12-6.42-9.84-15.43-13.56-23.76
		c-6.36-14.24-6.6-31.07-20.32-42.33c-3.16-2.59-4.02-12.57-1.62-16.54c9.55-15.81,21.43-35.8,32.99-50.21"/>
</g>
<g id="face">
	<path id="face-13" class="st2" d="M784.65,315.94c9.6-13.25,11.02-37.03,27.88-26.97c5.81,3.47,12.84,24.82,17.25,30.69
		c6.89,9.17,15.18,17.3,23.48,25.17c5.53,5.24,45.35,44.69,49.97,41.58c16.5-11.12-1.88-45.8-11.27-55.39
		c-14.44-14.75-32.7-26.23-46.69-41.79c-10.51-11.7-13.52-11.12-15.66-27.67c-0.73-5.59-1.86-32.89,6.39-34.01
		c8.38-1.13,19.25,45.82,27.06,54.98c3.75,4.39,26.05,28.94,32.98,28.97c14.9,0.06,10.27-9.8,9.21-24.53
		c-1.52-20.99-65.51-122-50.81-131.25c20.54-12.92,67.77,117.98,69.64,136.8c2.6,26.17-3.62,54.44-1.06,79.51
		c2.8,27.44,9.77,51.58,10.46,82.06c0.73,32.33,1.28,64.15-2.5,96.28c-3.57,30.38-12.1,71.51,0.2,100.13
		c22.17-14.99,32.99-42.92,45.47-65.79c14.13-25.9,36.79-54.61,39.45-84.64c2.59-29.27-3.59-59.7-1.42-89.8
		c2.29-31.68-0.38-48.67-23.83-69.85c-20.34-18.36-75.47-102.82-13.01-60.94c20.84,13.97,41.4,29.05,58.53,47.5
		c19.08,20.55,23.62,42.85,37.16,65.56c10,16.77,17.08,17.7,15.42,40.16c-2.27,30.73-15.41,52.91-28.04,79.95
		c-11.53,24.68-18.14,42.25-34.7,64.3c-18.65,24.85-36.13,50.58-55.31,75.03c-10.25,13.07-72.21,110.56-86.71,91.14
		c-8.41-11.26,17.55-55.41,21.18-67.95c7.72-26.65,0.73-54.41,3.07-82.14c2.77-32.8,8.6-59.13,4.38-91.15
		c-3.91-29.63,6.43-63.1-17-87c-11.33-11.56-29.9-14.46-42.49-24.21c-11.5-8.9-16.87-22.66-27.13-32.48
		C814.35,346.83,767.58,339.5,784.65,315.94z"/>
	<path id="face-12" class="st4" d="M944.92,781.79c-0.05,9.81-22.58,32.47-28.2,42.54c-9.07,16.24-18.17,32.9-29.55,47.67
		c-22,28.55-52.43,48.5-84.83,63.47c-64.6,29.85-135.48,37.87-184.61-22.56c-11-13.53-11.45-24.98,7.72-18.33
		c18.65,6.47,32.9,17.39,53.16,20.85c39.57,6.75,82.83-1.84,120.43-14.53c35.84-12.09,64.44-33.09,86.28-64.04
		c11.54-16.35,19.22-35.34,31.24-51.25C925.32,774.01,945.05,756.9,944.92,781.79z"/>
	<path id="face-11" class="st2" d="M1246.76,990.45l24.88,27.32c1.52,6.37-1.11,9.47-9.16,10.24c-10.34,0.98-19.63,2.09-24.79,12.69
		c-0.71,1.46-3.22,2.2-5.02,2.96c-19.48,8.23-39.19,15.96-58.41,24.74c-13.81,6.31-27.35,13.41-40.37,21.23
		c-23.61,14.2-50.12,19.75-75.98,27.56c-15.52,4.69-27.66,1.79-37.02-10.91c-5.31-7.19-9.58-7.08-18.06-4.06
		c-37.83,13.48-77.97,15.59-117.38,21.17c-13.11,1.86-26.45,2.45-39.7,2.87c-5.19,0.16-10.57-1.32-15.59-2.92
		c-1.82-0.58-3.43-3.55-3.95-5.72c-0.24-1,2.16-3.51,3.73-3.91c5.13-1.32,10.39-2.25,15.66-2.88c39.57-4.69,79.16-9.28,118.74-13.9
		c1.32-0.15,2.71-0.16,3.94-0.59c11.18-3.9,22.33-7.89,33.49-11.85c-3.47-11.82-5.53-24.3-10.7-35.33
		c-10.08-21.49-8.19-26.04,15.16-27.95c2.65-0.22,5.3-0.47,7.94-0.7c0.04-0.4,0.07-0.8,0.11-1.2c7.2,0.84,15,0.19,21.48,2.81
		c19.48,7.86,39.45,5.21,59.16,3.6c8.03-0.66,15.75-6.09,23.44-9.72c3.66-1.73,7.19-3.8,10.75-5.78
		c6.49-5.14,13.09-10.15,19.86-14.88c3.31-2.32,7.26-3.82,11.46-4.92c0.06-1.44-0.03-3.04-0.31-4.87
		c-0.33-2.13,7.42-7.61,11.73-7.96c17.73-1.45,35.57-1.53,53.37-2.1c0.66-0.02,1.56-0.22,1.95,0.11
		C1227.89,976.26,1245.98,989.83,1246.76,990.45"/>
	<path id="face-10" class="st4" d="M842.43,1074.01c29.66-14.9,56.84-14.01,83.68-20.23c2.51-0.58,5.67,1.66,8.53,2.6
		c-1.44,3.31-2.51,8.93-4.37,9.55C904.76,1074.45,877.43,1088.45,842.43,1074.01"/>
	<path id="face-9" class="st4" d="M750.55,1039.56c-37.27-11.81-77.64-21.07-113.41-36.84c-11.79-5.2-33.74-13.9-12.12-18.93
		c13.87-3.22,36.22,7.19,49.42,11.47c31.99,10.36,63.22,23.65,96.03,31.34c39.39,9.23,78.04,3.99,117.85,5.19
		C848.78,1053.66,793.38,1053.13,750.55,1039.56z"/>
	<path id="face-8" class="st4" d="M897.01,1188.61c-30-5.19-60.02-8.03-90.33-10.89c-13.45-1.27-28.51-5.03-41.89-4.54
		c-12.06,0.45-23.49,5.07-35.91,4.84c-28.6-0.53-55.87-13.42-82.24-23.17c-10.59-3.91-76.55-22.71-62.11-37.32
		c10.89-11.01,55.99,14.68,67.52,18.29c29.22,9.15,59.85,11.36,89.85,16.88c29.83,5.49,59.5,13.12,89.75,15.89
		c28.64,2.62,58.25,1.09,86.68,5.24c26.84,3.93,39.85,2.82,64.71-11.04c10.69-5.96,49.43-41.57,56.64-28.62
		c4.88,8.77-7.93,15.16-11.83,21.49c-2.57,4.16-5.62,4.39-7.43,9.01c-1,2.55,5.14,9.9,3.69,13.1
		c-7.23,15.94-57.65,24.22-73.16,28.59c-25.99,7.31-48.59,12.62-75.72,9.34c-33.34-4.03-64.72-2.48-98.1-3.06
		c-59.16-1.03-121.05,5.78-178.26-11.37c-4.21-1.26-33.34-6.39-32.84-14.99c0.6-10.13,28.47-7.28,32.34-7.14
		c34.89,1.21,69.9,5.38,104.74,7.73C723.16,1188.22,896.45,1200.56,897.01,1188.61"/>
	<path id="face-7" class="st4" d="M552.78,1080.81c-26.38-14.17,40.83-19.9,46.33-21.02c-5.84-10.36-32.56-24.15-33.02-33.66
		c-0.55-11.58,58.76,6.18,64.84,8.26c22.89,7.8,44.46,18.27,67.8,25.07c22.14,6.44,49.01,9.15,67.78,22.78
		c-32.77,16.56-77.93-4.61-112.12-9.64c9.54,6.35,25.73,12.91,33.81,21.19c10.34,10.59,8.89,14.42,25.01,20.71
		c33.85,13.22,68.77,23.8,104.95,28.34c34.8,4.37,72.6,5.67,107.38,0.71c6.51-0.93,32.33-11.46,38.73-5.75
		c11.22,10.01-2.85,13.65-9.28,16.12c-27.68,10.65-70.63,8.51-99.98,8.05c-32.36-0.51-67.87-7.26-99.11-15.66
		c-35.38-9.52-69.89-23.83-104.94-34.74c-17.6-5.48-34.45-12.28-51.86-18.2C585.55,1088.76,565.19,1087.47,552.78,1080.81z"/>
	<path id="face-6" class="st1" d="M496.52,1068.42c-7.82,23.06-46.15-9.73-56.76-15.09c-10.43-5.27-52.25-16.03-53.72-30.29
		c-1.64-15.89,43.1,9.3,51.67,13.15C445.35,1039.62,500.13,1057.76,496.52,1068.42z"/>
	<path id="face-5" class="st1" d="M365.5,1048.32c21.19,7.56,40.12,17.12,59.78,28.1c6.81,3.8,55.11,26.22,34.5,34.05
		c-9.47,3.6-42.11-21.76-50.85-26.68c-16.1-9.08-40.02-16.86-51.12-31.71C360.37,1050.82,362.93,1049.57,365.5,1048.32z"/>
	<path id="face-4" class="st1" d="M329.75,977.72c-6.91-1.92-14.08-7.81-19.99-11.46c16.14-8.65,20.51-12.28,39.22-8.16
		c14.65,3.22,29.44,6.02,43.64,10.96c15.51,5.39,26.32,13.65,39.94,22.02c12.34,7.59,26.22,9.88,39.96,14.13
		c9.64,2.99,32.59,11.09,14.89,20.85c-10.48,5.78-33.58-7.42-44.22-11.55C406.1,1000.13,368.05,988.39,329.75,977.72z"/>
	<path id="face-3" class="st1" d="M313.38,988.53c2.64,2.61,5.22,12.5,2,15.75c-5.79,5.83-7.51-0.21-13-2.48
		c-11.8-4.85-37.5-16.9-43.46-28.29c-7.01-13.4,4.02-18.59,15.66-15.26C287.89,962.07,303.99,979.27,313.38,988.53z"/>
	<path id="face-2" class="st1" d="M467.9,1179.77c-43.71-8.21-66.87-48.94-100.88-73.15c-5.43-3.86-10.64-8.85-18.01-8.3
		c-3.51,0.26,0.85,6.45-3.32,7.36c-13.87,3.01-29.38-2.57-42.78-5.3c-16.06-3.27-34.18,3.16-48.07-5.53
		c-16.82-10.53-24.43-31.92-30-49.47c-5.24-16.54-11.9-30.63-19.9-45.8c-7.37-13.98-9.53-29.28,4.27-40.06
		c12.85-10.03,26.3-0.54,31.17,13.97c2.59,7.73-1.33,16.06,2.3,24.71c2.85,6.8,8.27,12.55,12.81,18.2
		c12.22,15.21,24.78,34.26,40.5,45.77c5.1,3.74,12.32,5.45,16.97,9.58c4.7,4.18,4.76,10.08,9.85,14.21c3.7,3,14.56,6.21,19.28,5.28
		c6.1-1.21,5.43-6.59,11.54-9.43c13.62-6.33,26.12,12.04,34.33,20.37c14.71,14.93,30.17,28.67,47.68,40.26
		c15.85,10.5,34.68,16.13,45.24,32.21C476.94,1177.38,472.62,1179.09,467.9,1179.77z"/>
	<path id="face-1" class="st2" d="M837.73,143.64c10.65,6.98-1.49,23.69-3.56,31.09c-2.8,10.01-3.8,27.34-7.5,36.02
		c-2.84,6.66-10.68,12.52-13.01,18.65c-3.62,9.52-0.73,18.44-3.18,28.54c-5.69,23.4-31.46,50.51-45.6,69.67
		c-16.8,22.77-36.27,39.48-59.67,55.37c-27.86,18.93-58.83,31.92-86.18,51.93c-23.28,17.04-40.29,32.2-69.7,31.96
		c-60.65-0.51-120.41-33.74-180.76-16.82c-37.47,10.5-65.99,39.76-84.95,73.06c-9.98,17.52-11.48,37.55-19.88,54.79
		c-4.3,8.83-11.71,10.63-15.63,21.48c-3.92,10.84,0.89,22.96-3.54,34.06c-8.25,20.66-29.18,28.02-36.46,50.29
		c-8.53,26.1-19.4,54.32-25.58,81.28c-6.81,29.72-12.4,36.47-37.21,55.17c-22.87,17.24-47.42,32.02-77.1,32.04"/>
</g>
<g id="highlight">
	<path id="highlight-dot-1" class="st2" d="M2596.91,790.97c-1.69,13.26-26.99,20.48-29.13,5.09c-2.85-20.54,20.75-16.34,29.22-6.48
		C2597,790.04,2596.97,790.51,2596.91,790.97"/>
	<path id="highlight-dot-4" class="st2" d="M2543.4,727.22c0.55,15.7-27.3,26.85-32.85,9.36
		C2504.75,718.31,2542.7,707.38,2543.4,727.22"/>
	<path id="highlight-dot-3" class="st2" d="M2423.52,687.67c-17.75,0.78-18.97-13.94-12.56-23.59c3.9-5.87,10.63-9.87,18.18-7.39
		C2449.32,663.33,2437.23,683.49,2423.52,687.67"/>
	<path id="highlight-2" class="st2" d="M2116.08,588.37c-19.78-6.51-48.99,0.48-60.31-15.13c-5.63-7.76,7.84-9.41-3.33-22.31
		c-9.64-11.13-21.01-6.53-31.69-6.9c-20.04-0.7-25.76-4.65-43.95-12.34l0.57,0.56c-9.19-10.04-8.64-6.32-7.8-17.12
		c0.38-4.85,13.07-25.34,16.51-28.88c11.37-11.72,12.43-7.09,30.27-0.71c6.09,2.18,12.18,4.36,18.27,6.53
		c4.83,3.83,8.49,2.82,10.99-3.02c3.82-7.88,8.67-7.97,14.56-0.27c2.86,1.64,5.72,3.28,8.57,4.93c14.79,2.33,7.5-5.69,18.99-7.25
		c14.27-1.94,35.34,1.85,49.95,6.61c9.46,3.08,17.29,12.87,26.69,15.88c9.93,3.18,24.33-2.77,32.47,1.16
		c12.63,6.1,6.49,21.74,12.68,30.43c4.91,3.28,9.82,6.57,14.73,9.85c7.57,10.02,13.79,9.27,18.67-2.27
		c10.94-3.31,7.16-14.77,22.53-10.63c2.62,3.89,3.14,7.81,1.53,11.77c-2.66,5.78,0.84,8.03,10.5,6.74
		c18.58,12.92,41.96,14.08,61.34,27.03c25.36,16.95,52.86,25.57,26.38,61.78c-12.77,17.47-40.3,31.75-61.85,23.23
		c-26.34-10.42-24.18-33.6-56.44-34.65c-36.75-1.2-48.78,12.11-76.11-13.62C2155.03,604.88,2136.81,595.19,2116.08,588.37"/>
	<path id="higlight-dot-2" class="st2" d="M1882.57,579.8c-9.08,13.6-23.24,3.98-19.81-11.35c3-13.41,31.7-9.53,20.8,9.75
		C1883.24,578.76,1882.91,579.3,1882.57,579.8"/>
	<path id="highlight-1" class="st2" d="M1382.24,474.3c18.46,2.76,36.48-25.63,54.14-30.87c13.44-3.99,24.86-4.76,38.25-10.44
		c6.38-2.71,12.06-9.28,19.29-8.72c19.06,1.48,26.7,24.43,50.45,22.17c23.11-2.2,55-19.97,74.04-32.86
		c8.25-5.59,13.48-17.24,25.41-13.87c11.55,3.26,7.2,14.03,11.02,19.89c5.92,9.08-2.27,9.3,13.56,11.66
		c20.82,3.1,14.11-10.58,25.84-16.29c25.93-12.61,17.62,16.78,37.8,11.23c20.11-5.53,4.85-13.48,25.63-9.59
		c3.24,0.61,5.66,7.17,10.22,8.33c21.77,5.57,2.55-6.85,18.98-12.75c17.38-6.24,49.72,22.55,70.18,22.9
		c11.99,0.21,24.78-1.53,35.93-5.67c11.71-4.35,23.53-18.97,37.35-14.21c17.51,6.03,4.3,12.62,10.56,28.68
		c2.93,7.51,13.45,6.66,14.62,16.45c1.45,12.1-14.91,23.57-22.35,31.37c-38.94,40.74-84.54,52.93-137.84,42.76
		c-40.24-7.68-70.82,36.29-110.74,35.13c-11.96-0.35-18.45-4.8-26.23-14.06c-3.94-4.69-8.56-23.44-12.01-25.62
		c-14.42-9.15-37.47,10.64-52.47,14.11c-19.35,4.48-116.63-0.68-83.36-37.2c-5.75-11.2-32.95,4.48-39.72,6.99
		c-20.76,7.72-37.91,11.34-60.41,9.93c-35.49-2.21-13.93,0.96-32.38,20.9c-14.43,15.59-34.83,10.51-37.07-10.78
		c-20.44,11.1-36.21,26.65-57.84,36c-17.51,7.57-34.39,10.37-49.2,20.65c-12.62,8.75-6.19,13.86-23.67,19.97
		c-9.11,3.19-19.57,2.29-28.99,3.45c-19.11,2.35-37.24,6.46-55.73,11.93c-19.62,5.8-39.62,12.24-57.84,21.68
		c-14.38,7.45-21.23,21.48-33.65,28.8c-14.96,8.82-22.64,5.93-19.65-16.48c2.34-17.55,18.41-34.36,30.37-46.33
		c14.27-14.28,30.68-26.32,45.86-39.57c15.07-13.15,26.39-31.98,46.61-35.33c7.3-1.21,14.68,6.12,22.37,2.32
		c10.37-5.14,4.58-10.03,9.47-17.09c7.36-10.62,25.05-36.6,36.29-43.34c26.99-16.18,41.35,30.7,75.33,10.47
		c14.49-8.63,18.85-25.69,37.39-30.41C1340.99,454.73,1360.58,471.07,1382.24,474.3"/>
	<path id="highlight-dot-1_1_" class="st2" d="M975.32,709.81c2.4-6.32,3.95-12.74,7.19-18.16c2.17-3.61,6.44-6.32,10.31-8.45
		c4-2.21,9.53,2.03,9.62,6.61c0.14,7.1-2.61,13.02-8.22,17.06C988.99,710.65,983.22,714.21,975.32,709.81"/>
</g>
<g id="outter-shape">
	<path class="st2" d="M2938.76,2243.45c0-16.28-39.75-9.17-46.45-5.48c-28.57,15.74-32.95,61.18-11.1,83.78
		c55.5,57.41,126.54-13.41,128.35-74.3c1.87-62.63-56.94-116.14-118.47-103.63c-46.06,9.36-86.42,41.87-105.47,84.65
		c-45.88,103.03,19.49,225.71,133.17,232.03c132.96,7.39,258.84-141.64,231.67-272.11c-37.45-179.81-229.76-271.49-390.4-177.64
		c-155.02,90.57-207.87,311.3-138.18,470.97c73.12,167.53,262.9,256.4,438.87,221.32c89.75-17.89,171.28-55.8,237.42-121.33
		c24.85-24.63,41.39-50.53,60.96-78.67c10.03-14.43,25.41-22.51,35.94-36.49c8.32-11.05,16.68-25.25,24.01-37.74
		c12.55-21.41,28.45-42.07,40.68-64.23c6.44-11.66,8.32-25.5,12.55-36.51c5.34-13.9,13.2-28.56,19.96-43.4
		c10.96-24.05,13.86-41.84,18.84-67.28c3.88-19.82,12.35-36.66,17.47-54.51c6.08-21.21,3.1-35.36,4.12-55.86
		c0.18-3.69-5.21-6.95-4.75-12.6c0.21-2.52,7.8-3.27,8.6-6.96c3.61-16.48,3.55-34.61,5.87-50c4.15-27.56-5.57-60.45-3.28-92.6
		c1.51-21.15,1.92-39.86-2.37-60.53c-5.08-24.42-6.02-53.32-12.79-78.09c-0.41-1.52,2.14-10.56,1.67-13.65
		c-0.23-1.54-8.1-6.11-9.1-9.46c-1.79-5.97,4.52-7.35,2.8-13.12c-2.21-7.43-5.97-12.45-7.62-20.74
		c-5.24-26.28-2.39-42.59-16.09-64.83c-7.04-11.43-12.84-20.95-18.4-32.38c4.92,10.14-2.54-14.3-2.62-14.63
		c-4.21-2.1-6.43-5.42-6.64-9.95c1.68-1.97,3.36-3.94,5.05-5.91c-2.87-8.33-9.32-17.27-14.32-25.51
		c-0.65-1.06-11.01-18.38-10.7-18.11c-4.19-3.73-13.13-3.64-15.71-7.16c-2.54-3.47,0.87-9.32-0.75-11.63
		c-6.93-9.87-11.92-26.65-16.99-35.09c1.28,2.13-5.02-13.21-5.33-13.9c1.47,3.3-13.91-13.61-12.15-11.94
		c-2.11-2.01-1.5-7.55-5.55-10.92c-3.68-3.07-11.57-1.13-15.29-4.19c-8.73-7.19-8.37-16.79-14.03-26.77
		c-6.83-12.05-21.7-31.1-32.42-39.18c-10.95-8.26-22.83-12.2-32.85-22.88c-10.98-11.69-17.38-21.63-29.65-31.4
		c-25.11-20-51.58-46.38-79.3-63.05c-26.06-15.67-43.56-37.38-70.8-52.78c-11.66-6.59-19.07-16.1-29.25-22.83
		c-7.56-5.01-27.58-4.84-34.04-13.36c-5.89-7.77-3.35-12.06-7.07-21.45c-3.39-8.55-6.71-12.03-12.22-17.2
		c-7.03-6.6-19.46-8.85-25.75-17.39c-8.95-12.16-5.71-16.63-10.11-27.01c-8.3-19.6-27.79-17.41-41.18-31.98
		c-3.16-3.43-7.03-13.97-8.65-18.12c0.03-0.54,0.06-1.08,0.09-1.62c5.63-5.87,4.78-10.5-2.54-13.88
		c-0.92-2.47-7.48-14.53-9.16-16.15c-8.17-7.85-14.97-8.62-21.23-19.06c-6.19-10.32-7.26-23.99-14.86-35.33
		c-1.66-2.47-0.71-6.77-2.43-9.4c-1.17-1.8-5.98-2.01-7.36-4.22c-7.05-11.28-6.77-20.75-10.84-30.55
		c-6.69-16.1-18.31-35.29-25.41-48.83c-2.62-5.01-8.14-12.75-10.35-18.81c-0.84-2.31,0.79-14.17,2.09-11.71
		c-4.76-8.96-11.4-14.37-16.38-24.04c-6.75-13.13-12.36-22.43-19.13-36.29c-2.4-4.92,2.58-10.37-0.68-16.29
		c-1.66-3.03-10.1-5.53-11.28-8.75c-1.93-5.29,2.34-11.66,0.43-14.86c-1.12-1.88-8.91-10.1-9.04-10.4
		c-3.57-8.28-11.3-15.27-14.89-23.89c-1.15-2.76,2.26-8.76,0.43-12.01c-3.17-5.64-10.69-10.11-13.08-15.46
		c-1.99-4.45,7.98-6.71,4.13-13.03c-2.07-3.4-14.31-8.12-14.72-9.28c-2.61-7.53,0.74-15.56-2.89-21.97
		c-3.07-5.41-12.45-3.71-16.12-8.64c-1.88-2.53-0.82-15.03-3.28-19.67c-2.31-4.35-13.75-3.12-16.4-8.07
		c-2.45-4.56,4.49-12.23,2.6-15.59c-2.99-5.32-11.59-8.27-13.31-12.71c-0.34-0.87-4.29-16.8-3.17-14.78
		c0.19-1.54,0.37-3.09,0.56-4.63c2.09-5.57-0.55-8.9-7.9-10c-1.57-2.6-13.76-2.65-16.38-7.41c-3.27-5.95,4.64-11.67,1.13-17.51
		c-3.51-5.84-11.63-5.35-16.12-10.43c-3.35-3.79-0.95-9.19-5-14.83c-2.32-3.23-9.22-3.38-12.09-7.08
		c-3.54-4.56,1.09-10.81-1.44-14.12c-4.41-5.78-13.35-6.68-16.72-12.14c-5.03-8.16,1.71-19.1-4.5-26.13
		c-3.13-3.55-9.76-1.04-13.1-3.58c-8.69-6.61-8.91-5.02-14.31-11.03c-1.13-1.26,2.29-10.99-0.72-14.57
		c-2.95-3.51-10.47-0.34-12.86-2.71c-1.48-1.47-7.92-7.28-8.72-7.98c-2.69-2.36,2.5-7.88-3.07-12.46
		c-4.41-3.62-15.36-0.76-19.03-4.44c-5.05-5.07-3.89-9.54-7.14-13.42c-2.34-2.8-4.21-9.38-8.1-13.53
		c-4.59-4.9-13.44-3.56-18.69-10.15c-5.85-7.34-1.56-18.65-9.49-25.36c-14.25-12.04-20.77,3.13-30.69-13.46
		c-4.7-7.86,5.29-11.96-6.07-18.58c-6.01-3.5-15.32,3.31-20.99-0.03c-7.36-4.34-2.81-10.39-6.9-14.21
		c-4.97-4.63-2.59-3.7-10.66-9.04c-4.29-2.84-12.52,2.13-16.76-2.28c-4.23-4.4-0.54-8.79-2.79-11.21c-0.07-2.91-0.14-5.82-0.21-8.74
		c-3.37-2.81-7.17-4.41-11.4-4.81c-1.55-1.4-14.69-10.46-15.48-10.93c-3.69-2.21-0.81-6.47-6.89-9.55
		c-4.51-2.28-11.34,4.28-14.75,2.55c-10.48-5.3-3.68-10.17-10.02-15.9c-13.94-12.59,0.29-2.47-20.77-7.13
		c-18.1-4-4.16,1.05-13.57-9.66c-4.61-5.25,1.19-7.72-5.58-13.18c-4.38-3.53-14-0.03-19.05-1.56c1.98,0.6-28.65-11.86-26.24-8.81
		c-6.11-7.75,1.4-19.92-6.17-26.82c-10.78-9.82-31.33,5.05-42.76-0.47c-15.62-7.54,0.83-15.84-10.94-26.36
		c-12.6-11.27-32.69,13.28-43.52,4.82c-3.68-2.87,2.98-16.15-3.68-21.69c-11.64-9.69-37.99,6.54-50.03-6.26
		c-6.44-6.84,2.72-16.88-9.59-21.6c-7.66-2.93-16.43,7.63-23.4,7.93c-15.39,0.67-6.14,2.12-15.83-7.05
		c-3.86-3.65-0.16-13.61-7.43-17.38c-5.29-2.74-11.56,3.17-15.68,3.77c-12.01,1.76-20.89,20.59-36.35,6.82
		c-5.96-5.31,3.44-15.67-4.5-21.46c-4.66-3.4-46.86,11.42-53.66,12.1c-1.8-25.84-1.49-30.47-26.87-23.58
		c-7.45,2.02-13.62,10.47-21.72,7.26c-7.72-3.06-3.7-18.37-14.47-19.23c-10.18-0.81-11.6,12.33-19.5,14.88
		c-17.02,5.51-1.98,2.75-12.02-7.42c-10.97-11.11,4.95-14.11-16.09-12.62c-10.49,0.75-25.91,12.52-35.46,17.19
		c-0.97-15.39,2.18-24.35-12.05-27.68c-14.24-3.33-33.91,21.73-48.3,13.85c-12.11-6.62-3.47-27.96-22.26-24.55
		c-10.2,1.85-21.75,34.57-33,31.24c-9.87-2.93-1.1-24.93-9.95-29.35c-11.09-5.53-22.68,14.32-30.65,17.83
		c-22.96,10.1-3.16,2.66-16.51-12.15c-11.08-12.29-32.53,7.48-46.38,15.21c-26.7-57.97-28.2,14.65-56.21,9.96
		c-15.21-2.55-6.48-23.84-24.97-21.37c-12.77,1.7-23.59,28.93-37.61,27.55c-27.58-2.72-17.36-52.59-47.16-12.25
		c-11.25,15.24-10.34,28.42-28.29,19.42c-3.32-1.66-1.47-16.96-7.49-17.86c-8.41-1.25-17.13,14.5-21.43,20.02
		c-27.85,35.78-8.79-11.93-34.45-5.19c-14.15,3.72-22.19,35.26-37.36,36.79c-16.23,1.64-9.19-14.85-20.14-19.33
		c-14.14-5.78-21.5,18.54-31.91,28.54c-1.77,1.7-23.93,23.88-25.43,23.88c-11.19-0.04-15.72-33.39-28.23-31.74
		c-10.83,1.43-19.27,42.76-23.14,51.44c-4.52-3.87-10.66-18.27-17.13-18.46c-9.73-0.29-16.52,28.63-21.08,34.71
		c-16.46,21.91-22.37,6.36-39.7-9.55c-10.69,18.36-33.47,49.96-34.44,70.75c-10.88-11.96-20.11-30.87-33.27-20.81
		c-9.34,7.13-2.7,33.74-19.19,36.48c-25.98,4.32-2.39-19.07-29.35,1.29c-16.33,12.34-23.34,22.07-40.94,4.85
		c-26.31-25.74-32.42-72.53-66.37-91.02c-34.63-18.85-73.4,11.06-107.12,20.63c-80.88,22.95-163.73,72.08-220.06,135.47
		c-23.94,26.94-33.01,75.17-61.4,96.2c-15.17,11.24-41.2,10.84-58.73,16.75c-19.81,6.68-39.81,15.72-57.86,26.36
		c-33.58,19.79-61.02,54.16-84.33,84.92c-23.82,31.45-52.86,58.31-76.94,88.46c-36.78,46.04-63.85,101.35-105.45,143.94
		c-16.33,16.72-42.03,21.4-60.81,36.48C5.7,809.12,0.97,813.77,14.38,831.9c13.97,18.88,34.66,14.23,51.96,23.51
		c25.23,13.54,37.58,57.88,60.05,78.19c14.1,12.75,31.02,7.13,44.02,16.17c20.11,13.99,2.44,30.24,2.44,50.99
		c0,5.2,6.95,10.65,6.98,14.87c0.02,2.28-6.07,25.54-5.82,26.06c4.84,9.98,14.61,6.44,24.48,12.92
		c1.95,1.28,14.35,22.25,16.27,24.59c3.49,4.27-2.9,11.31,2.4,16.24c4.07,3.79,15.17-1.76,21.49,1c8.16,3.56,8.07,9.09,12.99,14.65
		c0.38,2.44,0.76,4.89,1.15,7.33c0.78,8.31,4.8,10.47,12.07,6.49c-2.21-1.8,11.5,1.08,10.26,0.67c1.05,0.34,3.52,13.64,7.08,15.77
		c4.76,2.85,19.68-3.71,28.89,2.48c14.54,9.77,10.79,37.47,29.83,15.17c7.39,17.95,0.49,20.33,16.86,22.97
		c6.12,0.99,10.33-9.06,18.03-5.75c7.97,3.42,6.77,12.96,10.74,19.38c18.62,30.14,15.49-7.1,44.13,1.34
		c9.25,2.73,9.2,11.41,15.59,15.74c11.14,7.54,3.12,6.78,14.65,5.47c16.63-1.9,9.5-14.63,28.02-6.36
		c5.59,2.49,14.44,24.53,21.26,23.78c7.03-0.77,7.41-14.23,12.93-14.69c7.02-0.59,6.91,1.16,13.81,2.07
		c2.8,5.3,6.98,8.79,12.55,10.48c1.74-1.43,3.48-2.85,5.22-4.28c0.81-4.08,2.93-6.87,6.37-8.37c2.55-2.55,4.78-1.77,6.69,2.34
		c1.7-0.04,5.37,12.79,9.71,13.54c7.66,1.31,11.68-10.52,19.13-11.29c14.27-1.48,17.77,13.08,31.53,10.15
		c4.33-0.92,9.46-9.65,17.17-11.3c6.88-1.47,14.18,2.24,20.58,2.3c19.91,0.16,39.74-8.2,60.25-9.34
		c52.33-2.9,103.56,15.53,156.54,13.88c26.5-0.83,55.09-3.9,79.55-14.92c12.55-5.65,54.31-41.53,65.21-32.45
		c-14.98,22.32-21.61,29.89,7.52,37.46c-27.64,20.12-52.74,31.75-85.6,41.87c-31.19,9.61-65.9,30.35-97.45,13.12
		c-41.2-22.5-66.52-59.76-120-48.56c-22.22,4.65-42.31,10.5-65.22,13.49c-11.75-15.94-49,13.1-51.78,26.38
		c-6.3,30.07,16.92,52.81,37.31,69.44c14.31,11.67,28.43,24.23,44.07,34.12c1.51,0.96,27.17,12.33,28.06,15.43
		c6.79,23.81-55.34,21.88-64.18,44.57c-8.53,21.9,41.85,36,57.83,41.32c34.2,11.39,70.06,7.85,104.67,0.52
		c38.6-8.17,74.17-27.22,113.64-30.9c34-3.17,67.42,3.51,101.3,2.81c64.75-1.34,146.53-23.59,201.34-57.38
		c50.13-30.91,111.12-67.61,103.86-134.04c-3.54-32.44-15.94-57,22.43-45.26c4.97,1.52,13.79,6.48,16.31,7.23
		c2.23-7.29,5.95-8.19,11.16-2.68c3.98,3.55,8.2,6.77,12.67,9.67c11.8-0.72,2.86-10.33,10.41-11.65
		c7.53-1.31,14.74,8.97,22.54,10.05c10.2,1.42-0.27-11.29,9.39-12.09c13.31-1.11,18.77,18.66,23.01-3.11l-0.16,1.16
		c0,0-0.07-0.74-0.07-0.81c15.27,8.79,22.04,16.36,24.15-4.84c4.24,1.42,15.83,8.97,20.45,8.64c7.22-0.52,3.31-8.33,8.69-9.77
		c14.4-3.85,30.21-0.65,44.77-1.01c-3.75,0.09,19.45-3.57,17.42-3.84c6.42,0.84,8.33,7.11,14.74,7.98c2.39,0.32,9.76-5.52,7.99-5.95
		c5.8,1.41,9.26,7.46,15.32,8.19c7.76,0.94,6.06-4.87,13.7-2.92c3.16,0.81,6.4,7.51,9.13,8.6c1.26,0.51,26.39,15.27,25.05,15.57
		c6.16-1.41,5.53-13.71,10.52-13.77c11.22-0.12,4.58,3.4,16.98,10.19c2.19,1.2,7.89,11.99,12.81,13.02
		c6.54,1.37,5.65-11.85,15.62-9.23c5.84,1.53,8.37,13.1,15.51,15.96c3.32,1.33,7.39-10.45,8.68-9.96
		c3.59,1.35,11.71,11.98,14.08,11.84c0.52-0.03,18.48-6.59,9.32-7.43c8.53,0.78,18.6,5.83,27.42,3.88
		c2.27-0.5,4.45-12.96,8.38-13.98c12.8-3.31,16.83,8.61,21.48,16.85c6.68,11.82,8.33,52.18,18.82,58.84
		c12.15,7.71,13.84-9.29,26.63-8.73c7.47,0.33,27.25,17.59,33.67,22.97c7.13,5.97-0.37,11.14,8.72,13.2
		c6.34,1.44,37.36-15.62,45.26-18.02c46-13.98,74.84,3.17,119.33,13.2c22.37,5.04,35.39,2.1,52.46-12.72
		c9.01-7.81,39.09-55.19,54.7-50.65c8.74,2.54,21.97,61,19.62,70.98c-4.48,19.11-22.8,38-31.24,56.02
		c-12.28,26.22-15.75,52.5-8.09,80.7c9.44,34.77,35.79,63.03,66.62,80.56c14.47,8.23,31.81,8.84,46.1,17.43
		c20.39,12.25,26.15,31.1,52.11,18c33.21-16.76,34.31-69.2,45.12-100.06c9.77-27.89,15.06-111.77,49.11-117.5
		c30.79-5.18,79.52,11.59,103.13,31.59c13.95,11.82,23.22,28.34,37.34,40.47c21.87,18.79,47.74,33.01,71.73,48.84
		c88.03,58.08,160.76,135.88,250.65,190.38c76.91,46.63,178.51,89.25,229.26,165.94c50.24,75.92,79.99,179.46,74.52,270.59
		c-7.52,125.46-65.09,301.74-200.64,341.25c-76.61,22.33-154.43,10.4-203.04-57.85c-39.71-55.77-39.71-134.64-5.64-192.57
		c40.64-69.1,137.04-102.39,196.54-37.79c42.33,45.96,43.07,123.31-9.71,162.38c-30.04,22.23-80.24,24.89-104.72-7.69
		c-24.3-32.34-5.84-92.38,35.69-100.13c32.39-6.04,62.85,36.92,31.38,59.71c-11.39,8.25-31.64,7-26.15-12.26
		C2916.42,2255.34,2938.76,2262.09,2938.76,2243.45"/>
</g>
</svg>
