<svg xmlns="http://www.w3.org/2000/svg" xmlns:xlink="http://www.w3.org/1999/xlink" viewBox="0 0 4284.16 2717.12"><defs><style>.cls-1,.cls-10,.cls-11,.cls-12,.cls-13,.cls-14,.cls-15,.cls-16,.cls-17,.cls-18,.cls-19,.cls-2,.cls-20,.cls-21,.cls-22,.cls-23,.cls-24,.cls-25,.cls-26,.cls-27,.cls-28,.cls-29,.cls-3,.cls-30,.cls-31,.cls-32,.cls-33,.cls-34,.cls-35,.cls-36,.cls-37,.cls-38,.cls-39,.cls-4,.cls-40,.cls-41,.cls-42,.cls-43,.cls-44,.cls-45,.cls-46,.cls-47,.cls-48,.cls-49,.cls-5,.cls-50,.cls-51,.cls-52,.cls-53,.cls-54,.cls-55,.cls-56,.cls-57,.cls-58,.cls-59,.cls-6,.cls-60,.cls-61,.cls-62,.cls-63,.cls-64,.cls-65,.cls-66,.cls-67,.cls-68,.cls-69,.cls-7,.cls-70,.cls-71,.cls-72,.cls-73,.cls-74,.cls-75,.cls-76,.cls-77,.cls-78,.cls-8,.cls-80,.cls-81,.cls-82,.cls-83,.cls-84,.cls-85,.cls-86,.cls-87,.cls-88,.cls-89,.cls-9,.cls-90,.cls-91,.cls-92,.cls-93,.cls-94,.cls-95,.cls-96{fill:none;stroke-linecap:round;stroke-linejoin:round;}.cls-1,.cls-10,.cls-18,.cls-19,.cls-2,.cls-20,.cls-21,.cls-22,.cls-23,.cls-24,.cls-25,.cls-26,.cls-27,.cls-28,.cls-29,.cls-3,.cls-30,.cls-31,.cls-32,.cls-33,.cls-34,.cls-35,.cls-36,.cls-37,.cls-38,.cls-39,.cls-4,.cls-40,.cls-41,.cls-42,.cls-43,.cls-44,.cls-45,.cls-46,.cls-47,.cls-48,.cls-49,.cls-5,.cls-50,.cls-51,.cls-52,.cls-53,.cls-54,.cls-55,.cls-56,.cls-57,.cls-58,.cls-59,.cls-6,.cls-60,.cls-61,.cls-62,.cls-63,.cls-64,.cls-7,.cls-70,.cls-71,.cls-72,.cls-73,.cls-74,.cls-75,.cls-76,.cls-78,.cls-8,.cls-88,.cls-89,.cls-9,.cls-90,.cls-91,.cls-92,.cls-93,.cls-94,.cls-95,.cls-96{stroke-width:13px;}.cls-1,.cls-10,.cls-2,.cls-3,.cls-4,.cls-5,.cls-6,.cls-7,.cls-8,.cls-9{fill-rule:evenodd;}.cls-1{stroke:url(#Pecan);}.cls-2{stroke:url(#Pecan-2);}.cls-3{stroke:url(#Pecan-3);}.cls-4{stroke:url(#Pecan-4);}.cls-5{stroke:url(#Pecan-5);}.cls-6{stroke:url(#Pecan-6);}.cls-7{stroke:url(#Pecan-7);}.cls-8{stroke:url(#Pecan-8);}.cls-9{stroke:url(#Pecan-9);}.cls-10{stroke:url(#Pecan-10);}.cls-11,.cls-12,.cls-13,.cls-14,.cls-15,.cls-16,.cls-17,.cls-83,.cls-84,.cls-85,.cls-86,.cls-87{stroke-width:10px;}.cls-11{stroke:url(#chameleon-2);}.cls-12{stroke:url(#chameleon-2-2);}.cls-13{stroke:url(#chameleon-2-3);}.cls-14{stroke:url(#chameleon-2-4);}.cls-15{stroke:url(#chameleon-2-5);}.cls-16{stroke:url(#chameleon-2-6);}.cls-17{stroke:url(#chameleon-2-7);}.cls-18{stroke:url(#chameleon-2-8);}.cls-19{stroke:url(#chameleon-2-9);}.cls-20{stroke:url(#chameleon-2-10);}.cls-21{stroke:url(#chameleon-2-11);}.cls-22{stroke:url(#chameleon-2-12);}.cls-23{stroke:url(#chameleon-2-13);}.cls-24{stroke:url(#chameleon-2-14);}.cls-25{stroke:url(#chameleon-2-15);}.cls-26{stroke:url(#chameleon-2-16);}.cls-27{stroke:url(#chameleon-2-17);}.cls-28{stroke:url(#chameleon-2-18);}.cls-29{stroke:url(#chameleon-2-19);}.cls-30{stroke:url(#chameleon-2-20);}.cls-31{stroke:url(#chameleon-2-21);}.cls-32{stroke:url(#chameleon-2-22);}.cls-33{stroke:url(#chameleon-2-23);}.cls-34{stroke:url(#chameleon-2-24);}.cls-35{stroke:url(#chameleon-2-25);}.cls-36{stroke:url(#chameleon-2-26);}.cls-37{stroke:url(#chameleon-2-27);}.cls-38{stroke:url(#chameleon-2-28);}.cls-39{stroke:url(#chameleon-2-29);}.cls-40{stroke:url(#chameleon-2-30);}.cls-41{stroke:url(#chameleon-2-31);}.cls-42{stroke:url(#chameleon-2-32);}.cls-43{stroke:url(#chameleon-2-33);}.cls-44{stroke:url(#chameleon-2-34);}.cls-45{stroke:url(#chameleon-2-35);}.cls-46{stroke:url(#chameleon-2-36);}.cls-47{stroke:url(#chameleon-2-37);}.cls-48{stroke:url(#chameleon-2-38);}.cls-49{stroke:url(#chameleon-2-39);}.cls-50{stroke:url(#chameleon-2-40);}.cls-51{stroke:url(#chameleon-2-41);}.cls-52{stroke:url(#chameleon-2-42);}.cls-53{stroke:url(#chameleon-2-43);}.cls-54{stroke:url(#chameleon-2-44);}.cls-55{stroke:url(#chameleon-2-45);}.cls-56{stroke:url(#chameleon-2-46);}.cls-57{stroke:url(#chameleon-2-47);}.cls-58{stroke:url(#chameleon-2-48);}.cls-59{stroke:url(#chameleon-2-49);}.cls-60{stroke:url(#chameleon-2-50);}.cls-61{stroke:url(#chameleon-2-51);}.cls-62{stroke:url(#chameleon-2-52);}.cls-63{stroke:url(#chameleon-2-53);}.cls-64{stroke:url(#chameleon-2-54);}.cls-65,.cls-66,.cls-67,.cls-68,.cls-69{stroke-width:12px;}.cls-65{stroke:url(#chameleon-2-55);}.cls-66{stroke:url(#chameleon-2-56);}.cls-67{stroke:url(#chameleon-2-57);}.cls-68{stroke:url(#chameleon-2-58);}.cls-69{stroke:url(#chameleon-2-59);}.cls-70{stroke:url(#chameleon-2-60);}.cls-71{stroke:url(#chameleon-2-61);}.cls-72{stroke:url(#chameleon-2-62);}.cls-73{stroke:url(#chameleon-2-63);}.cls-74{stroke:url(#chameleon-2-64);}.cls-75{stroke:url(#chameleon-2-65);}.cls-76{stroke:url(#chameleon-2-66);}.cls-77,.cls-80,.cls-81,.cls-82{stroke-width:8px;}.cls-77{stroke:url(#chameleon-2-67);}.cls-78{stroke:url(#chameleon-2-68);}.cls-79{fill:url(#chameleon-2-69);}.cls-80{stroke:url(#chameleon-2-70);}.cls-81{stroke:url(#chameleon-2-71);}.cls-82{stroke:url(#chameleon-2-72);}.cls-83{stroke:url(#chameleon-2-73);}.cls-84{stroke:url(#chameleon-2-74);}.cls-85{stroke:url(#chameleon-2-75);}.cls-86{stroke:url(#chameleon-2-76);}.cls-87{stroke:url(#chameleon-2-77);}.cls-88{stroke:url(#chameleon-2-78);}.cls-89{stroke:url(#chameleon-2-79);}.cls-90{stroke:url(#chameleon-2-80);}.cls-91{stroke:url(#chameleon-2-81);}.cls-92{stroke:url(#chameleon-2-82);}.cls-93{stroke:url(#chameleon-2-83);}.cls-94{stroke:url(#chameleon-2-84);}.cls-95{stroke:url(#chameleon-2-85);}.cls-96{stroke:url(#chameleon-2-86);}</style><linearGradient id="Pecan" x1="3526.26" y1="2354.86" x2="4284.16" y2="2354.86" gradientUnits="userSpaceOnUse"><stop offset="0.01" stop-color="#aa7541"/><stop offset="0.19" stop-color="#855636"/><stop offset="0.34" stop-color="#af7640"/><stop offset="0.49" stop-color="#aa7541"/><stop offset="0.63" stop-color="#855636"/><stop offset="0.97" stop-color="#af7640"/></linearGradient><linearGradient id="Pecan-2" x1="2370.26" y1="1784.41" x2="3201.01" y2="1784.41" xlink:href="#Pecan"/><linearGradient id="Pecan-3" x1="1934.4" y1="1472.24" x2="2189.26" y2="1472.24" xlink:href="#Pecan"/><linearGradient id="Pecan-4" x1="1290.26" y1="1357.71" x2="1759.32" y2="1357.71" xlink:href="#Pecan"/><linearGradient id="Pecan-5" x1="71.52" y1="1400.64" x2="663.85" y2="1400.64" xlink:href="#Pecan"/><linearGradient id="Pecan-6" x1="798.87" y1="1241.53" x2="798.87" y2="1241.53" xlink:href="#Pecan"/><linearGradient id="Pecan-7" x1="792.37" y1="1235.08" x2="851.31" y2="1235.08" xlink:href="#Pecan"/><linearGradient id="Pecan-8" x1="1986.26" y1="1322.54" x2="2217.81" y2="1322.54" xlink:href="#Pecan"/><linearGradient id="Pecan-9" x1="2423.13" y1="1573.16" x2="3055.82" y2="1573.16" xlink:href="#Pecan"/><linearGradient id="Pecan-10" x1="3532.65" y1="2176.03" x2="4284.16" y2="2176.03" xlink:href="#Pecan"/><linearGradient id="chameleon-2" x1="91.89" y1="811.89" x2="749.96" y2="811.89" gradientUnits="userSpaceOnUse"><stop offset="0" stop-color="#fff166"/><stop offset="0.08" stop-color="#f0e660"/><stop offset="0.18" stop-color="#e5dd5b"/><stop offset="0.28" stop-color="#e1da59"/><stop offset="0.67" stop-color="#24b34b"/><stop offset="0.99" stop-color="#00a2bf"/></linearGradient><linearGradient id="chameleon-2-2" x1="91.42" y1="800.39" x2="809.06" y2="800.39" xlink:href="#chameleon-2"/><linearGradient id="chameleon-2-3" x1="274.47" y1="595.28" x2="541.83" y2="595.28" xlink:href="#chameleon-2"/><linearGradient id="chameleon-2-4" x1="296.26" y1="593.31" x2="520.19" y2="593.31" xlink:href="#chameleon-2"/><linearGradient id="chameleon-2-5" x1="317.57" y1="593.11" x2="496.18" y2="593.11" xlink:href="#chameleon-2"/><linearGradient id="chameleon-2-6" x1="341.41" y1="592.98" x2="472.34" y2="592.98" xlink:href="#chameleon-2"/><linearGradient id="chameleon-2-7" x1="377.37" y1="600.24" x2="436.38" y2="600.24" gradientTransform="translate(584.93 -102.7) rotate(48.35)" xlink:href="#chameleon-2"/><linearGradient id="chameleon-2-8" x1="2862.76" y1="2286.1" x2="2917.11" y2="2286.1" xlink:href="#chameleon-2"/><linearGradient id="chameleon-2-9" x1="2928.81" y1="2311.79" x2="2959.64" y2="2311.79" xlink:href="#chameleon-2"/><linearGradient id="chameleon-2-10" x1="2938.83" y1="2251.81" x2="3013.76" y2="2251.81" xlink:href="#chameleon-2"/><linearGradient id="chameleon-2-11" x1="2827.78" y1="2201.9" x2="2892.23" y2="2201.9" xlink:href="#chameleon-2"/><linearGradient id="chameleon-2-12" x1="2764.26" y1="2292.43" x2="2866.24" y2="2292.43" xlink:href="#chameleon-2"/><linearGradient id="chameleon-2-13" x1="2846.26" y1="2392.2" x2="2902.26" y2="2392.2" xlink:href="#chameleon-2"/><linearGradient id="chameleon-2-14" x1="2865.13" y1="2400.45" x2="2923.76" y2="2400.45" xlink:href="#chameleon-2"/><linearGradient id="chameleon-2-15" x1="2973.31" y1="2382.02" x2="3029.26" y2="2382.02" xlink:href="#chameleon-2"/><linearGradient id="chameleon-2-16" x1="3009.83" y1="2295.05" x2="3135.58" y2="2295.05" xlink:href="#chameleon-2"/><linearGradient id="chameleon-2-17" x1="2997.63" y1="2158.03" x2="3137.7" y2="2158.03" xlink:href="#chameleon-2"/><linearGradient id="chameleon-2-18" x1="2958.03" y1="2098.08" x2="3082.97" y2="2098.08" xlink:href="#chameleon-2"/><linearGradient id="chameleon-2-19" x1="2854.4" y1="2053.58" x2="2897.26" y2="2053.58" xlink:href="#chameleon-2"/><linearGradient id="chameleon-2-20" x1="2717.26" y1="2105.7" x2="2817.76" y2="2105.7" xlink:href="#chameleon-2"/><linearGradient id="chameleon-2-21" x1="2610.26" y1="2219.83" x2="2774.26" y2="2219.83" xlink:href="#chameleon-2"/><linearGradient id="chameleon-2-22" x1="2588.43" y1="2309" x2="2769.83" y2="2309" xlink:href="#chameleon-2"/><linearGradient id="chameleon-2-23" x1="2618.76" y1="2443.02" x2="2800.39" y2="2443.02" xlink:href="#chameleon-2"/><linearGradient id="chameleon-2-24" x1="2759.98" y1="2555.7" x2="2860.26" y2="2555.7" xlink:href="#chameleon-2"/><linearGradient id="chameleon-2-25" x1="2916.31" y1="2586.4" x2="2951.26" y2="2586.4" xlink:href="#chameleon-2"/><linearGradient id="chameleon-2-26" x1="2960.32" y1="2584.7" x2="3021.26" y2="2584.7" xlink:href="#chameleon-2"/><linearGradient id="chameleon-2-27" x1="3070.26" y1="2528.91" x2="3219.07" y2="2528.91" xlink:href="#chameleon-2"/><linearGradient id="chameleon-2-28" x1="3132.76" y1="2420.8" x2="3361.44" y2="2420.8" xlink:href="#chameleon-2"/><linearGradient id="chameleon-2-29" x1="3175.15" y1="2273.5" x2="3476.26" y2="2273.5" xlink:href="#chameleon-2"/><linearGradient id="chameleon-2-30" x1="3193.72" y1="2173.39" x2="3517.84" y2="2173.39" xlink:href="#chameleon-2"/><linearGradient id="chameleon-2-31" x1="3176.94" y1="1974.49" x2="3544.64" y2="1974.49" xlink:href="#chameleon-2"/><linearGradient id="chameleon-2-32" x1="3132.93" y1="1809.45" x2="3521.68" y2="1809.45" xlink:href="#chameleon-2"/><linearGradient id="chameleon-2-33" x1="3076.86" y1="1684.6" x2="3439.31" y2="1684.6" xlink:href="#chameleon-2"/><linearGradient id="chameleon-2-34" x1="3000.76" y1="1610.42" x2="3379.27" y2="1610.42" xlink:href="#chameleon-2"/><linearGradient id="chameleon-2-35" x1="2897.43" y1="1527.2" x2="3275.78" y2="1527.2" xlink:href="#chameleon-2"/><linearGradient id="chameleon-2-36" x1="2809.64" y1="1457.32" x2="3177.18" y2="1457.32" xlink:href="#chameleon-2"/><linearGradient id="chameleon-2-37" x1="2738.93" y1="1389.13" x2="3063.17" y2="1389.13" xlink:href="#chameleon-2"/><linearGradient id="chameleon-2-38" x1="2643.06" y1="1320.26" x2="3010.68" y2="1320.26" xlink:href="#chameleon-2"/><linearGradient id="chameleon-2-39" x1="2586.07" y1="1248.87" x2="2939.71" y2="1248.87" xlink:href="#chameleon-2"/><linearGradient id="chameleon-2-40" x1="2573.76" y1="944.45" x2="2874.76" y2="944.45" xlink:href="#chameleon-2"/><linearGradient id="chameleon-2-41" x1="2482.26" y1="842.84" x2="2829.26" y2="842.84" xlink:href="#chameleon-2"/><linearGradient id="chameleon-2-42" x1="1917.93" y1="818.94" x2="2728.83" y2="818.94" xlink:href="#chameleon-2"/><linearGradient id="chameleon-2-43" x1="2120.74" y1="356.11" x2="2324.11" y2="356.11" xlink:href="#chameleon-2"/><linearGradient id="chameleon-2-44" x1="1780.26" y1="908.7" x2="2129.87" y2="908.7" xlink:href="#chameleon-2"/><linearGradient id="chameleon-2-45" x1="1647.26" y1="1017.84" x2="1932.85" y2="1017.84" xlink:href="#chameleon-2"/><linearGradient id="chameleon-2-46" x1="1552.26" y1="849.74" x2="1933.53" y2="849.74" xlink:href="#chameleon-2"/><linearGradient id="chameleon-2-47" x1="1923.84" y1="257.83" x2="2085.26" y2="257.83" xlink:href="#chameleon-2"/><linearGradient id="chameleon-2-48" x1="1712.26" y1="238.71" x2="1879.95" y2="238.71" xlink:href="#chameleon-2"/><linearGradient id="chameleon-2-49" x1="1522.76" y1="236.28" x2="1596.59" y2="236.28" xlink:href="#chameleon-2"/><linearGradient id="chameleon-2-50" x1="1274.76" y1="285.31" x2="1389.59" y2="285.31" xlink:href="#chameleon-2"/><linearGradient id="chameleon-2-51" x1="1397.63" y1="861.82" x2="1643.57" y2="861.82" xlink:href="#chameleon-2"/><linearGradient id="chameleon-2-52" x1="1296.76" y1="1039.96" x2="1487.29" y2="1039.96" xlink:href="#chameleon-2"/><linearGradient id="chameleon-2-53" x1="1220.64" y1="770.12" x2="1365.04" y2="770.12" xlink:href="#chameleon-2"/><linearGradient id="chameleon-2-54" x1="1067.6" y1="332.82" x2="1221.93" y2="332.82" xlink:href="#chameleon-2"/><linearGradient id="chameleon-2-55" x1="2204.63" y1="985.55" x2="2587.73" y2="985.55" xlink:href="#chameleon-2"/><linearGradient id="chameleon-2-56" x1="2194.59" y1="1156.57" x2="2694.97" y2="1156.57" xlink:href="#chameleon-2"/><linearGradient id="chameleon-2-57" x1="2205.24" y1="1350.15" x2="2456.37" y2="1350.15" xlink:href="#chameleon-2"/><linearGradient id="chameleon-2-58" x1="2174.76" y1="1417.46" x2="2414.76" y2="1417.46" xlink:href="#chameleon-2"/><linearGradient id="chameleon-2-59" x1="2172.09" y1="1504.3" x2="2386.76" y2="1504.3" xlink:href="#chameleon-2"/><linearGradient id="chameleon-2-60" x1="1715.63" y1="1425.07" x2="1945.69" y2="1425.07" xlink:href="#chameleon-2"/><linearGradient id="chameleon-2-61" x1="1070.2" y1="1221.02" x2="1348.55" y2="1221.02" xlink:href="#chameleon-2"/><linearGradient id="chameleon-2-62" x1="1011.26" y1="1316.2" x2="1223.76" y2="1316.2" xlink:href="#chameleon-2"/><linearGradient id="chameleon-2-63" x1="967.07" y1="1337.7" x2="1148.26" y2="1337.7" xlink:href="#chameleon-2"/><linearGradient id="chameleon-2-64" x1="921.76" y1="1356.2" x2="1062.26" y2="1356.2" xlink:href="#chameleon-2"/><linearGradient id="chameleon-2-65" x1="843.9" y1="1363.35" x2="925.49" y2="1363.35" xlink:href="#chameleon-2"/><linearGradient id="chameleon-2-66" x1="774.45" y1="450.25" x2="1095.7" y2="450.25" xlink:href="#chameleon-2"/><linearGradient id="chameleon-2-67" x1="606.1" y1="863.63" x2="948.92" y2="863.63" xlink:href="#chameleon-2"/><linearGradient id="chameleon-2-68" x1="819.69" y1="1050.84" x2="1278.55" y2="1050.84" xlink:href="#chameleon-2"/><linearGradient id="chameleon-2-69" x1="834.43" y1="1065.98" x2="942.64" y2="1065.98" xlink:href="#chameleon-2"/><linearGradient id="chameleon-2-70" x1="611.88" y1="1016.14" x2="892.32" y2="1016.14" xlink:href="#chameleon-2"/><linearGradient id="chameleon-2-71" x1="562" y1="1165.75" x2="1044.76" y2="1165.75" xlink:href="#chameleon-2"/><linearGradient id="chameleon-2-72" x1="542.67" y1="1092.35" x2="972.5" y2="1092.35" xlink:href="#chameleon-2"/><linearGradient id="chameleon-2-73" x1="381" y1="1047.19" x2="501.69" y2="1047.19" xlink:href="#chameleon-2"/><linearGradient id="chameleon-2-74" x1="352.81" y1="1079.57" x2="469.86" y2="1079.57" xlink:href="#chameleon-2"/><linearGradient id="chameleon-2-75" x1="304.76" y1="991.95" x2="498.92" y2="991.95" xlink:href="#chameleon-2"/><linearGradient id="chameleon-2-76" x1="251.72" y1="982.02" x2="321.88" y2="982.02" xlink:href="#chameleon-2"/><linearGradient id="chameleon-2-77" x1="194.12" y1="1067.56" x2="485.86" y2="1067.56" xlink:href="#chameleon-2"/><linearGradient id="chameleon-2-78" x1="61.71" y1="497.94" x2="848.55" y2="497.94" xlink:href="#chameleon-2"/><linearGradient id="chameleon-2-79" x1="2561.04" y1="793.07" x2="2603.5" y2="793.07" xlink:href="#chameleon-2"/><linearGradient id="chameleon-2-80" x1="2503.44" y1="731.05" x2="2549.91" y2="731.05" xlink:href="#chameleon-2"/><linearGradient id="chameleon-2-81" x1="2400.91" y1="671.82" x2="2446.35" y2="671.82" xlink:href="#chameleon-2"/><linearGradient id="chameleon-2-82" x1="1962.65" y1="574.79" x2="2382.51" y2="574.79" xlink:href="#chameleon-2"/><linearGradient id="chameleon-2-83" x1="1855.73" y1="573.42" x2="1892.52" y2="573.42" xlink:href="#chameleon-2"/><linearGradient id="chameleon-2-84" x1="1007.25" y1="540.04" x2="1962.11" y2="540.04" xlink:href="#chameleon-2"/><linearGradient id="chameleon-2-85" x1="968.82" y1="697.22" x2="1008.96" y2="697.22" xlink:href="#chameleon-2"/><linearGradient id="chameleon-2-86" x1="0" y1="1358.56" x2="3549.95" y2="1358.56" xlink:href="#chameleon-2"/></defs><title>chameleon</title><g id="branch"><path id="branch-10" class="cls-1" d="M3532.76,2122.45c34,9.85,154.53,48.28,199.84,104.94s129.31,175.45,231.75,235.73c252.73,148.73,313.31,122.34,313.31,122.34"/><path id="branch-9" class="cls-2" d="M2376.76,1522.45c26.37,12.59,292,197.75,320.43,218.57s285.31,196.58,315.3,212.85c49,26.56,182,92.5,182,92.5"/><path id="branch-8" class="cls-3" d="M1940.9,1450c50.15,17,102.75,33.64,114.75,35.37,22.49,3.23,104.58,8.95,127.11,9"/><path id="branch-7" class="cls-4" d="M1296.76,1348.45c12.94-3,269.23-19.39,295.39-16.23S1747.32,1382,1747.32,1382l5.5,1.64"/><path id="branch-6" class="cls-5" d="M628.35,1308.35c-16.62,7-121.92,43.29-208,50.59-29.24,2.48-155.41,1.73-180.9-1.85s-54.93-29.86-74.59-23.87-28.94,37.81-42.77,59.68-51.51,66.68-42.77,73.6,33.53,11.32,61.66,14.92,241.81,15.79,280.49,9.94c52.26-7.89,157.37-32.87,193-42.76,17.79-4.95,31.37-9.2,42.92-13.57"/><path id="branch-5" class="cls-6" d="M798.87,1241.53"/><path id="branch-4" class="cls-7" d="M844.81,1228.64c-15.84,3.89-31.2,8.25-45.94,12.89"/><path id="branch-3" class="cls-8" d="M2211.31,1335.46c-126.55,13-197.16-17.41-218.55-29"/><path id="branch-2" class="cls-9" d="M3049.32,1773.32c-251.29-125.56-277.63-198.74-371-256.1-141-86.55-248.66-144.22-248.66-144.22"/><path id="branch-1" class="cls-10" d="M4277.66,2394.49s-43,6.55-63.66,4-74.83-11.88-125.32-51.72-150.2-113-182-156.16c-79.33-107.56-178.45-158.2-202.79-174.38-39.41-26.19-100-45.74-164.72-63.21"/></g><g id="mouth"><path id="mouth-inner" class="cls-11" d="M96.89,900.23c42-27,90-54,123-63s141-51,192-63,237-42,258-48,75,0,75,0"/><path id="mouth-outter" class="cls-12" d="M96.42,879.67c19.23-12.54,34.91-27,55.67-37.66,10.28-5.25,19.26-13,30.46-18.16,12.86-5.91,27.21-.81,36.84-5,3.5-1.51,5.38-9.81,9.19-11.78,8.54-4.4,13.92-3.86,22.6-6.49,13.42-4.07,21.08-12.14,34.37-15.59,5.09-1.32,10.11.94,14.92-.18L306,786q8.69,4.25,13.17-6.17c11.87-3.21,27.92-3.4,38.77-7,12.8-4.25,20.61-14.42,35.91-18.1,12.21-2.94,25.12-4.84,37.53-6.67,25.29-3.73,50.44-8.89,75.22-13,27.44-4.53,47.33-7.57,73.17-17,10.52-3.85,24-4.36,35-6.83,7.51-1.67,15.92-3.19,21.87-5.31,5.26-1.87,6.88-7.34,13.16-8.77,8.22-1.87,26.76,1.5,36.87.55,13.46-1.27,25.31-1.27,38.66-4,22.89-4.61,64.93-11.52,76.84,17.24,8.3,20-12.8,43.89-31.13,50.2-27.5,9.48-59.84-5.62-87.69-5.29-23.4.27-47.73,6.66-71.16,10-28.83,4.08-56.34,11.38-83.28,17.59-21.14,4.88-42.81,8.44-65,12-24.21,3.9-45.66,14-68.75,21.59-31.67,10.4-63.81,14.32-95.23,22.42-23.23,6-48.25,20.49-72.58,27.72-20.74,6.17-39.13,11.81-59.79,20.38-11.31,4.7-55.62,30.91-64.65,21.75"/></g><g id="eye"><path class="cls-13" d="M340.51,482c9.5-6.83,13.23-7.45,20.17-10.66,15.47-7.13,31.47-14.92,48.79-14.92,8.62,0,17.45,4.95,26.77,6.82,8.8,1.77,18.8.49,27.37,3.73s15.27,10.87,22.84,15.48c8.19,5,18,7.63,23.83,13.94s7.23,16.3,10.74,24.85c3.28,8,9.46,15.58,11.16,24.66,1.63,8.65-1.3,18.15-.61,27.17s5,17.86,5.24,26.63c.48,18.65-7,35.51-13.78,51.48-7,16.6-14.19,33.65-26.81,46.11a131.3,131.3,0,0,1-41.75,28.13c-16.61,7.28-38.07,8.66-55.66,8.66-17.79,0-37.62-6.75-52.34-15.33C332,710.36,321,704.41,310.63,690.12c-9.83-13.53-14.1-30.92-19.37-47.62-5.12-16.17-11.79-32.76-11.79-50,0-17.62,8.61-37,13.58-49.26S331,488.86,340.51,482Z"/><path id="eye-4" class="cls-14" d="M366.14,488.45c12.83-6.15,27.2-10.93,42.09-10.93a101.39,101.39,0,0,1,42.91,9.93A108.37,108.37,0,0,1,485.7,514c9.25,10.66,15.76,23.86,20.77,37.8,4.73,13.15,8.72,28.19,8.72,43.18s-6.48,28.65-11.21,41.79c-5,13.94-9,28.54-18.28,39.2-9.6,11.06-23.54,16.92-36.47,23.11s-23.2,10.05-38.09,10.05a106.23,106.23,0,0,1-43.92-10.05c-12.92-6.19-26.87-12-36.46-23.11-9.25-10.66-13.94-23.23-18.95-37.17C307.08,625.64,301.26,610,301.26,595s2.82-27.7,7.55-40.85c5-13.93,12.7-29.47,21.95-40.13C340.35,502.91,353.22,494.64,366.14,488.45Z"/><path id="eye-3" class="cls-15" d="M330.14,557.11c3.92-11,8.32-22,15.55-30.42,7.52-8.77,19-12.77,29.12-17.69s20.29-8.89,32-8.89,22.05,4,32.13,8.89,23,11.35,30.53,20.11c7.23,8.43,8.2,17.93,12.11,28.92,3.69,10.36,9.6,21,9.6,32.78a113.38,113.38,0,0,1-6.37,35.64c-3.92,11-7.11,22.91-14.34,31.33-7.51,8.76-19.86,14.09-30,19s-24,9.33-35.66,9.33-25.58-4.11-35.67-9-15.93-13.41-23.45-22.17c-7.22-8.43-9.61-20.35-13.52-31.35-3.69-10.36-9.6-21-9.6-32.78S326.46,567.47,330.14,557.11Z"/><path id="eye-2" class="cls-16" d="M349.14,567.11c2.71-8.09,8.36-15.18,13.38-21.42,5.31-6.59,14.23-8.92,21.44-12.65s14.42-6.63,22.91-6.63a59.6,59.6,0,0,1,25.6,6.37c7.21,3.73,14.69,6.74,20,13.33,5,6.24,6.63,14.58,9.34,22.67,2.53,7.56,5.53,15.61,5.53,24.2s-2.34,16.91-4.87,24.47c-2.7,8.09-4,17.09-9,23.33-5.31,6.59-15.45,8.61-22.66,12.33s-15.45,6.44-23.94,6.44-16.78-3-24.06-6.77-15-5.92-20.29-12.51c-5-6.24-5.59-15.47-8.29-23.56-2.53-7.56-7.82-15.14-7.82-23.73S346.61,574.67,349.14,567.11Z"/><ellipse id="eye-1" class="cls-17" cx="406.87" cy="600.24" rx="23.86" ry="25" transform="translate(-312.03 505.31) rotate(-48.35)"/></g><g id="stripes"><path id="stripe-47" class="cls-18" d="M2869.26,2299c4.28-6.73,9.82-14.61,16.77-18.48,2.08-1.16,24.3-8.56,24.58-7"/><path id="stripe-46" class="cls-19" d="M2935.31,2285.62c16.79,12.86,19.63,32.55,17,52.33"/><path id="stripe-45" class="cls-20" d="M3007.26,2266c-8.86-17.73-37.61-21.87-61.93-28.28"/><path id="stripe-44" class="cls-21" d="M2885.73,2233.42c-30.05,1-43.9-41.15-51.45-63.06"/><path id="stripe-43" class="cls-22" d="M2770.76,2297c5.09-10.83,22-9.15,31.77-8.65,19.11,1,38.1,3.6,57.21,4.56"/><path id="stripe-42" class="cls-23" d="M2895.76,2342c-20.12,32.28-43,61.08-43,100.5"/><path id="stripe-41" class="cls-24" d="M2874.76,2453c-8.39-10.37,2.25-39.3,6.92-48.26,10.29-19.74,23.88-37.84,35.58-56.74"/><path id="stripe-40" class="cls-25" d="M2979.81,2329.6c3,.86,16.31,34.44,17.46,36.68,2.6,5.08,8.46,12.77,10,18.18s0,9.77.83,15.22c2,12.68,13.25,21.86,14.62,34.77"/><path id="stripe-39" class="cls-26" d="M3129.08,2323c-12.41,7-23.78,3-35.61-2.68-10.09-4.82-6.83-6.18-12.75-13.85-15-19.45-52.76-21.32-64.39-43.11"/><path id="stripe-38" class="cls-27" d="M3131.2,2123.52c-11.79-4.75-24.87,7.36-35,11.85-14.66,6.52-29.78,4.53-45.06,9.16-12,3.62-25.68,9.78-35,18.33-11.42,10.52-7.56,17.41-12.08,30.76"/><path id="stripe-37" class="cls-28" d="M2964.76,2150c-2-2.66,9.22-23.5,11-27.33,6.7-14.58,18-21.56,30.71-30.9,11.51-8.48,24.25-14.31,36-22.21,11.45-7.69,20.52-18.82,34-23.29"/><path id="stripe-36" class="cls-29" d="M2883.28,2134.71c-25.31-29.15-24.13-70.84-20.27-106.32,2.67-24.53,14.35-39.12,27.75-55.94"/><path id="stripe-35" class="cls-30" d="M2723.76,2036.45c7.46.76,9.72,28.87,13.92,35.1,9.07,13.46,22.14,24.26,31.5,37.76,14.72,21.23,25.18,46,42.08,65.64"/><path id="stripe-34" class="cls-31" d="M2767.76,2250.45c-36.34,9.37-68.61-7.11-102.22-19-11.79-4.16-20.84-2.11-28.69-12.25-6.21-8-16.37-23.5-20.09-32.79"/><path id="stripe-33" class="cls-32" d="M2594.93,2313.08c21.9-13.55,59.94-6,84.52-6.67,27.19-.75,57.22,2.85,83.88.23"/><path id="stripe-32" class="cls-33" d="M2793.89,2398.1c-4.16,10.37-25,13.71-33.72,17.5-16.67,7.28-32.75,16.1-48.55,25.08-28.92,16.41-55.7,34.05-86.36,47.27"/><path id="stripe-31" class="cls-34" d="M2783,2659c-29.82-30.86-13.39-71,4-104.19,9.28-17.67,17.61-37,29-53.44,11.77-16.93,28.38-30.25,37.76-48.88"/><path id="stripe-30" class="cls-35" d="M2942.54,2466.94c-26.08,23.72-21.5,78.31-13.37,108.46,5.94,22,12.22,43.91,15.16,66.6,2.52,19.48-7.13,46-1,63.86"/><path id="stripe-29" class="cls-36" d="M3014.76,2709.45c-27.49-30.08-38.05-87.24-43.61-126.09-5.19-36.2-10.35-91.82,14.11-123.41"/><path id="stripe-28" class="cls-37" d="M3076.76,2406.45c11.6,3.75,22.88,44.08,29.16,54.74,12.53,21.29,16.48,40.39,24.92,63.17,9.06,24.45,26.07,46.28,41,67.35,11.58,16.34,36.63,39.94,40.74,59.67"/><path id="stripe-27" class="cls-38" d="M3354.94,2510.66c-7.59-4.84-16.63-7.3-24-12.56-9.06-6.51-14.4-16.46-22.43-24.07-17.61-16.69-35.2-14.77-55.69-23.21-20.86-8.59-42.08-37.39-58.08-53.18-17.61-17.37-46.65-43-55.53-66.69"/><path id="stripe-26" class="cls-39" d="M3469.76,2338.45c-2.94-9.3-13-12.62-20.91-16.9-13.55-7.35-27.47-14-41.29-20.82-26.31-13-51.27-27.74-77-41.36-11-5.82-21.61-8.22-32.23-15.29-10.94-7.29-21.85-13.9-34.52-17.68-14.63-4.36-29.66-7.27-44.34-11.44-11.24-3.2-26.15-9.59-37.78-4.53"/><path id="stripe-25" class="cls-40" d="M3511.34,2211.64c-10.15-1.75-18.6-3.42-29.08-1.72-15.6,2.51-20.07.84-33-8.17-22.25-15.47-50.3-23.78-76.46-29.8-29.07-6.69-58.61-11.14-87.66-17.95-14.88-3.49-29.45-8.49-44.37-11.75-13.8-3-28,.13-40.51-7.1"/><path id="stripe-24" class="cls-41" d="M3183.44,1991.66c7.32-8.23,28-11.26,38.14-14.56,14.37-4.66,28.9-8.88,43.65-12.2,30.08-6.75,59.8-10.16,90.31-5.3q24.83,4,49.64,7.93c13.3,2.13,28.1,7.26,41.16,7.89,8.27.41,16.73-1.93,25.33-1.23,8.38.67,16.66,2.29,25,2.93,15,1.17,27.38,3.09,41.43,8.79"/><path id="stripe-23" class="cls-42" d="M3515.18,1751.85c-12.11,6.12-31.81-4-45.21-3.36-18.64.87-37.68,5.32-56.06,8.41-32.68,5.51-70.65,13.21-100.23,28.6-13.66,7.11-24.92,14.73-39.6,19.87-17.4,6.09-34.65,12.73-51.89,19.26-30.35,11.48-58,24.45-82.76,45.82"/><path id="stripe-22" class="cls-43" d="M3085.06,1798.7c-3-20.94-2.65-43.08,6.16-62.68,7.89-17.54,24.83-26.26,37.62-39.87,11.64-12.39,22.49-27.32,37.95-34.7,16.75-8,25.48-18.24,38.51-31.14,12.67-12.54,29.81-15.79,45.35-23.57,18.1-9.06,34.64-17.9,54.65-22.33,20.61-4.57,41.94-5.6,62.74-9.26a298.42,298.42,0,0,1,64.77-4.39"/><path id="stripe-21" class="cls-44" d="M3372.77,1478.47c.12-.87-26.33,5-29.34,6-10.86,3.38-21.4,7.67-31.9,12-19.12,7.94-38,15.16-57.94,21-20.4,5.94-32,15.1-46.09,30.46-15,16.39-13.7,6.82-32.74,18.57-15.75,9.72-52.66,20.65-56,42-1.12,7.14-12.29,13-18,18-6.38,5.61-12,17.69-18,24-7.41,7.72-28.06,14.45-32,24-4.05,9.83-52.55,69.15-42,68"/><path id="stripe-20" class="cls-45" d="M2912.42,1690.7c-17-19.77-4.69-35.62,4.14-57,8.35-20.22,15.67-40.18,30.38-56.84,15.16-17.17,36.37-24.24,52.92-39,7.32-6.51,12.24-15.94,19.14-23.14,8.31-8.66,17.65-16.22,26.52-24.27,15.19-13.79,24.24-33,40.58-44.78s27.13-28.92,45.29-38.65c40.73-21.81,91.42-40.75,137.89-43.39"/><path id="stripe-19" class="cls-46" d="M3170.68,1292.27c-20.63,0-47.18-4.53-66.33,4.33-8.95,4.15-12.73,7.9-22.22,10.22-10.62,2.59-19.64,5.1-29.85,9.65-21.59,9.62-33.45,21.92-49.48,39.61-7.87,8.68-15.24,18.56-23.89,26.46-7.94,7.25-17.59,10.79-26.34,17-16.4,11.76-23.7,26.7-33.74,43.35-12.29,20.37-31.92,39.45-49.26,55.81-16.89,15.93-30.23,32.45-37.76,54.7-3.95,11.66-6.17,23.85-8.15,36-1.4,8.53-.77,27.95-7.52,34.12"/><path id="stripe-18" class="cls-47" d="M2745.43,1565.11c18.39-31.63,25.54-66.38,49.9-94.61,6.05-7,13.53-12.62,19.11-20,4.72-6.28,6.87-15,11.81-20.83,5.3-6.21,13.38-9.86,19-16.87,6.58-8.21,12.88-14.77,20.15-22.32,12.47-13,17.69-29.94,30.46-43.38,8-8.4,16-17,22.68-26.48,6.31-9,9.39-20.69,16.24-29,15.74-19.22,46.12-23.23,65.48-37.78,19.68-14.79,31.36-32.93,56.42-40.59"/><path id="stripe-17" class="cls-48" d="M3004.18,1146.26c-4.41,3.15-27.14-6.63-35-4.45-26.19,7.27-52.31,28.75-71.74,45.26-5.91,5-18.39,8.49-21.74,14.61-3.5,6.41,2,17.37-2.9,25.41-5.37,8.89-16.48,9-22.66,16s-7.7,19-13.86,27.05c-17.92,23.34-38.82,42.26-54,67.95-14.89,25.3-29.68,48.32-47.45,71.55-12.71,16.61-22.08,32.64-37.76,47.39-15.4,14.47-32.64,27-47.58,42"/><path id="stripe-16" class="cls-49" d="M2592.57,1454c1.22-17.63,38.15-24.46,48.86-26.92,31.39-7.18,27.1-19.18,37.87-44.9,5.42-12.93,15.21-23.77,18.52-37.53,3.47-14.42.14-30,1.74-44.61,3.83-35.14,17.35-68.83,21.36-104.47,3.86-34.37,2.45-69.3,6.67-103.56,3-24.09,10-27.77,33.54-25.41,26.19,2.64,46.68-4.17,72.41-7.56,32.8-4.32,66.55-20.27,99.67-13.87"/><path id="stripe-15" class="cls-50" d="M2868.26,925.45c-18.45,13.31-54.2,13.38-76.38,15.42a370.64,370.64,0,0,1-82.69-1.56c-19.22-2.51-56.48-13.21-75.64-6.77-21.21,7.11-27,26.52-53.29,30.91"/><path id="stripe-14" class="cls-51" d="M2488.76,867.45c57.15-19.15,115.49-44.82,176.29-48.14,50.69-2.78,108-.5,157.71,11.14"/><path id="stripe-13" class="cls-52" d="M2574.09,439.78c-48.62,24.53-116.8,39.11-140.26,93.76-12,27.87-17.54,57.58-30.27,85.73-11.95,26.44-34.41,51.15-54.07,73.07-21.78,24.28-49.17,43-71.52,66.41-24.54,25.66-37.84,60.62-56.8,90.19-14.8,23.07-34,47.92-55.27,64.47-3.57,2.77-9.12,1.39-13.61,4.89-3.92,3.05-9.94,12-13.05,16.6-11.61,17.32-19,37.24-29.7,55.12-36.27,60.44-91.91,116.19-146.39,160.62-10.78,8.78-66.16,45.87-21.67,47.44,9.22.33,17-11.64,25.49-11.6,7.31,0,5.45,2.64,11.94,3.31,4.19.42,4.48,6.55,11.46,7,8.06.54,20.23-9.89,25.58-14.27,24-19.63,40.24-44.33,60.06-67.2,22.63-26.13,49.15-46.44,70.14-74.83,45.55-61.6,79.17-127.59,129.63-185.33,27.25-31.18,68.41-40.39,101.56-63.52,31.94-22.28,61-46.83,94.77-67.48,34.27-21,69.65-43.92,110.27-48.54,46.93-5.33,93.18-10.56,139.95-17.8"/><path id="stripe-12" class="cls-53" d="M2317.61,223.7c-13.58,25.57-30.37,40.67-49.51,61.26-10.07,10.84-10.7,24.23-18.5,36.29-7.32,11.31-19.23,21.31-28.24,31.16-17.53,19.14-34.3,29.4-45.17,53.76-13.44,30.15-24.33,59.76-49,82.34"/><path id="stripe-11" class="cls-54" d="M2074.26,582c-.22,3.61,11,25.1,10.89,28.71,2.85-1,5.67-2.11,8.57-3,10.82-3.18,19.53,4,15.22,14.9s-.18,19.25,1.25,28.81c.75,5,1.14,8.37,7.1,10,2.74.72,6.6,6.29,6,8.74-1.57,6.63-8.8,13.9-7.23,18.83,2.25,7.09,4.11,11,0,19-12.54,24.26-22.89,49.67-33.79,74.76-1.51,3.47-2.7,8.07-1.68,11.43,1.52,5,11.51,6.93,6.52,14.49-6.28,9.51-12.73,19.19-20.69,27.21-7.12,7.17-14.93,20.7-15.17,32.58,0,1.92.08,4.61-1.06,5.61-14.4,12.68-19.23,32.49-34.87,44.81-7.91,6.24-12.45,17.71-16.55,27.63-11.45,27.78-21.52,56.13-33,83.91-3.35,8.16-7.67,15.39-16.63,21.09-9.52,6.06-19.5,13.54-25.7,24.94-8.39,15.41-18.71,29.91-29.49,43.8-5.34,6.9-14.17,11-20.27,17.44-4.29,4.54-7.45,10.62-9.65,16.56-3.94,10.66-9.87,19-19.27,25.82a52,52,0,0,0-15.34,17.65c-9.81,19-28.73,29.84-42.73,37.84"/><path id="stripe-10" class="cls-55" d="M1701.76,1225.45c16-15.1,43-51.88,55.26-72.12,6.61-10.94,21.54-18.53,34.32-23.53,11.06-4.32,14.92-9.86,13.81-20.35-1-9.45-3.43-19.22,10.32-21.39,5.15-15,20.17-25.7,19.09-43.61-.19-3,1-7.08,3-9,10.65-10,12.17-24.31,18.14-36.47,9-18.41,12.91-39.68,29.81-53.78a6.37,6.37,0,0,0,1.89-4.94c-1.49-10.55-1.3-19.27,13.55-16.75,1,.16,2.45-3.56,3.88-5.33,3.91-4.83,7.36-10.24,12-14.2,6-5.14,7.51-9.25,2.23-16.12-2.06-2.67-2.21-10.63-.37-11.84,11.42-7.53,6.26-19.39,7.32-28.82.52-4.57-8.19-10.1-12.53-15.35-2.28-2.76-6.36-6.42-5.8-8.74,2.73-11.12-3.44-12.46-11.84-12.83-11.08-.48-19.19,4.16-29.07,9.5-15.95,8.61-21.53,22.69-29.65,35.69-3.86,6.18-4.06,14.64-6,22.06-.89,3.48-.77,8.64-3,10.09-5.34,3.45-7.17,7.09-5.72,13.13.41,1.68-.25,4.59-1.49,5.54-16.63,12.82-14.71,35.86-28.06,50.62-3.23,3.58-4.15,9.75-4.94,14.92-1.46,9.58-.08,20.39-13.79,22.55-1.25.2-2.15,3.2-3,5-7.31,14.92-15.26,29.58-21.68,44.88-7.9,18.83-14.68,37.86-29.57,53-5.19,5.28-6.8,14.11-10,21.36-3.85,8.82-1.11,23-17.52,21.55-5.06,13.64-26.48,18.75-19.84,39,.95,2.91-15.1,30.67-18.88,32.28"/><path id="stripe-9" class="cls-56" d="M1558.76,1198.45c.91-2.29,5.11-15.56,6.35-17.65,9-15.12,23.72-26.78,27.12-45.25a4.3,4.3,0,0,1,.83-1.8c7.66-9.83,29.17-7.81,24.27-28.39,7.63-11,16-21.64,22.73-33.16,9.25-15.71,17.3-32.13,25.94-48.21,3.37-6.28,7.08-12.37,10.4-18.68,3.09-5.87,9.12-12.49,8.17-17.76-3-16.54,10.56-24.21,17.47-34.35,8.68-12.75,15.19-24.52,15.36-40.33,0-5.26,6.45-10.67,10.53-15.53,1.51-1.8,6.79-2.27,6.76-3.27-.37-15.32,12.13-24.76,16.71-37.71,1.08-3.05.88-6.63,2.26-9.49,8.64-17.86,17.55-35.59,26.39-53.36,5.7-11.46,12-22.69,17-34.45,3-7,6.85-11.64,14.65-10.65,10.24,1.29,15.4-3.36,15.4-13,0-9.49,4.22-14.88,12.88-17.74,2.28-.75,6.11-2.76,6-3.91-1.36-15.78,20.71-20.82,18.36-32.84-2.82-14.4,10.75-26.31,2.63-40.26-1.12-1.94,1.79-8,4.46-10.06,10.17-7.93,21.14-14.82,31.56-22.45,10.73-7.85,14.06-19.57,7.52-31.48-3.37-6.12-3.82-10-.23-16.09,3.21-5.48,5.78-12.82,5-18.88-2.08-16.64,3.33-29.39,11.75-40.65"/><path id="stripe-8" class="cls-57" d="M1930.34,415.22c9.79-32.66,21.57-64.62,36.73-95.18,15.67-31.61,34.74-61.37,50.63-92.87,21.16-41.94,38.6-85.37,61.06-126.72"/><path id="stripe-7" class="cls-58" d="M1718.76,417.78c9.11-31.25,35.83-48.09,53.16-72.74,14.75-21,8-51,21.69-73.26,4.7-7.64,12.74-10.59,18-17,4.1-5,5.78-13.57,9.12-19.3,9.75-16.72,25.43-29.37,34.26-46.75,8.4-16.53,5.13-33.33,9.39-50.76,6.77-27.71,13.78-49.66,4.88-78.38"/><path id="stripe-6" class="cls-59" d="M1529.26,45.45c8.33,30.12,18.25,58.77,12.24,90-4.56,23.68.13,13,7,31.17,4.78,12.6.69,28.28-.67,41.19-4.26,40.58,3.58,77.38,9.8,117.76,6.1,39.52,6.94,69.82,32.44,101.54"/><path id="stripe-5" class="cls-60" d="M1382.24,476.17c-2.23-13.94,3.7-30.91-1.06-44.15-6.17-17.15-11.13-12.84-12.31-32.17-2.09-34.44-.68-63.76-1.94-97.17-3.13-83.19-42.46-140-85.67-208.23"/><path id="stripe-4" class="cls-61" d="M1404.13,523.19c4.27,5.7,8.86,11.26,13.52,16.84,2.06,2.47,5.31,6.21,7.55,5.92,21-2.73,33.66,13.71,50.24,21,9.44,4.16,19.43,7.84,29.54,9.53,10.29,1.72,12.94,7.07,13.34,16.25.85,19.53,6.76,24.25,26.41,24.69,5.13.12,12.07,2.61,15,6.45,24.56,32.62,54.06,61.71,72,99.1,1.6,3.35,1,7.73,1.51,11.62,1.41,10.94,4.43,22,3.81,32.77-.53,9.37-4.24,18.94-8.21,27.66-7,15.53-21.37,30.38-21.66,45.72-.4,20.57-8.78,36-16.15,53.22-4.33,10.11-3.43,22.41-14.12,29.71-1.77,1.22-2.43,4.62-2.88,7.13-4.18,23.56-7.77,47.24-12.56,70.67-1.34,6.57-4.53,15.06-9.6,18.07-10.06,6-11.33,13.79-10.55,23.55.89,11,0,21.39-10.52,28.24-1.58,1-3.67,3.13-3.57,4.61,1.51,23.22-23.62,42.56-9.87,67.68,1.24,2.26.4,8.36-1,9-11,4.61-14,39.53-18.5,47.84"/><path id="stripe-3" class="cls-62" d="M1356.76,1201.45c-2.46-1.37,6.12-29.18,7-32,6-19.33,8.9-34.67,21.35-51.45.39-.53.6-1.2,1-1.71,5.55-6.64,17-27.55,18.87-34.84,2.71-10.33,5-20.88,14.78-27.36.52-.35.79-1.06,1.22-1.56,10.63-12.27,5.67-34.13,25.18-40.93,7-15.81,17.46-31.1,19.88-47.59,2.25-15.27.1-30.52,13-42.32,1.24-1.13.78-5.39-.27-7.51-5.27-10.59-4.31-20.48,1.81-30.36.73-1.17-.46-3.53-.77-5.35-1.82.34-3.81.3-5.44,1q-23.26,10.86-46.41,22c-2.34,1.12-5.33,2.26-6.48,4.27-18.14,32-42.45,60.22-56.11,94.93-2.94,7.46-11,12.73-14.92,20-6.39,12-13.89,24.43-16,37.47-1.79,11.11-25.81,17.85-31.19,23.77"/><path id="stripe-2" class="cls-63" d="M1227.14,975.6c3.87-3.19,10.75-12.56,11.09-13,20.51-26.76,19.84-61.22,33-90.65,5.38-12.05,10.93-24,16.78-35.85,1.69-3.43,4.09-7.1,7.17-9.15,16.91-11.27,28.31-27.11,38.54-44.17a22.17,22.17,0,0,1,8.44-8.1c6.36-3.22,8.63-7.38,7.12-14.41a15.37,15.37,0,0,1,1.07-9.74c8-15,10-28.73.88-45-4-7.2-2.08-20.42,1.76-28.78,7.62-16.55,6.94-32.14,1-48.2-6.44-17.52-19.21-29.76-34-40.77a291.18,291.18,0,0,1-27.52-23.09"/><path id="stripe-1" class="cls-64" d="M1215.43,473.78c-4.94-26.09-21.87-39.12-32.77-61.76-14.32-29.73-15.2-62.77-27.26-92.53-8.39-20.73-9.21-42.74-21.29-62.87-14.65-24.44-58-34.53-60-64.76"/></g><g id="leg-3-stripes"><path id="leg-3-stripe-5" class="cls-65" d="M2253.08,1121.34c20.85-2.43,48.74,9,70.35,12.66,28.42,4.76,58.33.35,87.34,4.63,25.16,3.71,51.81,14.63,77.25,14.73,22.22.08,39.28-18.26,57.12-29.4,22.16-13.85,28.35-26.57,31.27-51.51,2.22-19,4.1-38.21,4.91-57.34,1.63-38.72-.5-76.32-27.74-106.46-15.09-16.69-33.73-27.83-54.22-36.54-25.44-10.82-48.48-26.36-73.44-38.49-24-11.66-46.55-17.41-73.42-15.53-7.32.51-25.91.09-32.15,5.3-14.25,11.88,2.17,13.16,9,15.47,16.31,5.5,33.45,21.71,40.75,37.29,4.31,9.19,3.25,17.82,4.93,27.33,2.35,13.34,7.19,19-1.51,31.31-12.23,17.35-27.2,34.74-49.46,27.22-20.65-7-48.86-2.65-61.79-24.32-3.72-6.24-.81-23.75-6.74-25.07-10-2.23-19.15,28.71-21.9,34.82-13.05,29.06-15.2,52.7-15.07,84.19.07,15.08.38,30.61-2.19,45.49-1.77,10.19-8.75,23.8-4.29,34C2219,1126.94,2239.52,1122.66,2253.08,1121.34Z"/><path id="leg-3-stripe-4" class="cls-66" d="M2511.52,1251.43c19.89-11,35.23-26.28,53.07-40.07,16.7-12.91,32.66-21.92,41.33-42.09,17.16-39.92,23.71-85.46,19.37-128.56-.91-9-.76-20-3.47-28.75-3.32-10.62-12.48-17.05-16.33-26.83-2-5.06-7.3-13.7.26-18,9.84-5.53,15.16,8.91,19.66,14.73,25.23,32.68,62,56.4,63.49,101.63.7,20.63-4,40.22-8.77,60.11-5.22,21.9-5.61,44-9.84,66.06-3.38,17.57-5,34.06-16.86,48.28-10.68,12.81-25.82,25.1-39.07,35.09-16.68,12.58-35.43,15.85-53.31,25.68-15.61,8.59-32.7,25.85-50.83,28.22-14.45,1.89-29.28-8-31.71-23-3.18-19.56,16.4-30,20.72-46.83-15.81-2.85-33.34,5.89-48.89,9-14.47,2.92-28.59,2.69-43.3,2.91-28.3.42-57.16,3.13-85.39,2.13-29.66-1-68.93-2.48-94.78-18.38-13.94-8.58-21.06-17.73-23.43-33.82-1.35-9.14-6-40.88.57-48.32,11.22-12.76,72,8.33,86.78,10.94,27.19,4.82,55.81,7.67,82.43,13.39,29.75,6.41,62-11.93,92.63-18.6,37.88-8.24,46.49,22.34,45.67,55"/><path id="leg-3-stripe-3" class="cls-67" d="M2215.43,1323.78c30.6-6.9,64.14-6.51,95.33-8,42.55-2.1,88.1-2.41,129.82,6.78,14.41,3.17,11.51,8.54.38,14.9-11.65,6.66-24.31,12.09-36.38,17.95-23.2,11.26-47.17,21.56-72.87,25.28-12.72,1.84-25.49.92-38.09,3.13-13.54,2.37-21.78,4.15-33.94-3.93-9.73-6.47-16.63-16.21-25-24.18-4.16-4-24.85-14.53-23.39-20.21"/><path id="leg-3-stripe-2" class="cls-68" d="M2408.76,1392.45c-44.28,24.07-79.39,50.27-132.2,51.35-18.86.38-48.81-7.85-64.72-18.94-9.55-6.65-8-14-14-21.91-4.17-5.57-12.86-6.55-17.1-11.84"/><path id="leg-3-stripe-1" class="cls-69" d="M2178.09,1486.45c19.54,31.21,65.46,32.08,98.62,35.27,35.74,3.44,71.92-14.33,104.05-29.27"/></g><g id="leg-2"><path id="leg-2-2" data-name="leg-2" class="cls-70" d="M1796.69,1471.16c21,18.9,47.3,19.47,71.2,15.61,22.73-3.67,44.06-16.74,65.62-26.5,7.76-3.51,7.54-9.2-.46-12.52-9.7-4-20.13-6.28-30.32-9-12.86-3.5-15-7.78-9.27-19.74,2-4.12,4.33-8,7.82-14.44-13.75,3.93-24.09,8.25-34.81,9.66-21.1,2.77-27.43-5.68-20.64-26.09,1.43-4.33,4.58-8.06,6.69-12.19a38.82,38.82,0,0,0,3.67-9.17c.31-1.43-1-3.54-2.2-4.83-.57-.63-2.78-.55-3.69,0-3.3,2.18-6.38,4.68-9.51,7.11-5.24,4.07-9.94,9.37-15.83,11.93-5.63,2.44-12.49,2-18.8,2.87.66-5,1.48-10,1.9-15,.15-1.81-.06-4.44-1.19-5.34s-4.21-.37-5.22.69c-15.76,16.43-36.59,19.8-57.61,22.87-4.57.67-9,2.11-13.56,3-6.38,1.32-8.56,5.47-8.34,11.58.86,23,19,47.06,41.33,52.25a73.76,73.76,0,0,1,33.22,17.23"/></g><g id="leg-1-stripes"><path id="leg-1-stripe-5" class="cls-71" d="M1340.26,1292c-17.42-10.73-40.59-2.53-58.48-13.2-25-14.88-25.32-44.61-26-70.51-.65-26.61.85-18.75,26.8-24.26,23.65-5,34.86-15.45,59.43-15.35-1.35-20-8.81-72.46-25.53-82.79-27.13-16.74-63.46,27.44-85.73,38.09-32.2,15.41-77.85,13.32-104.78,39.78-31,30.46,40.64,31.6,61.56,44.29-23.29,10.26-144.42-21-101.9,42.61,9,13.41,26.41,18.62,38.8,28.26,13.7,10.66,24,22.63,39,31.75,18.67,11.35,39.62,22.7,60.26,29.27,19.54,6.22,39.52,8.07,57,20.06"/><path id="leg-1-stripe-4" class="cls-72" d="M1217.26,1399c-4.61-13.53-45.46-28.64-58.14-34.67-22.77-10.81-40-19.16-58-37-28.82-28.56-67.4-55.29-83.37-93.85"/><path id="leg-1-stripe-3" class="cls-73" d="M1141.76,1424.45c-19.37-5.94-36-17.12-53.6-26.8-20.82-11.44-47.61-17.73-66.12-32.07-35.1-27.19-64.34-71.76-38.78-114.63"/><path id="leg-1-stripe-2" class="cls-74" d="M928.26,1268.45c10.37,16.81-1.48,28.29.56,46.9,2.24,20.42,11.22,34.9,23.8,49.6a335.89,335.89,0,0,0,44.78,43.41c17,13.53,44.63,19.43,58.36,35.59"/><path id="leg-1-stripe-1" class="cls-75" d="M919,1443.24c-10.42-9.17-22.19-17-31.71-27-6.12-6.42-9.84-15.43-13.57-23.76-6.36-14.24-6.6-31.08-20.32-42.33-3.15-2.59-4-12.57-1.62-16.54,9.55-15.81,21.43-35.8,33-50.21"/></g><g id="face"><path id="face-13" class="cls-76" d="M784.65,315.94c9.6-13.25,11-37,27.88-27,5.81,3.47,12.84,24.82,17.26,30.69,6.89,9.17,15.18,17.31,23.48,25.17,5.52,5.23,45.35,44.69,50,41.58,16.5-11.12-1.88-45.8-11.27-55.39-14.44-14.75-32.7-26.24-46.69-41.79-10.51-11.7-13.52-11.12-15.66-27.67-.73-5.59-1.86-32.89,6.39-34s19.24,45.83,27.06,55c3.74,4.39,26,28.94,33,29,14.9.07,10.27-9.79,9.2-24.52-1.51-21-65.51-122-50.8-131.25,20.54-12.92,67.77,118,69.64,136.8,2.6,26.16-3.62,54.43-1.06,79.51,2.8,27.43,9.77,51.58,10.46,82.06.73,32.33,1.28,64.15-2.5,96.28-3.57,30.37-12.1,71.5.2,100.13,22.17-15,33-42.93,45.47-65.79,14.13-25.91,36.79-54.61,39.45-84.65,2.6-29.26-3.59-59.7-1.42-89.8,2.29-31.68-.37-48.67-23.82-69.85-20.34-18.36-75.48-102.82-13-60.94,20.84,14,41.4,29,58.53,47.5,19.08,20.55,23.62,42.85,37.16,65.56,10,16.77,17.08,17.7,15.42,40.16-2.27,30.73-15.41,52.91-28,79.95-11.52,24.68-18.14,42.24-34.7,64.3-18.65,24.85-36.13,50.58-55.31,75-10.26,13.07-72.21,110.56-86.71,91.14-8.41-11.26,17.55-55.41,21.18-68,7.71-26.65.73-54.42,3.07-82.15,2.77-32.8,8.6-59.13,4.38-91.15-3.91-29.63,6.43-63.1-17-87-11.33-11.55-29.9-14.46-42.5-24.21-11.5-8.9-16.87-22.66-27.12-32.48C814.35,346.83,767.58,339.5,784.65,315.94Z"/><path id="face-12" class="cls-77" d="M944.92,781.79c-.06,9.81-22.58,32.47-28.2,42.54-9.07,16.24-18.18,32.89-29.56,47.66-22,28.56-52.43,48.5-84.82,63.48-64.61,29.85-135.49,37.87-184.62-22.57-11-13.52-11.45-25,7.72-18.33,18.65,6.48,32.9,17.4,53.16,20.85,39.57,6.76,82.83-1.84,120.43-14.52,35.83-12.1,64.44-33.1,86.28-64,11.54-16.35,19.22-35.34,31.24-51.25C925.32,774,945.05,756.9,944.92,781.79Z"/><path id="face-11" class="cls-78" d="M1246.76,990.45l24.88,27.32c1.52,6.37-1.11,9.47-9.17,10.23-10.34,1-19.62,2.1-24.79,12.7-.71,1.46-3.21,2.2-5,3-19.47,8.23-39.18,16-58.41,24.74a406,406,0,0,0-40.36,21.23c-23.62,14.2-50.12,19.75-76,27.56-15.52,4.69-27.66,1.79-37-10.91-5.3-7.19-9.58-7.08-18.06-4-37.83,13.48-78,15.59-117.37,21.17-13.12,1.86-26.45,2.45-39.7,2.87-5.19.16-10.57-1.32-15.59-2.92-1.82-.58-3.43-3.56-3.95-5.72-.24-1,2.16-3.51,3.73-3.91a116.78,116.78,0,0,1,15.65-2.88q59.37-7,118.74-13.9a18.93,18.93,0,0,0,3.94-.6c11.18-3.9,22.33-7.88,33.49-11.84-3.47-11.83-5.53-24.31-10.7-35.33-10.08-21.49-8.19-26,15.16-28,2.65-.21,5.29-.46,7.94-.7l.11-1.2c7.2.84,15,.19,21.48,2.81,19.48,7.86,39.45,5.21,59.16,3.6,8-.66,15.75-6.09,23.44-9.72,3.65-1.73,7.19-3.8,10.74-5.77,6.5-5.15,13.09-10.15,19.86-14.89a35.78,35.78,0,0,1,11.46-4.91,25.29,25.29,0,0,0-.31-4.88c-.32-2.13,7.43-7.61,11.73-8,17.73-1.45,35.57-1.53,53.37-2.1.66,0,1.56-.23,1.94.11.75.66,18.84,14.23,19.62,14.85"/><g id="face-10"><path class="cls-79" d="M927,1053.69c2.34,0,5.12,1.86,7.66,2.69-1.43,3.32-2.43,9.23-4.37,9.55-20.61,3.45-40.77,12.33-62.81,12.33a73.94,73.94,0,0,1-25-4.25c30.11-7.35,56.84-14,83.68-20.22a3.57,3.57,0,0,1,.87-.1m0-8h0a11.81,11.81,0,0,0-2.67.3c-21,4.86-42.08,10-64.4,15.5q-9.48,2.33-19.38,4.75a8,8,0,0,0-.77,15.31,81.68,81.68,0,0,0,27.7,4.71c14.9,0,28.65-3.68,42-7.23,7.65-2,14.88-4,22.17-5.21,6.17-1,8-7,9.41-11.37.34-1.09.7-2.22,1-2.89a8,8,0,0,0-4.86-10.78c-.47-.16-1.22-.5-1.94-.83a19.49,19.49,0,0,0-8.2-2.26Z"/></g><path id="face-9" class="cls-80" d="M750.55,1039.56c-37.27-11.82-77.64-21.07-113.41-36.84-11.79-5.21-33.74-13.91-12.11-18.93,13.87-3.22,36.22,7.19,49.42,11.46,32,10.37,63.22,23.66,96,31.34,39.38,9.23,78,4,117.84,5.19C848.78,1053.66,793.38,1053.13,750.55,1039.56Z"/><path id="face-8" class="cls-81" d="M897,1188.61c-30-5.19-60-8-90.33-10.89-13.45-1.27-28.51-5-41.89-4.53-12.06.44-23.49,5.07-35.91,4.84-28.6-.54-55.87-13.42-82.24-23.17-10.59-3.92-76.55-22.72-62.12-37.32,10.89-11,56,14.68,67.52,18.29,29.22,9.14,59.85,11.35,89.85,16.87,29.84,5.49,59.51,13.12,89.75,15.89,28.64,2.62,58.26,1.09,86.68,5.25,26.84,3.92,39.86,2.81,64.71-11,10.69-6,49.43-41.57,56.64-28.62,4.88,8.77-7.94,15.17-11.84,21.49-2.56,4.15-5.62,4.39-7.43,9-1,2.55,5.14,9.9,3.7,13.1-7.24,15.94-57.66,24.22-73.17,28.58-26,7.31-48.59,12.62-75.71,9.34-33.35-4-64.72-2.48-98.11-3.06-59.16-1-121.05,5.78-178.26-11.37-4.21-1.26-33.34-6.39-32.84-15,.6-10.12,28.47-7.27,32.34-7.14,34.89,1.22,69.91,5.38,104.75,7.73,20.06,1.36,193.35,13.7,193.91,1.75"/><path id="face-7" class="cls-82" d="M552.78,1080.81c-26.38-14.17,40.84-19.9,46.33-21-5.84-10.36-32.56-24.15-33-33.66-.56-11.58,58.76,6.19,64.84,8.26,22.89,7.8,44.45,18.27,67.8,25.07,22.14,6.44,49,9.15,67.79,22.77-32.78,16.57-77.94-4.61-112.12-9.64,9.54,6.35,25.73,12.91,33.81,21.19,10.35,10.6,8.89,14.42,25,20.72,33.85,13.22,68.78,23.8,104.95,28.34,34.8,4.36,72.6,5.67,107.38.71,6.51-.93,32.33-11.46,38.73-5.75,11.22,10-2.85,13.65-9.28,16.12-27.68,10.65-70.63,8.51-100,8-32.36-.51-67.87-7.26-99.11-15.66-35.38-9.51-69.89-23.83-104.94-34.74-17.6-5.48-34.46-12.28-51.86-18.2C585.55,1088.76,565.19,1087.47,552.78,1080.81Z"/><path id="face-6" class="cls-83" d="M496.52,1068.42c-7.83,23.06-46.16-9.73-56.76-15.09-10.43-5.27-52.25-16-53.72-30.29-1.64-15.89,43.1,9.31,51.67,13.15C445.35,1039.62,500.13,1057.76,496.52,1068.42Z"/><path id="face-5" class="cls-84" d="M365.5,1048.32c21.19,7.56,40.12,17.12,59.78,28.1,6.81,3.81,55.11,26.22,34.5,34-9.47,3.6-42.11-21.76-50.85-26.68-16.1-9.08-40-16.86-51.12-31.72Z"/><path id="face-4" class="cls-85" d="M329.75,977.72c-6.9-1.93-14.07-7.81-20-11.46C325.9,957.61,330.27,954,349,958.1c14.65,3.22,29.44,6,43.64,11,15.5,5.39,26.32,13.64,39.94,22,12.34,7.59,26.22,9.88,40,14.13,9.64,3,32.58,11.1,14.89,20.86-10.48,5.78-33.58-7.42-44.22-11.55C406.1,1000.13,368.05,988.39,329.75,977.72Z"/><path id="face-3" class="cls-86" d="M313.38,988.53c2.65,2.61,5.22,12.51,2,15.76-5.79,5.83-7.51-.22-13-2.48-11.8-4.85-37.51-16.9-43.47-28.29-7-13.39,4-18.59,15.67-15.26C287.89,962.07,304,979.27,313.38,988.53Z"/><path id="face-2" class="cls-87" d="M467.9,1179.77c-43.71-8.22-66.86-49-100.88-73.15-5.43-3.86-10.64-8.85-18-8.3-3.51.27.85,6.45-3.32,7.36-13.87,3-29.38-2.58-42.79-5.3-16.06-3.28-34.17,3.16-48.06-5.54-16.83-10.53-24.44-31.91-30-49.47-5.24-16.54-11.9-30.63-19.9-45.8-7.37-14-9.53-29.28,4.27-40.05,12.86-10,26.3-.55,31.17,14,2.59,7.73-1.33,16.06,2.3,24.71,2.85,6.8,8.27,12.56,12.81,18.21,12.22,15.2,24.78,34.26,40.5,45.77,5.11,3.73,12.33,5.45,17,9.58s4.76,10.08,9.85,14.21c3.7,3,14.56,6.22,19.28,5.28,6.1-1.21,5.43-6.59,11.53-9.43,13.63-6.33,26.13,12,34.33,20.36,14.71,14.94,30.17,28.67,47.68,40.27,15.85,10.49,34.68,16.12,45.23,32.2A29.72,29.72,0,0,1,467.9,1179.77Z"/><path id="face-1" class="cls-88" d="M837.73,143.64c10.65,7-1.49,23.68-3.57,31.09-2.8,10-3.8,27.34-7.5,36-2.84,6.66-10.68,12.52-13,18.65-3.61,9.52-.72,18.44-3.18,28.55-5.69,23.4-31.46,50.51-45.6,69.67C748.07,350.39,728.6,367.1,705.2,383c-27.87,18.93-58.83,31.92-86.18,51.94-23.28,17-40.29,32.2-69.7,31.95-60.65-.5-120.41-33.74-180.77-16.82-37.46,10.5-66,39.76-84.95,73.06-10,17.51-11.48,37.55-19.87,54.79-4.3,8.83-11.71,10.63-15.64,21.48s.89,23-3.53,34.06c-8.25,20.66-29.18,28-36.47,50.29-8.53,26.11-19.4,54.32-25.57,81.28-6.81,29.72-12.4,36.47-37.22,55.18-22.87,17.23-47.41,32-77.09,32"/></g><g id="highlight"><path id="highlight-dot-1" class="cls-89" d="M2596.91,791c-1.69,13.26-27,20.48-29.13,5.09-2.85-20.54,20.75-16.34,29.22-6.49a10.85,10.85,0,0,1-.09,1.4"/><path id="highlight-dot-4" class="cls-90" d="M2543.4,727.22c.55,15.7-27.3,26.85-32.85,9.36-5.8-18.27,32.15-29.2,32.85-9.36"/><path id="highlight-dot-3" class="cls-91" d="M2423.52,687.67c-17.75.78-19-13.93-12.56-23.59,3.9-5.87,10.62-9.87,18.18-7.39,20.18,6.64,8.09,26.8-5.62,31"/><path id="highlight-2" class="cls-92" d="M2116.08,588.37c-19.78-6.52-49,.48-60.3-15.13-5.63-7.76,7.84-9.41-3.33-22.31-9.64-11.13-21-6.53-31.69-6.9-20-.7-25.77-4.66-44-12.34l.57.56c-9.18-10-8.64-6.33-7.8-17.12.38-4.85,13.08-25.34,16.51-28.88,11.38-11.72,12.43-7.09,30.27-.72l18.28,6.54q7.23,5.73,11-3,5.73-11.82,14.56-.27l8.58,4.93c14.78,2.33,7.5-5.7,19-7.26,14.27-1.93,35.34,1.86,50,6.61,9.46,3.08,17.29,12.87,26.69,15.88,9.93,3.18,24.33-2.77,32.47,1.16,12.63,6.1,6.49,21.74,12.68,30.43l14.73,9.85q11.34,15,18.66-2.27c10.94-3.31,7.16-14.77,22.53-10.63q3.95,5.84,1.53,11.78-4,8.67,10.51,6.74c18.58,12.91,42,14.08,61.33,27,25.37,17,52.86,25.57,26.38,61.78-12.77,17.47-40.3,31.75-61.85,23.23-26.34-10.42-24.18-33.6-56.43-34.65-36.76-1.2-48.78,12.1-76.11-13.62-15.8-14.87-34-24.56-54.75-31.38"/><path id="higlight-dot-2" class="cls-93" d="M1882.57,579.8c-9.08,13.6-23.24,4-19.81-11.35,3-13.41,31.7-9.53,20.8,9.75-.32.56-.65,1.1-1,1.6"/><path id="highlight-1" class="cls-94" d="M1382.24,474.3c18.46,2.76,36.49-25.62,54.14-30.87,13.45-4,24.87-4.76,38.25-10.44,6.38-2.7,12.07-9.28,19.29-8.72,19.06,1.48,26.71,24.43,50.45,22.18,23.11-2.2,55-20,74-32.86,8.26-5.59,13.48-17.24,25.41-13.87,11.55,3.26,7.21,14,11,19.89,5.92,9.08-2.28,9.3,13.56,11.66,20.82,3.1,14.1-10.58,25.84-16.29,25.93-12.61,17.62,16.78,37.8,11.22s4.85-13.48,25.64-9.58c3.24.6,5.66,7.16,10.22,8.33,21.77,5.56,2.54-6.85,19-12.75,17.37-6.24,49.71,22.55,70.17,22.9,12,.21,24.78-1.53,35.93-5.67,11.71-4.36,23.53-19,37.35-14.21,17.52,6,4.3,12.61,10.56,28.67,2.93,7.51,13.45,6.66,14.62,16.45,1.45,12.11-14.9,23.58-22.35,31.37-38.94,40.74-84.54,52.93-137.84,42.76-40.24-7.68-70.81,36.29-110.73,35.13-12-.35-18.46-4.8-26.24-14.06-3.94-4.7-8.56-23.44-12-25.62-14.42-9.15-37.47,10.63-52.48,14.11-19.35,4.48-116.63-.69-83.36-37.21-5.75-11.2-33,4.48-39.72,7-20.76,7.72-37.91,11.33-60.4,9.93-35.49-2.21-13.93,1-32.38,20.9-14.43,15.6-34.84,10.51-37.07-10.78-20.44,11.1-36.2,26.65-57.84,36-17.51,7.56-34.39,10.37-49.19,20.64-12.62,8.76-6.19,13.86-23.68,20-9.11,3.19-19.57,2.29-29,3.45a342.28,342.28,0,0,0-55.73,11.93c-19.62,5.8-39.62,12.24-57.84,21.68C1053.3,655,1046.45,669,1034,676.33c-15,8.82-22.64,5.93-19.65-16.47,2.34-17.55,18.41-34.36,30.36-46.33,14.27-14.29,30.68-26.32,45.87-39.57s26.38-32,46.61-35.33c7.3-1.21,14.69,6.12,22.37,2.32,10.38-5.14,4.58-10,9.47-17.1,7.37-10.62,25-36.6,36.29-43.34,27-16.18,41.35,30.7,75.34,10.47,14.48-8.63,18.85-25.69,37.38-30.42,22.91-5.83,42.5,10.51,64.16,13.74"/><path id="highlight-dot-1-2" data-name="highlight-dot-1" class="cls-95" d="M975.32,709.81c2.4-6.32,3.95-12.74,7.19-18.15,2.17-3.62,6.45-6.32,10.32-8.46s9.53,2,9.62,6.62c.14,7.1-2.61,13-8.22,17.06-5.24,3.77-11,7.33-18.91,2.93"/></g><g id="outter-shape"><path class="cls-96" d="M2938.76,2243.45c0-16.28-39.75-9.18-46.45-5.48-28.57,15.74-33,61.17-11.11,83.78,55.51,57.41,126.54-13.42,128.35-74.3,1.87-62.63-56.94-116.14-118.46-103.63-46.06,9.36-86.42,41.87-105.47,84.65-45.89,103,19.49,225.71,133.17,232,133,7.39,258.84-141.64,231.67-272.11-37.45-179.8-229.77-271.49-390.4-177.64-155,90.57-207.87,311.3-138.18,471,73.12,167.53,262.9,256.4,438.87,221.32,89.75-17.89,171.28-55.8,237.42-121.33,24.85-24.63,41.38-50.53,60.95-78.67,10-14.43,25.41-22.51,35.94-36.49,8.31-11.05,16.68-25.25,24-37.74,12.55-21.41,28.45-42.07,40.68-64.22,6.44-11.67,8.31-25.5,12.55-36.51,5.34-13.9,13.19-28.56,20-43.4,10.95-24,13.86-41.84,18.84-67.28,3.88-19.82,12.35-36.66,17.48-54.52,6.08-21.2,3.1-35.36,4.12-55.86.18-3.68-5.22-6.95-4.75-12.59.21-2.52,7.79-3.28,8.6-7,3.62-16.48,3.55-34.61,5.87-50,4.15-27.57-5.57-60.45-3.28-92.6,1.51-21.15,1.92-39.86-2.37-60.53-5.08-24.42-6-53.32-12.79-78.09-.42-1.52,2.13-10.56,1.67-13.65-.23-1.53-8.1-6.1-9.1-9.46-1.79-6,4.52-7.35,2.8-13.12-2.22-7.42-6-12.44-7.62-20.74-5.24-26.28-2.39-42.58-16.09-64.83-7.05-11.43-12.85-21-18.4-32.38,4.92,10.14-2.54-14.3-2.62-14.63a11,11,0,0,1-6.63-10l5-5.92c-2.87-8.33-9.32-17.26-14.32-25.5-.65-1.07-11-18.38-10.7-18.11-4.19-3.73-13.14-3.64-15.71-7.16s.87-9.32-.75-11.63c-6.93-9.87-11.92-26.66-17-35.09,1.28,2.13-5-13.22-5.33-13.9,1.47,3.3-13.91-13.61-12.15-11.94-2.12-2-1.5-7.55-5.55-10.92-3.68-3.07-11.57-1.13-15.29-4.2-8.73-7.19-8.38-16.79-14-26.77-6.83-12-21.7-31.1-32.42-39.18-11-8.26-22.83-12.2-32.86-22.88-11-11.69-17.37-21.62-29.65-31.4-25.11-20-51.58-46.38-79.3-63.05-26.06-15.67-43.56-37.37-70.8-52.77-11.66-6.6-19.07-16.1-29.24-22.84-7.57-5-27.59-4.84-34-13.36-5.89-7.77-3.35-12.06-7.08-21.45-3.39-8.54-6.71-12-12.22-17.19-7-6.6-19.46-8.86-25.74-17.39-9-12.17-5.72-16.64-10.11-27-8.3-19.6-27.79-17.41-41.18-32-3.16-3.43-7-14-8.65-18.12l.09-1.62q8.43-8.82-2.54-13.88c-.92-2.47-7.48-14.52-9.16-16.14-8.17-7.85-15-8.62-21.23-19.06s-7.26-24-14.86-35.33c-1.66-2.47-.72-6.77-2.43-9.4-1.18-1.8-6-2-7.37-4.22-7.05-11.28-6.77-20.75-10.84-30.55-6.68-16.09-18.31-35.29-25.4-48.83-2.63-5-8.14-12.75-10.35-18.81-.85-2.31.78-14.17,2.09-11.71-4.77-9-11.41-14.37-16.38-24-6.75-13.13-12.36-22.44-19.13-36.29-2.4-4.92,2.57-10.37-.68-16.29-1.67-3-10.1-5.53-11.28-8.75-1.93-5.29,2.34-11.66.43-14.86-1.12-1.88-8.92-10.1-9.05-10.4-3.57-8.28-11.3-15.28-14.89-23.89-1.15-2.76,2.26-8.76.43-12-3.17-5.64-10.69-10.11-13.07-15.46-2-4.45,8-6.71,4.12-13-2.07-3.39-14.31-8.12-14.71-9.28-2.61-7.53.74-15.56-2.89-22-3.07-5.41-12.45-3.7-16.12-8.64-1.88-2.53-.82-15-3.28-19.67-2.31-4.35-13.75-3.13-16.4-8.08-2.45-4.56,4.49-12.22,2.6-15.58-3-5.32-11.59-8.27-13.3-12.71-.34-.87-4.3-16.8-3.17-14.78l.56-4.64q3.14-8.35-7.9-10c-1.57-2.6-13.76-2.65-16.38-7.42-3.27-6,4.64-11.66,1.13-17.5s-11.63-5.35-16.12-10.44c-3.35-3.79-1-9.18-5-14.82-2.32-3.23-9.23-3.39-12.09-7.08-3.55-4.56,1.09-10.81-1.44-14.12-4.41-5.78-13.35-6.67-16.72-12.13-5-8.16,1.71-19.1-4.5-26.14-3.13-3.54-9.76-1-13.1-3.57-8.69-6.61-8.91-5-14.31-11-1.13-1.26,2.3-11-.71-14.57s-10.48-.34-12.87-2.71c-1.47-1.47-7.92-7.28-8.72-8-2.69-2.36,2.5-7.88-3.07-12.46-4.41-3.62-15.35-.76-19-4.44-5-5.07-3.89-9.54-7.14-13.43-2.34-2.8-4.21-9.37-8.1-13.53-4.59-4.89-13.44-3.56-18.69-10.15-5.85-7.33-1.55-18.65-9.49-25.35-14.24-12.05-20.77,3.13-30.69-13.47-4.7-7.86,5.29-11.95-6.07-18.58-6-3.5-15.33,3.31-21,0-7.36-4.34-2.81-10.39-6.9-14.21-5-4.63-2.59-3.7-10.67-9-4.29-2.84-12.52,2.13-16.76-2.28s-.54-8.79-2.79-11.21l-.21-8.74a20.37,20.37,0,0,0-11.4-4.8c-1.55-1.41-14.69-10.46-15.48-10.94-3.69-2.21-.81-6.47-6.89-9.55-4.51-2.28-11.34,4.28-14.76,2.55-10.47-5.3-3.67-10.17-10-15.9-13.94-12.58.29-2.47-20.77-7.12-18.1-4-4.15,1-13.56-9.66-4.61-5.25,1.19-7.72-5.58-13.18-4.38-3.53-14,0-19-1.55,2,.6-28.65-11.86-26.24-8.81-6.12-7.74,1.4-19.92-6.17-26.82-10.78-9.82-31.33,5-42.77-.47-15.62-7.53.83-15.84-10.94-26.36-12.6-11.27-32.69,13.28-43.52,4.82-3.67-2.87,3-16.15-3.67-21.69-11.64-9.69-38,6.54-50-6.26-6.44-6.84,2.72-16.87-9.59-21.59-7.65-2.94-16.43,7.63-23.4,7.93-15.39.67-6.14,2.12-15.83-7-3.86-3.66-.16-13.61-7.43-17.38-5.3-2.74-11.56,3.17-15.69,3.77-12,1.76-20.89,20.59-36.34,6.82-6-5.31,3.43-15.67-4.5-21.47-4.66-3.4-46.86,11.42-53.66,12.1-1.8-25.84-1.5-30.47-26.87-23.58-7.45,2-13.62,10.47-21.72,7.26-7.72-3.06-3.7-18.37-14.47-19.23-10.18-.82-11.6,12.33-19.5,14.88-17,5.51-2,2.75-12-7.42-11-11.12,5-14.11-16.09-12.62-10.49.75-25.91,12.53-35.46,17.19-1-15.39,2.18-24.35-12-27.68s-33.91,21.73-48.3,13.85c-12.11-6.62-3.47-28-22.26-24.54-10.2,1.85-21.75,34.57-33,31.23-9.87-2.93-1.1-24.93-9.95-29.34-11.09-5.53-22.67,14.32-30.65,17.82-23,10.1-3.16,2.67-16.52-12.14-11.08-12.29-32.52,7.47-46.37,15.2-26.7-58-28.21,14.65-56.21,10-15.21-2.54-6.48-23.83-25-21.37-12.77,1.71-23.59,28.94-37.61,27.55-27.57-2.72-17.36-52.59-47.15-12.25C1401.64,48.77,1402.55,62,1384.61,53c-3.32-1.66-1.47-17-7.49-17.85-8.42-1.26-17.14,14.49-21.44,20-27.85,35.78-8.79-11.93-34.45-5.19-14.15,3.72-22.18,35.26-37.36,36.79-16.23,1.64-9.19-14.85-20.14-19.33-14.14-5.77-21.5,18.55-31.91,28.55-1.77,1.7-23.93,23.88-25.43,23.88-11.2,0-15.72-33.39-28.23-31.74-10.83,1.42-19.27,42.76-23.14,51.44-4.52-3.88-10.67-18.27-17.13-18.46-9.73-.29-16.52,28.63-21.08,34.71-16.45,21.9-22.37,6.36-39.7-9.56-10.69,18.36-33.48,50-34.44,70.75-10.88-12-20.11-30.86-33.27-20.81-9.34,7.13-2.7,33.74-19.19,36.48-26,4.32-2.39-19.07-29.35,1.29-16.33,12.34-23.34,22.07-40.94,4.86-26.31-25.74-32.42-72.54-66.37-91-34.63-18.85-73.4,11.06-107.12,20.63-80.88,23-163.73,72.08-220.07,135.47-23.94,26.95-33,75.17-61.39,96.2-15.18,11.24-41.21,10.84-58.74,16.75a312.08,312.08,0,0,0-57.86,26.36c-33.57,19.79-61,54.16-84.32,84.92-23.83,31.44-52.87,58.31-77,88.45-36.78,46-63.85,101.35-105.45,143.94-16.33,16.72-42,21.41-60.81,36.48C5.7,809.12,1,813.77,14.38,831.9c14,18.88,34.66,14.23,52,23.52,25.23,13.54,37.58,57.88,60.05,78.19,14.1,12.74,31,7.12,44,16.17,20.12,14,2.45,30.24,2.44,51,0,5.2,7,10.65,7,14.87,0,2.28-6.07,25.54-5.82,26.06,4.85,10,14.61,6.44,24.48,12.92,1.95,1.28,14.35,22.24,16.27,24.59,3.49,4.27-2.9,11.31,2.4,16.24,4.06,3.79,15.17-1.76,21.49,1,8.16,3.56,8.07,9.09,13,14.65l1.15,7.33q1.16,12.46,12.07,6.49c-2.21-1.8,11.5,1.08,10.26.67,1.05.35,3.51,13.64,7.07,15.77,4.76,2.86,19.68-3.71,28.9,2.48,14.54,9.77,10.78,37.47,29.83,15.17,7.39,18,.49,20.33,16.86,23,6.12,1,10.33-9,18-5.75,8,3.42,6.78,13,10.74,19.39,18.62,30.14,15.49-7.11,44.13,1.33,9.25,2.73,9.2,11.42,15.59,15.74,11.13,7.54,3.11,6.78,14.64,5.46,16.63-1.89,9.5-14.63,28-6.36,5.59,2.5,14.43,24.53,21.25,23.78,7-.76,7.41-14.23,12.93-14.69,7-.58,6.91,1.16,13.81,2.07a20.39,20.39,0,0,0,12.54,10.47l5.22-4.28q1.21-6.12,6.37-8.36,3.83-3.82,6.69,2.33c1.7,0,5.37,12.8,9.71,13.54,7.65,1.31,11.67-10.52,19.13-11.29,14.27-1.48,17.76,13.08,31.53,10.15,4.33-.92,9.45-9.65,17.17-11.3,6.88-1.48,14.18,2.24,20.58,2.29,19.91.16,39.74-8.2,60.25-9.33,52.34-2.9,103.56,15.53,156.54,13.88,26.5-.83,55.09-3.9,79.55-14.93,12.54-5.65,54.31-41.53,65.21-32.45-15,22.32-21.61,29.89,7.52,37.46-27.64,20.12-52.74,31.75-85.6,41.87-31.19,9.61-65.9,30.35-97.45,13.12-41.2-22.5-66.52-59.76-120-48.56-22.22,4.65-42.31,10.5-65.22,13.49-11.75-15.94-49,13.1-51.78,26.38-6.31,30.06,16.92,52.81,37.3,69.43,14.31,11.68,28.43,24.24,44.08,34.13,1.51,1,27.17,12.33,28.05,15.43,6.79,23.81-55.34,21.88-64.18,44.57-8.52,21.9,41.85,36,57.83,41.32,34.2,11.39,70.06,7.85,104.67.53,38.6-8.17,74.17-27.22,113.64-30.9,34-3.17,67.42,3.51,101.3,2.81,64.75-1.34,146.53-23.58,201.34-57.38,50.13-30.91,111.12-67.61,103.86-134-3.54-32.44-15.94-57,22.43-45.26,5,1.52,13.79,6.49,16.31,7.23q3.35-10.93,11.16-2.68a104.18,104.18,0,0,0,12.67,9.67c11.81-.72,2.87-10.34,10.42-11.65s14.74,9,22.54,10.06c10.2,1.41-.27-11.29,9.39-12.1,13.31-1.11,18.77,18.66,23-3.11l-.16,1.16s-.06-.74-.06-.81c15.26,8.79,22,16.36,24.14-4.84,4.25,1.42,15.84,9,20.45,8.64,7.22-.51,3.31-8.33,8.7-9.77,14.39-3.85,30.21-.65,44.76-1-3.74.09,19.46-3.57,17.43-3.84,6.41.84,8.32,7.11,14.74,8,2.39.32,9.75-5.52,8-6,5.81,1.41,9.26,7.46,15.33,8.19,7.76.94,6-4.87,13.7-2.92,3.16.81,6.39,7.51,9.13,8.6,1.26.51,26.39,15.27,25.05,15.57,6.16-1.4,5.53-13.71,10.52-13.77,11.22-.12,4.58,3.4,17,10.19,2.19,1.2,7.89,12,12.81,13,6.54,1.38,5.66-11.84,15.62-9.23,5.84,1.53,8.38,13.1,15.52,16,3.32,1.33,7.39-10.44,8.67-10,3.6,1.34,11.72,12,14.08,11.83.52,0,18.48-6.58,9.32-7.42,8.53.78,18.6,5.83,27.41,3.88,2.28-.5,4.46-13,8.39-14,12.8-3.31,16.82,8.61,21.48,16.85,6.68,11.82,8.33,52.18,18.82,58.84,12.15,7.71,13.84-9.29,26.63-8.73,7.47.32,27.25,17.59,33.68,23,7.12,6-.37,11.14,8.71,13.2,6.34,1.44,37.36-15.61,45.26-18,46-14,74.85,3.18,119.33,13.2,22.37,5,35.39,2.1,52.46-12.71,9-7.82,39.09-55.19,54.7-50.66,8.74,2.54,22,61,19.63,71-4.49,19.11-22.81,38-31.25,56-12.27,26.22-15.75,52.51-8.09,80.7,9.45,34.77,35.8,63,66.62,80.56,14.47,8.23,31.81,8.85,46.1,17.43,20.4,12.24,26.16,31.1,52.11,18,33.21-16.76,34.31-69.2,45.12-100.06,9.77-27.89,15.06-111.77,49.11-117.5,30.79-5.19,79.52,11.58,103.13,31.59,13.95,11.82,23.22,28.34,37.33,40.47,21.87,18.78,47.75,33,71.74,48.84,88,58.08,160.76,135.88,250.65,190.38,76.9,46.62,178.51,89.24,229.26,165.94,50.24,75.92,80,179.46,74.52,270.59-7.52,125.46-65.09,301.74-200.63,341.25-76.61,22.33-154.44,10.4-203-57.85-39.71-55.77-39.71-134.65-5.64-192.58,40.64-69.1,137-102.39,196.54-37.78,42.33,46,43.07,123.31-9.72,162.37-30,22.23-80.24,24.89-104.72-7.69-24.29-32.35-5.84-92.39,35.69-100.13,32.39-6,62.85,36.91,31.38,59.7-11.4,8.25-31.65,7-26.16-12.25,4.44-15.56,26.78-8.81,26.78-27.45"/></g></svg>