<?xml version="1.0" encoding="utf-8"?>
<!-- Generator: Adobe Illustrator 23.0.1, SVG Export Plug-In . SVG Version: 6.00 Build 0)  -->
<svg version="1.1" id="outter-shape" xmlns="http://www.w3.org/2000/svg" xmlns:xlink="http://www.w3.org/1999/xlink" x="0px"
	 y="0px" viewBox="0 0 3536.95 2704.12" style="enable-background:new 0 0 3536.95 2704.12;" xml:space="preserve">
<style type="text/css">
	.st0{fill:none;}
	.st1{fill:#FFFFFF;}
</style>
<g>
	<path class="st0" d="M2072.83,1199.4c0.03,0.16,0.06,0.32,0.1,0.47c0.02-0.22,0.04-0.51,0.05-0.55
		C2072.92,1199.35,2072.87,1199.38,2072.83,1199.4z"/>
	<path class="st0" d="M2072.74,1198.97l0.06,0.44c0.01,0,0.02-0.01,0.03-0.01C2072.8,1199.26,2072.77,1199.12,2072.74,1198.97z"/>
	<path class="st1" d="M940.25,1445.89c-6.73-8.11-11.42-18.29-14.05-30.48c-3.65-16.94-3.96-36.21-0.97-57.78
		c3.01-21.55,7.27-50.32,12.81-86.27l62.8-403.23c0,0-104.44,416.23-177.57,671.05c24.65-19.92,49.79-39.22,76.33-56.73
		c15.34-10.12,31.44-19.59,46.78-30.01C944.26,1450.42,942.2,1448.25,940.25,1445.89z"/>
	<path class="st1" d="M1443.43,682.78c-6.51,19.16-14.19,40.65-22.99,64.54c-8.82,23.89-19.75,51.08-32.79,81.52
		c-13.05,30.47-27.94,64.71-44.68,102.71c-10.5,23.87-22.12,49.58-34.86,77.15l0.06,0.03l-143.88,308.64
		c-10.65,22.57-21.48,42.55-32.49,59.97c16.84,27,21.68,80.51,29.1,101.71c10.81,30.86,11.91,83.3,45.12,100.06
		c25.96,13.1,31.72-5.75,52.11-18c14.29-8.58,31.63-9.2,46.1-17.43c30.83-17.53,57.18-45.79,66.62-80.56
		c7.66-28.2,4.19-54.48-8.09-80.7c-8.44-18.02-26.76-36.92-31.24-56.02c-2.34-9.98,10.89-68.44,19.62-70.98
		c0.06-0.02,0.13-0.03,0.19-0.04c2.79-21.54,6.38-46.63,10.79-75.27L1443.43,682.78z"/>
	<path class="st1" d="M1774.64,1113.69l72.51-431.58c0.87-5.16,1.04-9.1,0.45-11.83c-0.87-4.05-2.61-6.69-5.22-7.92
		c-2.6-1.21-5.48-1.48-8.64-0.8c-6.37,1.37-11.28,6.34-14.73,14.87l-134.98,289.7l-0.15-0.08l-130.95,280.45
		c-9.92,21.53-19.23,39.96-27.96,55.32c16.12-2.5,32.8-2.28,52.68,3.76c7.9,2.4,38.92,19.46,45.26,18.02
		c9.08-2.06,1.59-7.23,8.72-13.2c6.42-5.38,26.21-22.64,33.67-22.97c12.79-0.56,14.48,16.45,26.63,8.73
		c10.5-6.66,12.14-47.02,18.82-58.84c4.66-8.24,8.68-20.16,21.48-16.85c3.93,1.02,6.11,13.47,8.38,13.98
		c6.54,1.45,13.77-0.96,20.55-2.61c-0.01-8.67,0.46-18.1,1.41-28.31C1764.93,1178.93,1768.95,1148.96,1774.64,1113.69z"/>
	<path class="st1" d="M1466.05,1213.62c-0.51,6.84-0.25,12.65,0.77,17.37c1.76,8.15,4.65,13.2,8.73,15.14
		c4.09,1.97,8.97,2.33,14.71,1.1c8.87-1.91,18.65-8.98,29.32-21.21c10.65-12.23,21-28.98,31.04-50.31l124.86-267.3l0.16,0.09
		l133.67-286.34c11.84-25.24,25.02-48.12,39.56-68.62c14.51-20.5,31.63-32.9,51.33-37.13c18.41-3.96,32.86-1.56,43.4,7.17
		c10.53,8.73,17.18,19.54,19.96,32.41c2.77,12.87,3.68,27.93,2.73,45.16c-0.94,17.23-3.01,35.4-6.19,54.52l-60.81,360.97
		c-1.77,10.32-2.06,18.2-0.89,23.62c1.46,6.77,4.72,9.6,9.82,8.5c6.98-1.5,13.13-9.91,18.48-25.23l131.01-359.08
		c13.32-36.91,25.63-68.45,36.93-94.63c11.3-26.19,22.57-47.94,33.8-65.26c11.23-17.3,22.64-30.58,34.29-39.82
		c11.65-9.24,24.44-15.39,38.42-18.39c24.12-5.19,43.65-4.07,58.55,3.36c14.88,7.44,24.47,20.99,28.7,40.63
		c2.49,11.55,3.48,23.93,3.02,37.14c-0.48,13.24-1.3,24.93-2.42,35.08l-72.48,468.82c-1.06,7.34-1.88,14.44-2.39,21.28
		c-0.53,6.85-0.27,12.66,0.74,17.38c1.76,8.15,4.65,13.2,8.73,15.14c4.09,1.97,8.97,2.33,14.71,1.1c8.9-1.92,18.67-8.99,29.32-21.21
		c10.65-12.23,83.39-130.87,161.91-388.48c54.06-177.36,87.83-399.24,98.98-489.58c-10.35-1.99-18.44,13.26-27.72,23.47
		c-0.96-20.79-23.75-52.39-34.44-70.75c-17.33,15.92-23.25,31.46-39.7,9.55c-4.56-6.08-11.35-35-21.08-34.71
		c-6.46,0.19-12.6,14.59-17.13,18.46c-3.87-8.68-12.31-50.01-23.14-51.44c-12.51-1.65-17.03,31.7-28.23,31.74
		c-1.5,0.01-23.66-22.18-25.43-23.88c-10.41-10-17.77-34.32-31.91-28.54c-10.95,4.48-3.91,20.97-20.14,19.33
		c-15.18-1.53-23.21-33.08-37.36-36.79c-25.66-6.74-6.6,40.97-34.45,5.19c-4.3-5.52-13.02-21.28-21.43-20.02
		c-6.03,0.9-4.17,16.19-7.49,17.86c-17.94,9-17.03-4.18-28.29-19.42c-29.79-40.34-19.58,9.53-47.16,12.25
		c-14.02,1.38-24.84-25.84-37.61-27.55c-18.49-2.47-9.76,18.82-24.97,21.37c-28,4.69-29.51-67.92-56.21-9.96
		c-13.85-7.73-35.29-27.5-46.38-15.21c-13.36,14.81,6.44,22.25-16.51,12.15c-7.98-3.51-19.56-23.36-30.65-17.83
		c-8.85,4.41-0.07,26.42-9.95,29.35c-11.25,3.34-22.8-29.38-33-31.24c-18.79-3.41-10.15,17.92-22.26,24.55
		c-14.4,7.88-34.06-17.18-48.3-13.85c-14.23,3.33-11.08,12.29-12.05,27.68c-9.55-4.66-24.97-16.44-35.46-17.19
		c-21.04-1.5-5.12,1.5-16.09,12.62c-10.04,10.17,5,12.93-12.02,7.42c-7.9-2.56-9.31-15.7-19.5-14.88c-3.64,0.29-5.59,2.24-6.88,4.8
		l-187.11,1160.82C1467.38,1199.68,1466.56,1206.78,1466.05,1213.62z"/>
	<path class="st1" d="M1455.3,292.76l-9.11,55.59l-267.75,127.61l-134.08,807.62c-1.09,7.35-2,15.52-2.7,24.53
		c-0.7,9.03-0.25,17.27,1.35,24.71c1.76,8.15,5.39,14.26,10.93,18.39c5.52,4.13,12.44,5.31,20.71,3.53
		c14.59-3.14,29.14-14.25,43.65-33.34c14.51-19.09,26.78-39.26,36.81-60.59l101.08-216.39l-0.06-0.03
		c31.43-67.03,58.42-126.92,80.92-179.66c22.53-52.71,41.62-99.91,57.25-141.58c15.6-41.66,28.53-78.84,38.78-111.57
		c10.23-32.69,18.93-63.28,26.07-91.78c7.15-28.47,13.45-55.54,18.89-81.2c5.44-25.63,11.5-52.29,18.18-79.98l42.7-285.18
		c-14.06,10.05-22.64-6.98-34.05-8.65c-4.13-0.6-10.39-6.51-15.68-3.77c-7.28,3.77-3.57,13.73-7.43,17.38
		c-9.69,9.17-0.44,7.72-15.83,7.05c-6.97-0.3-15.74-10.87-23.4-7.93c-12.31,4.72-3.15,14.75-9.59,21.6
		c-12.05,12.8-38.39-3.43-50.03,6.26c-6.65,5.54,0,18.82-3.68,21.69c-10.83,8.46-30.92-16.08-43.52-4.82
		c-11.77,10.52,4.68,18.83-10.94,26.36c-11.43,5.52-31.99-9.35-42.76,0.47c-7.57,6.9-0.06,19.07-6.17,26.82
		c2.41-3.06-28.22,9.41-26.24,8.81c-5.06,1.53-14.68-1.97-19.05,1.56c-6.77,5.46-0.97,7.93-5.58,13.18
		c-8.28,9.42,1.51,6.65-8.34,8.57l-30.96,217.77L1455.3,292.76z"/>
	<path class="st1" d="M1093.81,300.8c-5.71,2.19-14.36-3.73-20.04-0.42c-11.37,6.63-1.37,10.72-6.07,18.58
		c-9.92,16.59-16.45,1.42-30.69,13.46c-7.94,6.71-3.64,18.02-9.49,25.36c-5.25,6.59-14.1,5.25-18.69,10.15
		c-3.89,4.15-5.76,10.73-8.1,13.53c-3.25,3.89-2.09,8.36-7.14,13.42c-3.67,3.69-14.62,0.82-19.03,4.44
		c-5.57,4.58-0.38,10.1-3.07,12.46c-0.8,0.7-7.24,6.51-8.72,7.98c-2.39,2.37-9.92-0.8-12.86,2.71c-3.01,3.58,0.41,13.31-0.72,14.57
		c-5.4,6.01-5.62,4.42-14.31,11.03c-3.34,2.54-9.97,0.03-13.1,3.58c-6.21,7.03,0.53,17.97-4.5,26.13
		c-3.36,5.46-12.3,6.36-16.72,12.14c-2.52,3.31,2.11,9.55-1.44,14.12c-2.87,3.69-9.78,3.85-12.09,7.08
		c-4.05,5.64-1.65,11.03-5,14.83c-4.49,5.09-12.62,4.59-16.12,10.43c-3.51,5.84,4.4,11.56,1.13,17.51
		c-2.62,4.77-14.81,4.82-16.38,7.41c-7.36,1.09-9.99,4.43-7.9,10c0.19,1.54,0.37,3.09,0.56,4.63c0.71-1.27-0.59,4.54-1.73,9.25
		l229.74-109.79L1093.81,300.8z"/>
	<path class="st1" d="M792.02,660.68c-0.65,5.26,0.68,11.11-1.25,16.68c-0.4,1.16-12.64,5.89-14.72,9.28
		c-3.86,6.32,6.11,8.57,4.13,13.03c-2.39,5.35-9.9,9.82-13.08,15.46c-1.83,3.25,1.58,9.26,0.43,12.01
		c-3.59,8.61-11.32,15.61-14.89,23.89c-0.13,0.3-7.92,8.53-9.04,10.4c-1.91,3.2,2.36,9.57,0.43,14.86
		c-1.18,3.22-9.61,5.72-11.28,8.75c-3.26,5.92,1.72,11.38-0.68,16.29c-6.77,13.85-12.39,23.16-19.13,36.29
		c-4.97,9.68-11.61,15.08-16.38,24.04c1.3-2.46,2.93,9.4,2.09,11.71c-2.21,6.06-7.73,13.8-10.35,18.81
		c-7.1,13.54-18.72,32.74-25.41,48.83c-4.07,9.79-3.79,19.26-10.84,30.55c-1.38,2.21-6.19,2.43-7.36,4.22
		c-1.72,2.63-0.77,6.93-2.43,9.4c-7.6,11.34-8.67,25.01-14.86,35.33c-6.26,10.44-13.06,11.2-21.23,19.06
		c-1.69,1.62-8.24,13.67-9.16,16.15c-7.32,3.38-8.16,8-2.54,13.88c0.03,0.54,0.06,1.08,0.09,1.62c-1.63,4.15-5.5,14.69-8.65,18.12
		c-13.39,14.57-32.88,12.38-41.18,31.98c-4.39,10.38-1.16,14.85-10.11,27.01c-6.28,8.54-18.72,10.79-25.75,17.39
		c-5.51,5.17-8.82,8.65-12.22,17.2c-3.73,9.38-1.19,13.67-7.07,21.45c-6.45,8.52-26.47,8.35-34.04,13.36
		c-10.18,6.74-17.59,16.24-29.25,22.83c-27.24,15.4-44.73,37.11-70.8,52.78c-27.72,16.66-54.19,43.04-79.3,63.05
		c-12.27,9.78-18.67,19.71-29.65,31.4c-10.03,10.68-21.9,14.62-32.85,22.88c-10.72,8.08-25.59,27.13-32.42,39.18
		c-5.66,9.98-5.31,19.58-14.03,26.77c-3.72,3.07-11.61,1.12-15.29,4.19c-4.05,3.38-3.43,8.91-5.55,10.92
		c1.76-1.67-13.63,15.24-12.15,11.94c-0.3,0.68-6.61,16.03-5.33,13.9c-5.07,8.44-10.06,25.22-16.99,35.09
		c-1.62,2.31,1.79,8.16-0.75,11.63c-2.57,3.52-11.52,3.44-15.71,7.16c0.3-0.27-10.06,17.05-10.7,18.11
		c-5,8.24-11.45,17.17-14.32,25.51c1.68,1.97,3.36,3.94,5.05,5.91c-0.21,4.53-2.42,7.85-6.64,9.95c-0.08,0.33-7.54,24.76-2.62,14.63
		c-5.55,11.43-11.35,20.95-18.4,32.38c-13.71,22.24-10.85,38.55-16.09,64.83c-1.65,8.29-5.41,13.32-7.62,20.74
		c-1.72,5.77,4.59,7.15,2.8,13.12c-1,3.35-8.87,7.92-9.1,9.46c-0.46,3.09,2.09,12.13,1.67,13.65c-6.77,24.77-7.72,53.66-12.79,78.09
		c-4.3,20.67-3.88,39.38-2.37,60.53c2.3,32.15-7.43,65.04-3.28,92.6c2.32,15.39,2.25,33.52,5.87,50c0.81,3.68,8.4,4.44,8.6,6.96
		c0.46,5.64-4.93,8.91-4.75,12.6c1.02,20.5-1.96,34.65,4.12,55.86c5.12,17.85,13.6,34.7,17.47,54.51
		c4.98,25.45,7.89,43.24,18.84,67.28c6.76,14.84,14.62,29.5,19.96,43.4c4.23,11.01,6.11,24.84,12.55,36.51
		c12.23,22.16,28.13,42.81,40.68,64.23c7.32,12.49,15.69,26.69,24.01,37.74c10.53,13.98,25.9,22.07,35.94,36.49
		c19.57,28.14,36.1,54.04,60.96,78.66c66.14,65.54,147.67,103.44,237.42,121.33c175.96,35.08,365.75-53.79,438.87-221.32
		c69.69-159.67,16.84-380.4-138.18-470.97c-160.64-93.85-352.95-2.17-390.4,177.64c-27.17,130.46,98.71,279.5,231.67,272.11
		c113.68-6.32,179.05-129,133.17-232.03c-19.05-42.78-59.41-75.29-105.47-84.65c-61.52-12.51-120.33,41-118.47,103.63
		c1.82,60.89,72.85,131.71,128.35,74.3c21.85-22.6,17.47-68.04-11.1-83.78c-6.7-3.69-46.45-10.8-46.45,5.48
		c0,18.64,22.34,11.89,26.78,27.45c5.49,19.26-14.76,20.5-26.15,12.26c-31.48-22.79-1.02-65.75,31.38-59.7
		c41.53,7.75,59.98,67.79,35.69,100.13c-24.48,32.59-74.68,29.93-104.72,7.69c-52.78-39.06-52.04-116.41-9.71-162.38
		c59.5-64.61,155.9-31.32,196.54,37.79c34.07,57.93,34.07,136.81-5.64,192.57c-48.6,68.26-126.43,80.18-203.04,57.85
		c-135.55-39.51-193.12-215.79-200.64-341.25c-5.46-91.13,24.29-194.67,74.52-270.59c50.75-76.69,152.36-119.31,229.26-165.94
		c49.47-29.99,93.74-67.04,138.22-103.97c96.62-309.65,266.93-1004.49,273.13-1033.46L792.02,660.68z"/>
	<path class="st1" d="M2091.74,1174.19c-3.65-16.94-4.17-37.76-1.5-62.45c2.67-24.68,7.08-55.09,13.25-91.17l70.48-422.64
		c0.88-5.13,0.73-10.42-0.44-15.87c-2.92-13.54-10.41-19.02-22.47-16.42c-5.11,1.1-10.28,4-15.58,8.68
		c-5.3,4.67-10.04,12.78-14.2,24.31l-207.1,565.88c-4.94,13.54-9.84,25.98-14.67,37.31c1.99-2.36,4.12-5.48,6.21-6.02
		c7.64-1.95,5.94,3.86,13.7,2.92c6.06-0.73,9.52-6.79,15.32-8.19c-1.76,0.43,5.6,6.27,7.99,5.95c6.42-0.87,8.32-7.13,14.74-7.98
		c-2.03,0.27,21.17,3.93,17.42,3.84c14.56,0.36,30.37-2.84,44.77,1.01c5.39,1.44,1.48,9.26,8.69,9.77
		c4.62,0.33,16.21-7.22,20.45-8.64c2.1,21.12,8.83,13.68,23.98,4.94l-0.06-0.44c0.03,0.15,0.06,0.29,0.09,0.43
		c0.05-0.03,0.09-0.05,0.14-0.08c0,0.04-0.03,0.33-0.05,0.55c4.22,20.31,9.71,1.11,22.83,2.21c9.66,0.81-0.82,13.51,9.39,12.09
		c2.82-0.39,5.56-1.98,8.26-3.79C2102.26,1201.51,2095.03,1189.46,2091.74,1174.19z"/>
	<path class="st1" d="M3522.61,790.46c-18.78-15.08-44.48-19.76-60.81-36.48c-41.6-42.59-68.67-97.9-105.45-143.94
		c-24.08-30.14-53.12-57.01-76.94-88.45c-23.3-30.76-50.75-65.12-84.33-84.92c-18.05-10.64-38.05-19.68-57.86-26.36
		c-17.53-5.91-43.56-5.51-58.73-16.75c-28.39-21.03-37.45-69.25-61.4-96.2c-56.33-63.39-139.18-112.52-220.06-135.47
		c-33.72-9.57-72.49-39.48-107.12-20.63c-33.95,18.48-40.06,65.28-66.37,91.02c-17.6,17.22-24.61,7.48-40.94-4.85
		c-26.76-20.21-3.72,2.68-28.79-1.21c-19.46,113.73-63.67,363.05-93.89,464.89c-66.63,224.59-158.95,394.44-158.95,394.44
		c-10.89,23.63-21.53,43.65-31.94,60.06c-10.4,16.44-20.64,29.83-30.71,40.14c-10.09,10.32-20.63,18.45-31.64,24.35
		c-0.42,0.22-0.84,0.43-1.26,0.65c0.16,8.81-3.16,21.66-4.73,36.08c-7.26,66.44,53.74,103.14,103.86,134.04
		c54.82,33.8,136.6,56.04,201.34,57.38c33.88,0.7,67.3-5.99,101.3-2.81c39.47,3.68,75.04,22.73,113.64,30.9
		c34.61,7.32,70.47,10.86,104.67-0.52c15.98-5.32,66.36-19.43,57.83-41.32c-8.84-22.69-70.96-20.76-64.18-44.57
		c0.88-3.1,26.54-14.47,28.06-15.43c15.64-9.89,29.77-22.45,44.07-34.12c20.38-16.63,43.61-39.37,37.31-69.44
		c-2.78-13.28-40.03-42.32-51.78-26.38c-22.91-2.99-43-8.84-65.22-13.49c-53.48-11.2-78.8,26.06-120,48.56
		c-31.55,17.23-66.26-3.51-97.45-13.12c-32.86-10.12-57.96-21.75-85.6-41.87c29.13-7.57,22.5-15.15,7.52-37.46
		c10.9-9.08,52.67,26.8,65.21,32.45c24.46,11.02,53.05,14.1,79.55,14.92c52.98,1.65,104.2-16.78,156.54-13.88
		c20.51,1.14,40.34,9.49,60.25,9.34c6.4-0.05,13.7-3.77,20.58-2.3c7.72,1.65,12.84,10.38,17.17,11.3
		c13.76,2.93,17.26-11.63,31.53-10.15c7.45,0.77,11.47,12.6,19.13,11.29c4.33-0.74,8.01-13.58,9.71-13.54
		c1.91-4.11,4.14-4.89,6.69-2.34c3.44,1.49,5.57,4.28,6.37,8.37c1.74,1.43,3.48,2.85,5.22,4.28c5.57-1.69,9.75-5.18,12.55-10.48
		c6.9-0.9,6.79-2.65,13.81-2.07c5.52,0.46,5.9,13.92,12.93,14.69c6.82,0.74,15.67-21.29,21.26-23.78
		c18.53-8.27,11.39,4.47,28.02,6.36c11.53,1.32,3.51,2.07,14.65-5.47c6.39-4.32,6.33-13.01,15.59-15.74
		c28.64-8.44,25.51,28.81,44.13-1.34c3.97-6.42,2.77-15.97,10.74-19.38c7.71-3.3,11.91,6.74,18.03,5.75
		c16.37-2.64,9.47-5.03,16.86-22.97c19.05,22.3,15.29-5.4,29.83-15.17c9.22-6.19,24.14,0.37,28.89-2.48
		c3.5-2.1,5.94-14.95,7.02-15.73c-0.04,0-0.02-0.01,0.06-0.04c-0.02,0.01-0.04,0.03-0.06,0.04c0.54,0.01,12.38-2.39,10.32-0.71
		c7.27,3.98,11.3,1.82,12.07-6.49c0.38-2.44,0.76-4.89,1.15-7.33c4.92-5.56,4.83-11.09,12.99-14.65c6.32-2.76,17.43,2.79,21.49-1
		c5.3-4.93-1.09-11.97,2.4-16.24c1.92-2.35,14.32-23.31,16.27-24.59c9.87-6.48,19.63-2.93,24.48-12.92
		c0.25-0.52-5.84-23.78-5.82-26.06c0.03-4.22,6.98-9.67,6.98-14.87c-0.01-20.74-17.68-36.99,2.44-50.99
		c13-9.04,29.93-3.42,44.02-16.17c22.47-20.31,34.82-64.65,60.05-78.19c17.3-9.28,37.99-4.63,51.96-23.51
		C3542.48,807.27,3537.75,802.62,3522.61,790.46z"/>
	<path class="st1" d="M3268.28,1119.12c0.02-0.01,0.04-0.03,0.06-0.04C3268.26,1119.11,3268.24,1119.12,3268.28,1119.12z"/>
	<path class="st1" d="M2072.8,1199.42l0.1,0.71c0,0,0.01-0.11,0.02-0.26c-0.03-0.15-0.06-0.31-0.1-0.47
		C2072.82,1199.41,2072.81,1199.41,2072.8,1199.42z"/>
</g>
</svg>
