<?xml version="1.0" encoding="utf-8"?>
<!-- Generator: Adobe Illustrator 23.0.1, SVG Export Plug-In . SVG Version: 6.00 Build 0)  -->
<svg version="1.1" id="Layer_1" xmlns="http://www.w3.org/2000/svg" xmlns:xlink="http://www.w3.org/1999/xlink" x="0px" y="0px"
	 viewBox="0 0 83.3 59.6" style="enable-background:new 0 0 83.3 59.6;" xml:space="preserve">
<style type="text/css">
	.st0{fill:#0098A6;}
</style>
<title>TLN-rev</title>
<g>
	<path class="st0" d="M24.8,13.5h13.8l-0.9,2H23.9L8.8,51.2c-0.1,0.3-0.3,0.7-0.4,1.1c-0.1,0.4-0.2,0.8-0.2,1.1c0,0.4,0.1,0.7,0.3,1
		c0.2,0.2,0.6,0.4,1,0.4c0.7,0,1.6-0.4,2.5-1.1c0.9-0.7,1.7-1.5,2.4-2.4l8.9-11l1.2,1L14.4,54c-1.6,2-3.1,3.4-4.5,4.3
		c-1.4,0.9-2.8,1.3-4.1,1.3c-0.5,0-1-0.1-1.5-0.2S3.4,59,3,58.7s-0.7-0.6-1-1.1s-0.4-1-0.4-1.5c0-0.8,0.2-1.7,0.6-2.7
		s0.9-2.2,1.5-3.8l9.2-22c-0.5,0.8-1.1,1.7-1.8,2.7s-1.5,2.1-2.4,3.4c-0.9,1.3-2,2.7-3.3,4.3c-1.2,1.6-2.7,3.3-4.2,5.3l-1.2-1
		c3-3.7,5.5-6.9,7.5-9.6s3.6-5,4.9-7.1c1.3-2,2.3-3.8,3.2-5.4c0.8-1.6,1.6-3.2,2.4-4.7H6l0.9-2h12l3.9-9.1h5.9L24.8,13.5z"/>
	<path class="st0" d="M30.6,51.2c-0.1,0.3-0.2,0.6-0.3,1c-0.1,0.3-0.1,0.6-0.1,0.8c0,0.4,0.1,0.7,0.3,0.8c0.2,0.1,0.4,0.2,0.7,0.2
		c0.5,0,1-0.2,1.7-0.7s1.3-1.1,2.1-2l8.9-11l1.2,1l-11,13.2c-0.8,1-1.5,1.8-2.1,2.4c-0.6,0.7-1.2,1.2-1.8,1.5
		c-0.6,0.4-1.1,0.6-1.7,0.8s-1.2,0.2-1.8,0.2c-1,0-1.8-0.3-2.4-0.9c-0.7-0.6-1-1.3-1-2.2c0-0.8,0.2-1.8,0.6-2.9
		c0.4-1.1,0.9-2.5,1.6-4.1l9.2-22c-0.5,0.8-1.1,1.7-1.8,2.7s-1.5,2.1-2.5,3.4c-1,1.3-2.1,2.7-3.3,4.3c-1.2,1.6-2.6,3.3-4.2,5.3
		l-1.2-1c2.2-2.8,4.2-5.2,5.9-7.4s3.1-4.2,4.3-5.9c1.2-1.8,2.2-3.3,3.1-4.7c0.8-1.4,1.6-2.7,2.2-4c0.7-1.2,1.2-2.4,1.8-3.5
		s1.1-2.3,1.7-3.5l5.6-13h5.9L30.6,51.2z"/>
	<path class="st0" d="M54.6,31c0-0.2-0.1-0.3-0.2-0.4c-0.1-0.1-0.3-0.1-0.4-0.1c-0.3,0-0.6,0.2-0.9,0.5l-9.7,12l-1.2-1l11-13.6
		c0.8-1,1.7-2,2.7-2.8c0.9-0.8,1.9-1.2,2.9-1.2c0.9,0,1.6,0.3,2.1,0.8c0.4,0.5,0.6,1.1,0.6,1.7s-0.1,1.3-0.3,2.1
		c-0.2,0.8-0.5,1.6-0.9,2.4l-6.8,16c-0.2,0.5-0.3,0.8-0.3,1.1s0.1,0.5,0.4,0.5c0.4,0,0.7-0.3,1.2-1L65,32.8c1-1.6,2-2.9,2.8-4
		s1.6-2,2.3-2.7s1.4-1.2,2.1-1.5s1.4-0.5,2.1-0.5c1.2,0,2.2,0.2,2.8,0.7c0.7,0.5,1,1.2,1,2.1c0,0.6-0.1,1.1-0.2,1.7
		c-0.2,0.6-0.3,1.1-0.5,1.6L68.9,51c-0.1,0.3-0.2,0.6-0.3,1c-0.1,0.3-0.1,0.6-0.1,0.8c0,0.4,0.1,0.7,0.3,0.8
		c0.2,0.1,0.4,0.2,0.7,0.2c0.5,0,1-0.2,1.7-0.7s1.3-1.1,2.1-2l8.9-11l1.2,1L72.5,54.5c-0.8,1-1.5,1.8-2.2,2.4
		c-0.7,0.7-1.3,1.2-1.9,1.5c-0.6,0.4-1.2,0.6-1.8,0.8c-0.6,0.2-1.2,0.2-1.8,0.2c-1,0-1.8-0.3-2.4-0.9c-0.7-0.6-1-1.3-1-2.2
		c0-0.8,0.2-1.8,0.6-2.9c0.4-1.1,0.9-2.5,1.6-4.1l7.9-18.7c0.1-0.2,0.1-0.5,0.1-0.7c0-0.7-0.3-1-0.9-1c-0.3,0-0.5,0.1-0.9,0.2
		c-0.3,0.2-0.6,0.5-1,1L52.7,54.3c-1.3,1.9-2.4,3.2-3.3,4c-1,0.8-1.9,1.2-2.8,1.2c-1.5,0-2.2-0.7-2.2-2.1c0-0.7,0.2-1.7,0.6-2.8
		c0.4-1.1,0.9-2.4,1.5-4l8.1-19.1C54.6,31.3,54.6,31.1,54.6,31z"/>
</g>
</svg>
