<?xml version="1.0" encoding="utf-8"?>
<!-- Generator: Adobe Illustrator 22.1.0, SVG Export Plug-In . SVG Version: 6.00 Build 0)  -->
<svg version="1.1" id="Layer_1" xmlns="http://www.w3.org/2000/svg" xmlns:xlink="http://www.w3.org/1999/xlink" x="0px" y="0px"
	 viewBox="0 0 68.3 59.6" style="enable-background:new 0 0 68.3 59.6;" xml:space="preserve">
<style type="text/css">
	.st0{fill:#FFFFFF;}
</style>
<title>TLN-gray</title>
<path class="st0" d="M14.6,58.7l-1.8,0.9h45.1v-0.5c0-0.1-0.1-6.5-0.1-8.9v-1.9l-1,1.7c-2.6,4.5-4,7-17.8,7c-13.1,0-15.9-1.9-17-3.6
	c-0.3-0.5-0.5-4.4-0.4-7.8L21.5,14c0-4,0.8-4.5,3.7-6.1L27.1,7H12.7l2,1c2.2,1.1,3.2,2.2,3.5,6v38.6C17.7,56.5,17.4,57.2,14.6,58.7z
	"/>
<path class="st0" d="M55.4,0h-41v1.9c0,0.6,0.5,1.2,1.1,1.2c0,0,0.1,0,0.1,0h18.3c0.2,0,0.2,0.1,0.2,0.2v44.2H36
	c0.6,0,1.2-0.5,1.2-1.1c0,0,0-0.1,0-0.1v-43c0-0.2,0.1-0.2,0.2-0.2h19.2V1.2c0-0.6-0.5-1.2-1.1-1.2C55.5,0,55.4,0,55.4,0z"/>
<path class="st0" d="M67.3,10.9L67.3,10.9c-1-0.8-2.3-1.2-3.6-1.2h-0.5c-4.8,0-10.3,4.8-16.3,14.1c-3.4,5.4-6.3,10.9-8.9,16.7
	c0.1-0.8,0.1-1.5,0.1-2.3c0-1.9-0.1-3.9-0.3-5.8c-0.2-1.8-0.5-3.6-0.8-5.2l-0.3-2.1c-0.1-0.9-0.3-1.8-0.5-2.7
	c-0.2-1.5-0.3-3.1-0.3-4.6c0-1,0.1-2.1,0.2-3.1c0.1-0.4,0.2-0.9,0.2-1.3c0.1-0.2,0.1-0.5,0.1-0.7c0.1-0.2,0.1-0.4,0.2-0.6
	c0.1-0.3,0.2-0.5,0.3-0.8l0.3-0.6c0.1-0.2,0.1-0.4,0.2-0.6l0.4-0.7h-1.3c-2.6,0-3.6,3.4-3.9,4.9C27,26.7,16.6,49.8,6.1,50.1
	c-0.3,0-0.6-0.1-0.9-0.3c-0.1,0-0.1,0-0.2-0.1c0.1-0.2,0.2-0.3,0.3-0.5c0.1-0.3,0.1-0.7,0.1-1c0-0.6-0.2-1.2-0.6-1.6
	c-0.6-0.5-1.3-0.7-2.1-0.6c-1.4,0-2.6,1.1-2.7,2.5C0,51.1,3,52,5,52h0.5c2.3,0,4.4-0.7,6.3-2c2.1-1.4,4-3,5.6-4.9
	c1.9-2.1,3.6-4.4,5-6.8c1.4-2.3,2.9-4.7,4.3-7.5c1.1-2,2.4-4.7,3.5-7.2c0.4-1,0.8-1.9,1.2-2.8v1c0.1,3.4,0.4,6.8,0.9,10.2l0.4,2.7
	c0.5,3.3,0.8,6.7,0.9,10c0,2.2-0.2,4.4-0.7,6.6l-0.1,0.6h1.8l0.1-0.3c1.8-4,4.2-9.2,6.7-14.4c2.1-4.3,4.5-8.5,7.1-12.5
	c0.7-1,1.6-2.4,2.8-3.9c1.1-1.4,2.2-2.7,3.4-3.9c1.1-1.1,2.4-2.2,3.8-3c1-0.6,2.2-1.1,3.4-1.2c1.1-0.1,2,0.8,2.1,1.9
	c0,0.1,0,0.1,0,0.2c0.1,1.6-0.7,3.1-1.9,4l-0.2,0.1v1.6l0.7-0.4h0.5c0.6-0.2,1.2-0.5,1.8-0.8c0.5-0.2,0.9-0.5,1.3-0.9
	c0.1-0.1,0.3-0.2,0.4-0.4c0.5-0.5,0.9-1.1,1.2-1.7c0.3-0.7,0.5-1.4,0.5-2.1C68.5,13,68.1,11.8,67.3,10.9z"/>
</svg>
